M48
;Layer_Color=9474304
;FILE_FORMAT=4:4
METRIC,LZ
;TYPE=PLATED
T01F00S00C0.3048
T02F00S00C0.4000
T03F00S00C1.1000
T04F00S00C2.5000
;TYPE=NON_PLATED
T05F00S00C0.9000
%
T01
X00246Y00046
X00346
X00546
X00746
X00796Y00146
X00696
X00546Y00246
X00596Y00346
X00646Y00446
X00746
X00796Y00346
X00546Y00446
X00346
X00246
X00296Y00346
X00396
X00346Y00246
X00396Y00146
X00296
X00046Y00246
X00096Y00346
X00046Y00446
T02
X0016Y00135
X0017
X00186
X00196
X00203Y00316
Y00325
X00174
Y00316
X00343Y00273
X00334Y00222
X00321Y00223
X00311094Y002295
X004Y00471
X00427
X00518Y0048
X00519Y00514
X00051Y00435
X00015Y00157
T03
X005651Y003923
X005905
Y004177
X006159
X006413
Y003923
X006159
X005651Y004177
X005397
Y003923
X005143
Y004177
X004889
X004635
X004381
Y003923
X004127
Y004177
X003873
X003619
Y003923
X003365
X003111
Y004177
X002857
X002603
X002349
Y003923
X002095
Y004177
X001841
X001587
Y003923
X001841
X002603
X002857
X003365Y004177
X003873Y003923
X004635
X004889
T04
X0015Y0004
X004
X0065
X0069Y00175
X0011
X0015Y0054
X004
X0065
T05
X000295Y0027
Y0031
M30
