M48
; DRILL file {KiCad (6.0.7-1)-1} date Friday, November 11, 2022 at 08:36:09 PM
; FORMAT={-:-/ absolute / metric / decimal}
; #@! TF.CreationDate,2022-11-11T20:36:09-08:00
; #@! TF.GenerationSoftware,Kicad,Pcbnew,(6.0.7-1)-1
; #@! TF.FileFunction,Plated,1,2,PTH
FMAT,2
METRIC
; #@! TA.AperFunction,Plated,PTH,ViaDrill
T1C0.400
; #@! TA.AperFunction,Plated,PTH,ComponentDrill
T2C0.800
; #@! TA.AperFunction,Plated,PTH,ComponentDrill
T3C0.900
; #@! TA.AperFunction,Plated,PTH,ComponentDrill
T4C1.000
%
G90
G05
T1
X121.92Y-88.9
X127.0Y-111.76
X132.08Y-109.397
X147.32Y-88.9
X147.32Y-114.3
X150.48Y-103.44
X162.56Y-121.92
T2
X123.29Y-81.28
X129.54Y-81.28
T3
X124.371Y-92.233
X124.371Y-94.773
X126.911Y-92.233
X126.911Y-94.773
X129.451Y-92.233
X129.451Y-94.773
X131.991Y-92.233
X131.991Y-94.773
X134.531Y-92.233
X134.531Y-94.773
X137.071Y-92.233
X137.071Y-94.773
X139.611Y-92.233
X139.611Y-94.773
X142.151Y-92.233
X142.151Y-94.773
X144.691Y-92.233
X144.691Y-94.773
X147.231Y-92.233
X147.231Y-94.773
X149.771Y-92.233
X149.771Y-94.773
X149.86Y-106.68
X149.86Y-114.3
X152.311Y-92.233
X152.311Y-94.773
X152.4Y-106.68
X152.4Y-114.3
X154.851Y-92.233
X154.851Y-94.773
X154.94Y-106.68
X154.94Y-114.3
X157.391Y-92.233
X157.391Y-94.773
X157.48Y-101.6
X157.48Y-106.68
X157.48Y-114.3
X159.931Y-92.233
X159.931Y-94.773
X160.02Y-101.6
X160.02Y-106.68
X160.02Y-114.3
X162.471Y-92.233
X162.471Y-94.773
X162.56Y-101.6
X162.56Y-106.68
X162.56Y-114.3
X165.011Y-92.233
X165.011Y-94.773
X165.1Y-101.6
X165.1Y-114.3
X167.551Y-92.233
X167.551Y-94.773
X167.64Y-106.68
X167.64Y-114.3
X170.091Y-92.233
X170.091Y-94.773
X172.631Y-92.233
X172.631Y-94.773
T4
X124.46Y-101.6
X124.46Y-116.84
X127.0Y-101.6
X127.0Y-116.84
X129.54Y-101.6
X129.54Y-116.84
X132.08Y-101.6
X132.08Y-116.84
X132.08Y-121.92
X134.62Y-101.6
X134.62Y-116.84
X134.62Y-121.92
X137.16Y-101.6
X137.16Y-116.84
X137.16Y-121.92
X139.7Y-101.6
X139.7Y-116.84
X139.7Y-121.92
X142.24Y-101.6
X142.24Y-116.84
X149.86Y-127.0
X152.4Y-127.0
X154.94Y-116.84
X154.94Y-127.0
X157.48Y-116.84
X157.48Y-127.0
X160.02Y-116.84
X160.02Y-127.0
X162.56Y-116.84
X162.56Y-127.0
X165.1Y-106.68
X165.1Y-116.84
X165.1Y-127.0
X167.64Y-116.84
T0
M30
