%TF.GenerationSoftware,KiCad,Pcbnew,(6.0.7-1)-1*%
%TF.CreationDate,2022-09-15T19:16:24-07:00*%
%TF.ProjectId,KamiPCBv2,4b616d69-5043-4427-9632-2e6b69636164,rev?*%
%TF.SameCoordinates,Original*%
%TF.FileFunction,Legend,Bot*%
%TF.FilePolarity,Positive*%
%FSLAX46Y46*%
G04 Gerber Fmt 4.6, Leading zero omitted, Abs format (unit mm)*
G04 Created by KiCad (PCBNEW (6.0.7-1)-1) date 2022-09-15 19:16:24*
%MOMM*%
%LPD*%
G01*
G04 APERTURE LIST*
%ADD10C,0.300000*%
%ADD11C,0.125000*%
%ADD12C,0.203200*%
G04 APERTURE END LIST*
D10*
X171191071Y-98148571D02*
X169691071Y-98148571D01*
X171191071Y-99005714D02*
X170333928Y-98362857D01*
X169691071Y-99005714D02*
X170548214Y-98148571D01*
X170762500Y-99577142D02*
X170762500Y-100291428D01*
X171191071Y-99434285D02*
X169691071Y-99934285D01*
X171191071Y-100434285D01*
X171191071Y-100934285D02*
X169691071Y-100934285D01*
X170762500Y-101434285D01*
X169691071Y-101934285D01*
X171191071Y-101934285D01*
X171191071Y-102648571D02*
X169691071Y-102648571D01*
X169762500Y-104148571D02*
X169691071Y-104005714D01*
X169691071Y-103791428D01*
X169762500Y-103577142D01*
X169905357Y-103434285D01*
X170048214Y-103362857D01*
X170333928Y-103291428D01*
X170548214Y-103291428D01*
X170833928Y-103362857D01*
X170976785Y-103434285D01*
X171119642Y-103577142D01*
X171191071Y-103791428D01*
X171191071Y-103934285D01*
X171119642Y-104148571D01*
X171048214Y-104220000D01*
X170548214Y-104220000D01*
X170548214Y-103934285D01*
X170762500Y-104791428D02*
X170762500Y-105505714D01*
X171191071Y-104648571D02*
X169691071Y-105148571D01*
X171191071Y-105648571D01*
X171191071Y-106148571D02*
X169691071Y-106148571D01*
X170762500Y-106648571D01*
X169691071Y-107148571D01*
X171191071Y-107148571D01*
X171191071Y-107862857D02*
X169691071Y-107862857D01*
X170405357Y-110220000D02*
X170476785Y-110434285D01*
X170548214Y-110505714D01*
X170691071Y-110577142D01*
X170905357Y-110577142D01*
X171048214Y-110505714D01*
X171119642Y-110434285D01*
X171191071Y-110291428D01*
X171191071Y-109720000D01*
X169691071Y-109720000D01*
X169691071Y-110220000D01*
X169762500Y-110362857D01*
X169833928Y-110434285D01*
X169976785Y-110505714D01*
X170119642Y-110505714D01*
X170262500Y-110434285D01*
X170333928Y-110362857D01*
X170405357Y-110220000D01*
X170405357Y-109720000D01*
X171191071Y-111220000D02*
X169691071Y-111220000D01*
X170762500Y-111720000D01*
X169691071Y-112220000D01*
X171191071Y-112220000D01*
X171191071Y-113648571D02*
X171191071Y-112934285D01*
X169691071Y-112934285D01*
X169833928Y-115220000D02*
X169762500Y-115291428D01*
X169691071Y-115434285D01*
X169691071Y-115791428D01*
X169762500Y-115934285D01*
X169833928Y-116005714D01*
X169976785Y-116077142D01*
X170119642Y-116077142D01*
X170333928Y-116005714D01*
X171191071Y-115148571D01*
X171191071Y-116077142D01*
X169691071Y-117005714D02*
X169691071Y-117148571D01*
X169762500Y-117291428D01*
X169833928Y-117362857D01*
X169976785Y-117434285D01*
X170262500Y-117505714D01*
X170619642Y-117505714D01*
X170905357Y-117434285D01*
X171048214Y-117362857D01*
X171119642Y-117291428D01*
X171191071Y-117148571D01*
X171191071Y-117005714D01*
X171119642Y-116862857D01*
X171048214Y-116791428D01*
X170905357Y-116720000D01*
X170619642Y-116648571D01*
X170262500Y-116648571D01*
X169976785Y-116720000D01*
X169833928Y-116791428D01*
X169762500Y-116862857D01*
X169691071Y-117005714D01*
X169833928Y-118077142D02*
X169762500Y-118148571D01*
X169691071Y-118291428D01*
X169691071Y-118648571D01*
X169762500Y-118791428D01*
X169833928Y-118862857D01*
X169976785Y-118934285D01*
X170119642Y-118934285D01*
X170333928Y-118862857D01*
X171191071Y-118005714D01*
X171191071Y-118934285D01*
X169833928Y-119505714D02*
X169762500Y-119577142D01*
X169691071Y-119720000D01*
X169691071Y-120077142D01*
X169762500Y-120220000D01*
X169833928Y-120291428D01*
X169976785Y-120362857D01*
X170119642Y-120362857D01*
X170333928Y-120291428D01*
X171191071Y-119434285D01*
X171191071Y-120362857D01*
X172820357Y-98827142D02*
X172891785Y-99041428D01*
X172963214Y-99112857D01*
X173106071Y-99184285D01*
X173320357Y-99184285D01*
X173463214Y-99112857D01*
X173534642Y-99041428D01*
X173606071Y-98898571D01*
X173606071Y-98327142D01*
X172106071Y-98327142D01*
X172106071Y-98827142D01*
X172177500Y-98970000D01*
X172248928Y-99041428D01*
X172391785Y-99112857D01*
X172534642Y-99112857D01*
X172677500Y-99041428D01*
X172748928Y-98970000D01*
X172820357Y-98827142D01*
X172820357Y-98327142D01*
X173606071Y-99827142D02*
X172606071Y-99827142D01*
X172891785Y-99827142D02*
X172748928Y-99898571D01*
X172677500Y-99970000D01*
X172606071Y-100112857D01*
X172606071Y-100255714D01*
X173606071Y-101398571D02*
X172820357Y-101398571D01*
X172677500Y-101327142D01*
X172606071Y-101184285D01*
X172606071Y-100898571D01*
X172677500Y-100755714D01*
X173534642Y-101398571D02*
X173606071Y-101255714D01*
X173606071Y-100898571D01*
X173534642Y-100755714D01*
X173391785Y-100684285D01*
X173248928Y-100684285D01*
X173106071Y-100755714D01*
X173034642Y-100898571D01*
X173034642Y-101255714D01*
X172963214Y-101398571D01*
X172606071Y-102112857D02*
X173606071Y-102112857D01*
X172748928Y-102112857D02*
X172677500Y-102184285D01*
X172606071Y-102327142D01*
X172606071Y-102541428D01*
X172677500Y-102684285D01*
X172820357Y-102755714D01*
X173606071Y-102755714D01*
X173606071Y-104112857D02*
X172106071Y-104112857D01*
X173534642Y-104112857D02*
X173606071Y-103970000D01*
X173606071Y-103684285D01*
X173534642Y-103541428D01*
X173463214Y-103470000D01*
X173320357Y-103398571D01*
X172891785Y-103398571D01*
X172748928Y-103470000D01*
X172677500Y-103541428D01*
X172606071Y-103684285D01*
X172606071Y-103970000D01*
X172677500Y-104112857D01*
X173606071Y-105041428D02*
X173534642Y-104898571D01*
X173463214Y-104827142D01*
X173320357Y-104755714D01*
X172891785Y-104755714D01*
X172748928Y-104827142D01*
X172677500Y-104898571D01*
X172606071Y-105041428D01*
X172606071Y-105255714D01*
X172677500Y-105398571D01*
X172748928Y-105470000D01*
X172891785Y-105541428D01*
X173320357Y-105541428D01*
X173463214Y-105470000D01*
X173534642Y-105398571D01*
X173606071Y-105255714D01*
X173606071Y-105041428D01*
X172606071Y-106184285D02*
X173606071Y-106184285D01*
X172748928Y-106184285D02*
X172677500Y-106255714D01*
X172606071Y-106398571D01*
X172606071Y-106612857D01*
X172677500Y-106755714D01*
X172820357Y-106827142D01*
X173606071Y-106827142D01*
X172106071Y-108470000D02*
X173606071Y-108970000D01*
X172106071Y-109470000D01*
X173606071Y-110612857D02*
X172820357Y-110612857D01*
X172677500Y-110541428D01*
X172606071Y-110398571D01*
X172606071Y-110112857D01*
X172677500Y-109970000D01*
X173534642Y-110612857D02*
X173606071Y-110470000D01*
X173606071Y-110112857D01*
X173534642Y-109970000D01*
X173391785Y-109898571D01*
X173248928Y-109898571D01*
X173106071Y-109970000D01*
X173034642Y-110112857D01*
X173034642Y-110470000D01*
X172963214Y-110612857D01*
X172606071Y-111327142D02*
X173606071Y-111327142D01*
X172748928Y-111327142D02*
X172677500Y-111398571D01*
X172606071Y-111541428D01*
X172606071Y-111755714D01*
X172677500Y-111898571D01*
X172820357Y-111970000D01*
X173606071Y-111970000D01*
X172820357Y-113184285D02*
X172891785Y-113398571D01*
X172963214Y-113470000D01*
X173106071Y-113541428D01*
X173320357Y-113541428D01*
X173463214Y-113470000D01*
X173534642Y-113398571D01*
X173606071Y-113255714D01*
X173606071Y-112684285D01*
X172106071Y-112684285D01*
X172106071Y-113184285D01*
X172177500Y-113327142D01*
X172248928Y-113398571D01*
X172391785Y-113470000D01*
X172534642Y-113470000D01*
X172677500Y-113398571D01*
X172748928Y-113327142D01*
X172820357Y-113184285D01*
X172820357Y-112684285D01*
X172606071Y-114827142D02*
X173606071Y-114827142D01*
X172606071Y-114184285D02*
X173391785Y-114184285D01*
X173534642Y-114255714D01*
X173606071Y-114398571D01*
X173606071Y-114612857D01*
X173534642Y-114755714D01*
X173463214Y-114827142D01*
X173534642Y-115470000D02*
X173606071Y-115612857D01*
X173606071Y-115898571D01*
X173534642Y-116041428D01*
X173391785Y-116112857D01*
X173320357Y-116112857D01*
X173177500Y-116041428D01*
X173106071Y-115898571D01*
X173106071Y-115684285D01*
X173034642Y-115541428D01*
X172891785Y-115470000D01*
X172820357Y-115470000D01*
X172677500Y-115541428D01*
X172606071Y-115684285D01*
X172606071Y-115898571D01*
X172677500Y-116041428D01*
X173606071Y-116755714D02*
X172106071Y-116755714D01*
X173034642Y-116898571D02*
X173606071Y-117327142D01*
X172606071Y-117327142D02*
X173177500Y-116755714D01*
X173606071Y-117970000D02*
X172606071Y-117970000D01*
X172106071Y-117970000D02*
X172177500Y-117898571D01*
X172248928Y-117970000D01*
X172177500Y-118041428D01*
X172106071Y-117970000D01*
X172248928Y-117970000D01*
X173606071Y-118684285D02*
X172606071Y-118684285D01*
X172891785Y-118684285D02*
X172748928Y-118755714D01*
X172677500Y-118827142D01*
X172606071Y-118970000D01*
X172606071Y-119112857D01*
X173606071Y-119612857D02*
X172106071Y-119612857D01*
X173034642Y-119755714D02*
X173606071Y-120184285D01*
X172606071Y-120184285D02*
X173177500Y-119612857D01*
D11*
X133127619Y-124686190D02*
X133127619Y-124186190D01*
X132960952Y-124543333D01*
X132794285Y-124186190D01*
X132794285Y-124686190D01*
X132294285Y-124686190D02*
X132580000Y-124686190D01*
X132437142Y-124686190D02*
X132437142Y-124186190D01*
X132484761Y-124257619D01*
X132532380Y-124305238D01*
X132580000Y-124329047D01*
X131937142Y-124876666D02*
X131960952Y-124852857D01*
X132008571Y-124781428D01*
X132032380Y-124733809D01*
X132056190Y-124662380D01*
X132080000Y-124543333D01*
X132080000Y-124448095D01*
X132056190Y-124329047D01*
X132032380Y-124257619D01*
X132008571Y-124210000D01*
X131960952Y-124138571D01*
X131937142Y-124114761D01*
X131746666Y-124495714D02*
X131365714Y-124495714D01*
X131556190Y-124686190D02*
X131556190Y-124305238D01*
X131175238Y-124876666D02*
X131151428Y-124852857D01*
X131103809Y-124781428D01*
X131080000Y-124733809D01*
X131056190Y-124662380D01*
X131032380Y-124543333D01*
X131032380Y-124448095D01*
X131056190Y-124329047D01*
X131080000Y-124257619D01*
X131103809Y-124210000D01*
X131151428Y-124138571D01*
X131175238Y-124114761D01*
X135667619Y-119606190D02*
X135667619Y-119106190D01*
X135500952Y-119463333D01*
X135334285Y-119106190D01*
X135334285Y-119606190D01*
X134834285Y-119606190D02*
X135120000Y-119606190D01*
X134977142Y-119606190D02*
X134977142Y-119106190D01*
X135024761Y-119177619D01*
X135072380Y-119225238D01*
X135120000Y-119249047D01*
X134477142Y-119796666D02*
X134500952Y-119772857D01*
X134548571Y-119701428D01*
X134572380Y-119653809D01*
X134596190Y-119582380D01*
X134620000Y-119463333D01*
X134620000Y-119368095D01*
X134596190Y-119249047D01*
X134572380Y-119177619D01*
X134548571Y-119130000D01*
X134500952Y-119058571D01*
X134477142Y-119034761D01*
X134286666Y-119415714D02*
X133905714Y-119415714D01*
X133715238Y-119796666D02*
X133691428Y-119772857D01*
X133643809Y-119701428D01*
X133620000Y-119653809D01*
X133596190Y-119582380D01*
X133572380Y-119463333D01*
X133572380Y-119368095D01*
X133596190Y-119249047D01*
X133620000Y-119177619D01*
X133643809Y-119130000D01*
X133691428Y-119058571D01*
X133715238Y-119034761D01*
X140747619Y-119606190D02*
X140747619Y-119106190D01*
X140580952Y-119463333D01*
X140414285Y-119106190D01*
X140414285Y-119606190D01*
X140200000Y-119153809D02*
X140176190Y-119130000D01*
X140128571Y-119106190D01*
X140009523Y-119106190D01*
X139961904Y-119130000D01*
X139938095Y-119153809D01*
X139914285Y-119201428D01*
X139914285Y-119249047D01*
X139938095Y-119320476D01*
X140223809Y-119606190D01*
X139914285Y-119606190D01*
X139557142Y-119796666D02*
X139580952Y-119772857D01*
X139628571Y-119701428D01*
X139652380Y-119653809D01*
X139676190Y-119582380D01*
X139700000Y-119463333D01*
X139700000Y-119368095D01*
X139676190Y-119249047D01*
X139652380Y-119177619D01*
X139628571Y-119130000D01*
X139580952Y-119058571D01*
X139557142Y-119034761D01*
X139366666Y-119415714D02*
X138985714Y-119415714D01*
X138795238Y-119796666D02*
X138771428Y-119772857D01*
X138723809Y-119701428D01*
X138700000Y-119653809D01*
X138676190Y-119582380D01*
X138652380Y-119463333D01*
X138652380Y-119368095D01*
X138676190Y-119249047D01*
X138700000Y-119177619D01*
X138723809Y-119130000D01*
X138771428Y-119058571D01*
X138795238Y-119034761D01*
X138207619Y-124686190D02*
X138207619Y-124186190D01*
X138040952Y-124543333D01*
X137874285Y-124186190D01*
X137874285Y-124686190D01*
X137660000Y-124233809D02*
X137636190Y-124210000D01*
X137588571Y-124186190D01*
X137469523Y-124186190D01*
X137421904Y-124210000D01*
X137398095Y-124233809D01*
X137374285Y-124281428D01*
X137374285Y-124329047D01*
X137398095Y-124400476D01*
X137683809Y-124686190D01*
X137374285Y-124686190D01*
X137017142Y-124876666D02*
X137040952Y-124852857D01*
X137088571Y-124781428D01*
X137112380Y-124733809D01*
X137136190Y-124662380D01*
X137160000Y-124543333D01*
X137160000Y-124448095D01*
X137136190Y-124329047D01*
X137112380Y-124257619D01*
X137088571Y-124210000D01*
X137040952Y-124138571D01*
X137017142Y-124114761D01*
X136826666Y-124495714D02*
X136445714Y-124495714D01*
X136636190Y-124686190D02*
X136636190Y-124305238D01*
X136255238Y-124876666D02*
X136231428Y-124852857D01*
X136183809Y-124781428D01*
X136160000Y-124733809D01*
X136136190Y-124662380D01*
X136112380Y-124543333D01*
X136112380Y-124448095D01*
X136136190Y-124329047D01*
X136160000Y-124257619D01*
X136183809Y-124210000D01*
X136231428Y-124138571D01*
X136255238Y-124114761D01*
D12*
%TO.C,X1*%
X113800000Y-109000000D02*
X109800000Y-109000000D01*
%TD*%
M02*
