%TF.GenerationSoftware,KiCad,Pcbnew,(6.0.7-1)-1*%
%TF.CreationDate,2022-08-15T15:20:02-07:00*%
%TF.ProjectId,KamiPCB,4b616d69-5043-4422-9e6b-696361645f70,rev?*%
%TF.SameCoordinates,Original*%
%TF.FileFunction,Copper,L1,Top*%
%TF.FilePolarity,Positive*%
%FSLAX46Y46*%
G04 Gerber Fmt 4.6, Leading zero omitted, Abs format (unit mm)*
G04 Created by KiCad (PCBNEW (6.0.7-1)-1) date 2022-08-15 15:20:02*
%MOMM*%
%LPD*%
G01*
G04 APERTURE LIST*
G04 Aperture macros list*
%AMRoundRect*
0 Rectangle with rounded corners*
0 $1 Rounding radius*
0 $2 $3 $4 $5 $6 $7 $8 $9 X,Y pos of 4 corners*
0 Add a 4 corners polygon primitive as box body*
4,1,4,$2,$3,$4,$5,$6,$7,$8,$9,$2,$3,0*
0 Add four circle primitives for the rounded corners*
1,1,$1+$1,$2,$3*
1,1,$1+$1,$4,$5*
1,1,$1+$1,$6,$7*
1,1,$1+$1,$8,$9*
0 Add four rect primitives between the rounded corners*
20,1,$1+$1,$2,$3,$4,$5,0*
20,1,$1+$1,$4,$5,$6,$7,0*
20,1,$1+$1,$6,$7,$8,$9,0*
20,1,$1+$1,$8,$9,$2,$3,0*%
G04 Aperture macros list end*
%TA.AperFunction,ComponentPad*%
%ADD10C,1.676400*%
%TD*%
%TA.AperFunction,SMDPad,CuDef*%
%ADD11RoundRect,0.160000X0.160000X-0.197500X0.160000X0.197500X-0.160000X0.197500X-0.160000X-0.197500X0*%
%TD*%
%TA.AperFunction,SMDPad,CuDef*%
%ADD12RoundRect,0.160000X-0.197500X-0.160000X0.197500X-0.160000X0.197500X0.160000X-0.197500X0.160000X0*%
%TD*%
%TA.AperFunction,SMDPad,CuDef*%
%ADD13RoundRect,0.237500X-0.250000X-0.237500X0.250000X-0.237500X0.250000X0.237500X-0.250000X0.237500X0*%
%TD*%
%TA.AperFunction,SMDPad,CuDef*%
%ADD14RoundRect,0.500000X0.000000X0.000000X0.000000X0.000000X0.000000X0.000000X0.000000X0.000000X0*%
%TD*%
%TA.AperFunction,ComponentPad*%
%ADD15C,1.778000*%
%TD*%
%TA.AperFunction,SMDPad,CuDef*%
%ADD16R,4.600000X1.000000*%
%TD*%
%TA.AperFunction,SMDPad,CuDef*%
%ADD17R,3.400000X1.600000*%
%TD*%
%TA.AperFunction,SMDPad,CuDef*%
%ADD18RoundRect,0.075000X-0.212500X-0.075000X0.212500X-0.075000X0.212500X0.075000X-0.212500X0.075000X0*%
%TD*%
%TA.AperFunction,ViaPad*%
%ADD19C,0.800000*%
%TD*%
%TA.AperFunction,ViaPad*%
%ADD20C,1.000000*%
%TD*%
%TA.AperFunction,Conductor*%
%ADD21C,0.500000*%
%TD*%
%TA.AperFunction,Conductor*%
%ADD22C,0.250000*%
%TD*%
%TA.AperFunction,Conductor*%
%ADD23C,0.812800*%
%TD*%
%TA.AperFunction,Conductor*%
%ADD24C,0.406400*%
%TD*%
%TA.AperFunction,Conductor*%
%ADD25C,0.254000*%
%TD*%
G04 APERTURE END LIST*
D10*
%TO.P,,*%
%TO.N,AN2*%
X162560000Y-116840000D03*
%TD*%
%TO.P,,*%
%TO.N,CH1*%
X157480000Y-116840000D03*
%TD*%
D11*
%TO.P,10k,*%
%TO.N,CH1*%
X134620000Y-109817500D03*
%TO.N,3.3V*%
X134620000Y-108622500D03*
%TD*%
%TO.P,10k,*%
%TO.N,CH2*%
X167640000Y-109817500D03*
%TO.N,3.3V*%
X167640000Y-108622500D03*
%TD*%
D12*
%TO.P,100k,*%
%TO.N,CH0*%
X128942500Y-114300000D03*
%TO.N,GND*%
X130137500Y-114300000D03*
%TD*%
D11*
%TO.P,100,*%
%TO.N,AN2*%
X170180000Y-109817500D03*
%TO.N,3.3V*%
X170180000Y-108622500D03*
%TD*%
%TO.P,100,*%
%TO.N,3.3V*%
X132080000Y-108622500D03*
%TO.N,AN1*%
X132080000Y-109817500D03*
%TD*%
D10*
%TO.P,,*%
%TO.N,CH0*%
X149860000Y-111760000D03*
%TD*%
%TO.P,,*%
%TO.N,GPIO16*%
X165100000Y-104140000D03*
%TD*%
%TO.P,,11*%
%TO.N,GPIO24*%
X137160000Y-101600000D03*
%TD*%
%TO.P,,13*%
%TO.N,GPIO17*%
X132080000Y-101600000D03*
%TD*%
%TO.P,,*%
%TO.N,CH1*%
X152400000Y-111760000D03*
%TD*%
%TO.P,,*%
%TO.N,3.3V*%
X149860000Y-104140000D03*
%TD*%
%TO.P,,*%
%TO.N,CH2*%
X160020000Y-116840000D03*
%TD*%
%TO.P,,*%
%TO.N,CH2*%
X154940000Y-111760000D03*
%TD*%
%TO.P,,3*%
%TO.N,N/C*%
X137160000Y-116840000D03*
%TD*%
%TO.P,,CH3*%
%TO.N,N/C*%
X157480000Y-111760000D03*
%TD*%
%TO.P,,6*%
%TO.N,GND*%
X129540000Y-116840000D03*
%TD*%
%TO.P,RPI1,1*%
%TO.N,3.3V*%
X124370757Y-94773271D03*
%TO.P,RPI1,2*%
%TO.N,5.0V*%
X124370757Y-92233271D03*
%TO.P,RPI1,3*%
%TO.N,SDA*%
X126910757Y-94773271D03*
%TO.P,RPI1,4*%
%TO.N,5.0V*%
X126910757Y-92233271D03*
%TO.P,RPI1,5*%
%TO.N,SCL*%
X129450757Y-94773271D03*
%TO.P,RPI1,6*%
%TO.N,GND*%
X129450757Y-92233271D03*
%TO.P,RPI1,7*%
%TO.N,GPIO4*%
X131990757Y-94773271D03*
%TO.P,RPI1,8*%
%TO.N,TXD*%
X131990757Y-92233271D03*
%TO.P,RPI1,9*%
%TO.N,GND*%
X134530757Y-94773271D03*
%TO.P,RPI1,10*%
%TO.N,RXD*%
X134530757Y-92233271D03*
%TO.P,RPI1,11*%
%TO.N,GPIO17*%
X137070757Y-94773271D03*
%TO.P,RPI1,12*%
%TO.N,GPIO18*%
X137070757Y-92233271D03*
%TO.P,RPI1,13*%
%TO.N,GPIO27*%
X139610757Y-94773271D03*
%TO.P,RPI1,14*%
%TO.N,GND*%
X139610757Y-92233271D03*
%TO.P,RPI1,15*%
%TO.N,GPIO22*%
X142150757Y-94773271D03*
%TO.P,RPI1,16*%
%TO.N,GPIO23*%
X142150757Y-92233271D03*
%TO.P,RPI1,17*%
%TO.N,3.3V*%
X144690757Y-94773271D03*
%TO.P,RPI1,18*%
%TO.N,GPIO24*%
X144690757Y-92233271D03*
%TO.P,RPI1,19*%
%TO.N,SPI_MOSI*%
X147230757Y-94773271D03*
%TO.P,RPI1,20*%
%TO.N,GND*%
X147230757Y-92233271D03*
%TO.P,RPI1,21*%
%TO.N,SPI_MISO*%
X149770757Y-94773271D03*
%TO.P,RPI1,22*%
%TO.N,GPIO25*%
X149770757Y-92233271D03*
%TO.P,RPI1,23*%
%TO.N,SPI_SCLK*%
X152310757Y-94773271D03*
%TO.P,RPI1,24*%
%TO.N,SPI_CE0*%
X152310757Y-92233271D03*
%TO.P,RPI1,25*%
%TO.N,GND*%
X154850757Y-94773271D03*
%TO.P,RPI1,26*%
%TO.N,SPI_CE1*%
X154850757Y-92233271D03*
%TO.P,RPI1,27*%
%TO.N,EEDATA*%
X157390757Y-94773271D03*
%TO.P,RPI1,28*%
%TO.N,EECLK*%
X157390757Y-92233271D03*
%TO.P,RPI1,29*%
%TO.N,GPIO5*%
X159930757Y-94773271D03*
%TO.P,RPI1,30*%
%TO.N,GND*%
X159930757Y-92233271D03*
%TO.P,RPI1,31*%
%TO.N,GPIO6*%
X162470757Y-94773271D03*
%TO.P,RPI1,32*%
%TO.N,GPIO12*%
X162470757Y-92233271D03*
%TO.P,RPI1,33*%
%TO.N,GPIO13*%
X165010757Y-94773271D03*
%TO.P,RPI1,34*%
%TO.N,GND*%
X165010757Y-92233271D03*
%TO.P,RPI1,35*%
%TO.N,GPIO19*%
X167550757Y-94773271D03*
%TO.P,RPI1,36*%
%TO.N,GPIO16*%
X167550757Y-92233271D03*
%TO.P,RPI1,37*%
%TO.N,GPIO26*%
X170090757Y-94773271D03*
%TO.P,RPI1,38*%
%TO.N,GPIO20*%
X170090757Y-92233271D03*
%TO.P,RPI1,39*%
%TO.N,GND*%
X172630757Y-94773271D03*
%TO.P,RPI1,40*%
%TO.N,GPIO21*%
X172630757Y-92233271D03*
%TD*%
%TO.P,,15*%
%TO.N,GPIO22*%
X127000000Y-101600000D03*
%TD*%
%TO.P,,8*%
%TO.N,5.0V*%
X124460000Y-116840000D03*
%TD*%
%TO.P,,14*%
%TO.N,GPIO27*%
X129540000Y-101600000D03*
%TD*%
%TO.P,,39*%
%TO.N,GND*%
X167640000Y-104140000D03*
%TD*%
%TO.P,,*%
%TO.N,GND*%
X154940000Y-104140000D03*
%TD*%
D13*
%TO.P,,*%
%TO.N,5.0V*%
X123547500Y-111760000D03*
%TO.N,CH0*%
X125372500Y-111760000D03*
%TD*%
D10*
%TO.P,,10*%
%TO.N,GPIO18*%
X139700000Y-101600000D03*
%TD*%
%TO.P,,16*%
%TO.N,GPIO13*%
X124460000Y-101600000D03*
%TD*%
%TO.P,,CH6*%
%TO.N,N/C*%
X165100000Y-111760000D03*
%TD*%
D14*
%TO.P,FID1,1*%
%TO.N,N/C*%
X111379000Y-106680000D03*
%TD*%
D10*
%TO.P,,*%
%TO.N,SPI_MISO*%
X160020000Y-104140000D03*
%TD*%
%TO.P,,*%
%TO.N,AN1*%
X154940000Y-116840000D03*
%TD*%
%TO.P,,*%
%TO.N,GND*%
X152400000Y-116840000D03*
%TD*%
%TO.P,,*%
%TO.N,3.3V*%
X152400000Y-104140000D03*
%TD*%
%TO.P,,CH4*%
%TO.N,N/C*%
X160020000Y-111760000D03*
%TD*%
%TO.P,,2*%
%TO.N,N/C*%
X139700000Y-116840000D03*
%TD*%
%TO.P,,CH7*%
%TO.N,N/C*%
X167640000Y-111760000D03*
%TD*%
%TO.P,,4*%
%TO.N,N/C*%
X134620000Y-116840000D03*
%TD*%
%TO.P,,*%
%TO.N,SPI_MOSI*%
X162560000Y-104140000D03*
%TD*%
%TO.P,,9*%
%TO.N,GND*%
X142240000Y-101600000D03*
%TD*%
D15*
%TO.P,JP1,1*%
%TO.N,N/C*%
X167640000Y-99060000D03*
%TO.P,JP1,2*%
%TO.N,SDA*%
X165100000Y-99060000D03*
%TO.P,JP1,3*%
%TO.N,SCL*%
X162560000Y-99060000D03*
%TO.P,JP1,4*%
%TO.N,GND*%
X160020000Y-99060000D03*
%TO.P,JP1,5*%
%TO.N,3.3V*%
X157480000Y-99060000D03*
%TO.P,JP1,6*%
%TO.N,N/C*%
X154940000Y-99060000D03*
%TD*%
D10*
%TO.P,,1*%
%TO.N,GND*%
X142240000Y-116840000D03*
%TD*%
%TO.P,,CH5*%
%TO.N,N/C*%
X162560000Y-111760000D03*
%TD*%
%TO.P,,12*%
%TO.N,GPIO23*%
X134620000Y-101600000D03*
%TD*%
%TO.P,,7*%
%TO.N,5.0V*%
X127000000Y-116840000D03*
%TD*%
%TO.P,,4*%
%TO.N,N/C*%
X132080000Y-116840000D03*
%TD*%
%TO.P,,*%
%TO.N,GND*%
X165100000Y-116840000D03*
%TD*%
%TO.P,,*%
%TO.N,SPI_SCLK*%
X157480000Y-104140000D03*
%TD*%
D16*
%TO.P,X1,*%
%TO.N,GND*%
X115079000Y-107680000D03*
%TO.N,5.0V*%
X115079000Y-105680000D03*
D17*
%TO.P,X1,NC1*%
%TO.N,N/C*%
X109879000Y-110080000D03*
%TO.P,X1,NC2*%
X109879000Y-103280000D03*
%TD*%
D18*
%TO.P, ,1*%
%TO.N,CH0*%
X129202500Y-111760000D03*
%TO.P, ,2*%
%TO.N,GND*%
X129877500Y-111760000D03*
%TD*%
D19*
%TO.N,3.3V*%
X162560000Y-109220000D03*
%TO.N,CH0*%
X127000000Y-111760000D03*
%TO.N,SDA*%
X152400000Y-106680000D03*
X170180000Y-101600000D03*
D20*
%TO.N,5.0V*%
X121920000Y-106680000D03*
D19*
%TO.N,3.3V*%
X157480000Y-101600000D03*
D20*
%TO.N,GND*%
X119380000Y-111760000D03*
%TD*%
D21*
%TO.N,3.3V*%
X162560000Y-109220000D02*
X167012804Y-109220000D01*
X167012804Y-109220000D02*
X167610304Y-108622500D01*
X167610304Y-108622500D02*
X167640000Y-108622500D01*
X167640000Y-108622500D02*
X170180000Y-108622500D01*
D22*
%TO.N,AN2*%
X162560000Y-116840000D02*
X166444989Y-112955011D01*
X166444989Y-112955011D02*
X168984989Y-112955011D01*
X168984989Y-112955011D02*
X170180000Y-111760000D01*
X170180000Y-111760000D02*
X170180000Y-109817500D01*
%TO.N,CH2*%
X160020000Y-116840000D02*
X154940000Y-111760000D01*
%TO.N,CH1*%
X152400000Y-114300000D02*
X154940000Y-114300000D01*
X139102500Y-114300000D02*
X152400000Y-114300000D01*
X152400000Y-114300000D02*
X152400000Y-111760000D01*
%TO.N,GND*%
X129877500Y-113962500D02*
X130137500Y-114222500D01*
X130137500Y-114222500D02*
X130137500Y-114300000D01*
%TO.N,CH2*%
X160020000Y-116840000D02*
X163904989Y-112955011D01*
X163904989Y-112955011D02*
X163904989Y-110415011D01*
X163904989Y-110415011D02*
X164502500Y-109817500D01*
X164502500Y-109817500D02*
X167640000Y-109817500D01*
%TO.N,AN1*%
X132080000Y-109817500D02*
X132677500Y-109817500D01*
X132677500Y-109817500D02*
X138434278Y-115574278D01*
X138434278Y-115574278D02*
X153674278Y-115574278D01*
X153674278Y-115574278D02*
X154940000Y-116840000D01*
%TO.N,CH1*%
X134620000Y-109817500D02*
X139102500Y-114300000D01*
X154940000Y-114300000D02*
X157480000Y-116840000D01*
%TO.N,CH0*%
X127000000Y-111760000D02*
X129261800Y-111760000D01*
%TO.N,3.3V*%
X124370757Y-94773271D02*
X124370757Y-98630757D01*
X124370757Y-98630757D02*
X121169441Y-101832073D01*
X121169441Y-104758189D02*
X125033752Y-108622500D01*
X121169441Y-101832073D02*
X121169441Y-104758189D01*
%TO.N,SDA*%
X152400000Y-106680000D02*
X167490023Y-106680000D01*
X167490023Y-106680000D02*
X170180000Y-103990023D01*
X170180000Y-103990023D02*
X170180000Y-101600000D01*
D21*
%TO.N,3.3V*%
X132080000Y-108622500D02*
X134620000Y-108622500D01*
X125033752Y-108622500D02*
X132080000Y-108622500D01*
D22*
%TO.N,GND*%
X129877500Y-114560000D02*
X129877500Y-114637500D01*
X129877500Y-114637500D02*
X129877500Y-116502500D01*
X130137500Y-114300000D02*
X129877500Y-114560000D01*
X129877500Y-111760000D02*
X129877500Y-113962500D01*
X129877500Y-113962500D02*
X129877500Y-114040000D01*
%TO.N,CH0*%
X127912500Y-114300000D02*
X128942500Y-114300000D01*
%TO.N,GND*%
X129877500Y-116502500D02*
X129540000Y-116840000D01*
X129877500Y-114040000D02*
X130137500Y-114300000D01*
%TO.N,CH0*%
X125372500Y-111760000D02*
X127000000Y-111760000D01*
X125372500Y-111760000D02*
X127912500Y-114300000D01*
%TO.N,5.0V*%
X123547500Y-109577500D02*
X121920000Y-107950000D01*
D23*
X119380000Y-105410000D02*
X119380000Y-104140000D01*
D24*
X121920000Y-100330000D02*
X119380000Y-102870000D01*
X121920000Y-95738777D02*
X121920000Y-100330000D01*
D23*
X119380000Y-104140000D02*
X121920000Y-106680000D01*
D24*
X124370757Y-92233271D02*
X122803957Y-93800071D01*
D22*
X123547500Y-111760000D02*
X123547500Y-109577500D01*
X119110000Y-105680000D02*
X119380000Y-105410000D01*
D24*
X122803957Y-93800071D02*
X122803957Y-94854820D01*
D22*
X127000000Y-116840000D02*
X124460000Y-116840000D01*
X121920000Y-107950000D02*
X121920000Y-106680000D01*
D23*
X119380000Y-104140000D02*
X119380000Y-102870000D01*
D24*
X122803957Y-94854820D02*
X121920000Y-95738777D01*
D23*
X115079000Y-105680000D02*
X119110000Y-105680000D01*
D22*
%TO.N,SCL*%
X163726400Y-100226400D02*
X162560000Y-99060000D01*
X121920000Y-104140000D02*
X123086400Y-105306400D01*
X129450757Y-94773271D02*
X121920000Y-102304028D01*
X163043139Y-105306400D02*
X163726400Y-104623139D01*
X121920000Y-102304028D02*
X121920000Y-104140000D01*
X163726400Y-104623139D02*
X163726400Y-100226400D01*
X123086400Y-105306400D02*
X163043139Y-105306400D01*
D25*
%TO.N,GPIO17*%
X135304757Y-96338271D02*
X136869757Y-94773271D01*
X132077514Y-96517514D02*
X132080000Y-96520000D01*
X132080000Y-96520000D02*
X132080000Y-101600000D01*
X132077514Y-96517514D02*
X132256757Y-96338271D01*
X136869757Y-94773271D02*
X137070757Y-94773271D01*
X132256757Y-96338271D02*
X135304757Y-96338271D01*
%TO.N,GPIO22*%
X127000000Y-104140000D02*
X142240000Y-104140000D01*
X142150757Y-99858389D02*
X142150757Y-94773271D01*
X127000000Y-101600000D02*
X127000000Y-104140000D01*
X142240000Y-104140000D02*
X143408400Y-102971600D01*
X143408400Y-101116032D02*
X142150757Y-99858389D01*
X143408400Y-102971600D02*
X143408400Y-101116032D01*
D22*
%TO.N,SPI_MISO*%
X158697200Y-101412631D02*
X157994916Y-102114916D01*
X149770757Y-94773271D02*
X150937157Y-93606871D01*
X158697200Y-98555819D02*
X158697200Y-101412631D01*
X153477157Y-97615765D02*
X153704192Y-97842800D01*
X152793896Y-93606871D02*
X153477157Y-94290132D01*
X157994916Y-102114916D02*
X160020000Y-104140000D01*
X153477157Y-94290132D02*
X153477157Y-97615765D01*
X157984181Y-97842800D02*
X158697200Y-98555819D01*
X153704192Y-97842800D02*
X157984181Y-97842800D01*
X150937157Y-93606871D02*
X152793896Y-93606871D01*
%TO.N,SPI_SCLK*%
X152310757Y-98970757D02*
X157480000Y-104140000D01*
X152310757Y-94773271D02*
X152310757Y-98970757D01*
D25*
%TO.N,GPIO13*%
X162436925Y-90547071D02*
X131715286Y-90547071D01*
X130822357Y-91440000D02*
X130822357Y-95237643D01*
X165010757Y-94773271D02*
X165010757Y-93890757D01*
X163639157Y-91749303D02*
X162436925Y-90547071D01*
X130822357Y-95237643D02*
X124460000Y-101600000D01*
X163639157Y-92519157D02*
X163639157Y-91749303D01*
X165010757Y-93890757D02*
X163639157Y-92519157D01*
X131715286Y-90547071D02*
X130822357Y-91440000D01*
%TO.N,3.3V*%
X157480000Y-101600000D02*
X157480000Y-99060000D01*
D23*
%TO.N,GND*%
X119380000Y-107950000D02*
X119380000Y-111760000D01*
D25*
X146353757Y-91004271D02*
X147230757Y-91881271D01*
D23*
X115079000Y-107680000D02*
X119110000Y-107680000D01*
D25*
X147230757Y-91881271D02*
X147230757Y-92233271D01*
D23*
X119110000Y-107680000D02*
X119380000Y-107950000D01*
D25*
X139610757Y-91905271D02*
X140511757Y-91004271D01*
X140511757Y-91004271D02*
X146353757Y-91004271D01*
X139610757Y-92233271D02*
X139610757Y-91905271D01*
%TO.N,GPIO18*%
X139700000Y-101600000D02*
X137082757Y-98982757D01*
X138352757Y-95195271D02*
X138352757Y-93515271D01*
X137082757Y-98982757D02*
X137082757Y-96465271D01*
X137082757Y-96465271D02*
X138352757Y-95195271D01*
X138352757Y-93515271D02*
X137070757Y-92233271D01*
%TO.N,GPIO24*%
X141693557Y-99403243D02*
X140868400Y-100228400D01*
X137160000Y-103682800D02*
X137160000Y-101600000D01*
X140952917Y-95971111D02*
X141691111Y-95971111D01*
X143348597Y-93575431D02*
X141654595Y-93575431D01*
X137160000Y-103682800D02*
X140157200Y-103682800D01*
X140952917Y-94277109D02*
X140952917Y-95971111D01*
X140868400Y-100228400D02*
X140868400Y-102971600D01*
X141693557Y-95973557D02*
X141693557Y-99403243D01*
X141691111Y-95971111D02*
X141693557Y-95973557D01*
X140868400Y-102971600D02*
X140157200Y-103682800D01*
X141654595Y-93575431D02*
X140952917Y-94277109D01*
X144690757Y-92233271D02*
X143348597Y-93575431D01*
D22*
%TO.N,GPIO16*%
X167550757Y-92233271D02*
X166384357Y-93399671D01*
X166384357Y-102855643D02*
X166384357Y-93399671D01*
X166384357Y-102855643D02*
X165100000Y-104140000D01*
%TD*%
M02*
