%TF.GenerationSoftware,KiCad,Pcbnew,(6.0.7-1)-1*%
%TF.CreationDate,2022-08-15T15:20:02-07:00*%
%TF.ProjectId,KamiPCB,4b616d69-5043-4422-9e6b-696361645f70,rev?*%
%TF.SameCoordinates,Original*%
%TF.FileFunction,Copper,L2,Bot*%
%TF.FilePolarity,Positive*%
%FSLAX46Y46*%
G04 Gerber Fmt 4.6, Leading zero omitted, Abs format (unit mm)*
G04 Created by KiCad (PCBNEW (6.0.7-1)-1) date 2022-08-15 15:20:02*
%MOMM*%
%LPD*%
G01*
G04 APERTURE LIST*
%TA.AperFunction,ComponentPad*%
%ADD10C,1.676400*%
%TD*%
%TA.AperFunction,ComponentPad*%
%ADD11C,1.778000*%
%TD*%
%TA.AperFunction,ViaPad*%
%ADD12C,0.800000*%
%TD*%
%TA.AperFunction,ViaPad*%
%ADD13C,1.000000*%
%TD*%
%TA.AperFunction,Conductor*%
%ADD14C,0.250000*%
%TD*%
%TA.AperFunction,Conductor*%
%ADD15C,0.350000*%
%TD*%
%TA.AperFunction,Conductor*%
%ADD16C,0.406400*%
%TD*%
%TA.AperFunction,Conductor*%
%ADD17C,0.254000*%
%TD*%
G04 APERTURE END LIST*
D10*
%TO.P,,*%
%TO.N,AN2*%
X162560000Y-116840000D03*
%TD*%
%TO.P,,*%
%TO.N,CH1*%
X157480000Y-116840000D03*
%TD*%
%TO.P,,*%
%TO.N,CH0*%
X149860000Y-111760000D03*
%TD*%
%TO.P,,*%
%TO.N,GPIO16*%
X165100000Y-104140000D03*
%TD*%
%TO.P,,11*%
%TO.N,GPIO24*%
X137160000Y-101600000D03*
%TD*%
%TO.P,,13*%
%TO.N,GPIO17*%
X132080000Y-101600000D03*
%TD*%
%TO.P,,*%
%TO.N,CH1*%
X152400000Y-111760000D03*
%TD*%
%TO.P,,*%
%TO.N,3.3V*%
X149860000Y-104140000D03*
%TD*%
%TO.P,,*%
%TO.N,CH2*%
X160020000Y-116840000D03*
%TD*%
%TO.P,,*%
%TO.N,CH2*%
X154940000Y-111760000D03*
%TD*%
%TO.P,,3*%
%TO.N,N/C*%
X137160000Y-116840000D03*
%TD*%
%TO.P,,CH3*%
%TO.N,N/C*%
X157480000Y-111760000D03*
%TD*%
%TO.P,,6*%
%TO.N,GND*%
X129540000Y-116840000D03*
%TD*%
%TO.P,RPI1,1*%
%TO.N,3.3V*%
X124370757Y-94773271D03*
%TO.P,RPI1,2*%
%TO.N,5.0V*%
X124370757Y-92233271D03*
%TO.P,RPI1,3*%
%TO.N,SDA*%
X126910757Y-94773271D03*
%TO.P,RPI1,4*%
%TO.N,5.0V*%
X126910757Y-92233271D03*
%TO.P,RPI1,5*%
%TO.N,SCL*%
X129450757Y-94773271D03*
%TO.P,RPI1,6*%
%TO.N,GND*%
X129450757Y-92233271D03*
%TO.P,RPI1,7*%
%TO.N,GPIO4*%
X131990757Y-94773271D03*
%TO.P,RPI1,8*%
%TO.N,TXD*%
X131990757Y-92233271D03*
%TO.P,RPI1,9*%
%TO.N,GND*%
X134530757Y-94773271D03*
%TO.P,RPI1,10*%
%TO.N,RXD*%
X134530757Y-92233271D03*
%TO.P,RPI1,11*%
%TO.N,GPIO17*%
X137070757Y-94773271D03*
%TO.P,RPI1,12*%
%TO.N,GPIO18*%
X137070757Y-92233271D03*
%TO.P,RPI1,13*%
%TO.N,GPIO27*%
X139610757Y-94773271D03*
%TO.P,RPI1,14*%
%TO.N,GND*%
X139610757Y-92233271D03*
%TO.P,RPI1,15*%
%TO.N,GPIO22*%
X142150757Y-94773271D03*
%TO.P,RPI1,16*%
%TO.N,GPIO23*%
X142150757Y-92233271D03*
%TO.P,RPI1,17*%
%TO.N,3.3V*%
X144690757Y-94773271D03*
%TO.P,RPI1,18*%
%TO.N,GPIO24*%
X144690757Y-92233271D03*
%TO.P,RPI1,19*%
%TO.N,SPI_MOSI*%
X147230757Y-94773271D03*
%TO.P,RPI1,20*%
%TO.N,GND*%
X147230757Y-92233271D03*
%TO.P,RPI1,21*%
%TO.N,SPI_MISO*%
X149770757Y-94773271D03*
%TO.P,RPI1,22*%
%TO.N,GPIO25*%
X149770757Y-92233271D03*
%TO.P,RPI1,23*%
%TO.N,SPI_SCLK*%
X152310757Y-94773271D03*
%TO.P,RPI1,24*%
%TO.N,SPI_CE0*%
X152310757Y-92233271D03*
%TO.P,RPI1,25*%
%TO.N,GND*%
X154850757Y-94773271D03*
%TO.P,RPI1,26*%
%TO.N,SPI_CE1*%
X154850757Y-92233271D03*
%TO.P,RPI1,27*%
%TO.N,EEDATA*%
X157390757Y-94773271D03*
%TO.P,RPI1,28*%
%TO.N,EECLK*%
X157390757Y-92233271D03*
%TO.P,RPI1,29*%
%TO.N,GPIO5*%
X159930757Y-94773271D03*
%TO.P,RPI1,30*%
%TO.N,GND*%
X159930757Y-92233271D03*
%TO.P,RPI1,31*%
%TO.N,GPIO6*%
X162470757Y-94773271D03*
%TO.P,RPI1,32*%
%TO.N,GPIO12*%
X162470757Y-92233271D03*
%TO.P,RPI1,33*%
%TO.N,GPIO13*%
X165010757Y-94773271D03*
%TO.P,RPI1,34*%
%TO.N,GND*%
X165010757Y-92233271D03*
%TO.P,RPI1,35*%
%TO.N,GPIO19*%
X167550757Y-94773271D03*
%TO.P,RPI1,36*%
%TO.N,GPIO16*%
X167550757Y-92233271D03*
%TO.P,RPI1,37*%
%TO.N,GPIO26*%
X170090757Y-94773271D03*
%TO.P,RPI1,38*%
%TO.N,GPIO20*%
X170090757Y-92233271D03*
%TO.P,RPI1,39*%
%TO.N,GND*%
X172630757Y-94773271D03*
%TO.P,RPI1,40*%
%TO.N,GPIO21*%
X172630757Y-92233271D03*
%TD*%
%TO.P,,15*%
%TO.N,GPIO22*%
X127000000Y-101600000D03*
%TD*%
%TO.P,,8*%
%TO.N,5.0V*%
X124460000Y-116840000D03*
%TD*%
%TO.P,,14*%
%TO.N,GPIO27*%
X129540000Y-101600000D03*
%TD*%
%TO.P,,39*%
%TO.N,GND*%
X167640000Y-104140000D03*
%TD*%
%TO.P,,*%
%TO.N,GND*%
X154940000Y-104140000D03*
%TD*%
%TO.P,,10*%
%TO.N,GPIO18*%
X139700000Y-101600000D03*
%TD*%
%TO.P,,16*%
%TO.N,GPIO13*%
X124460000Y-101600000D03*
%TD*%
%TO.P,,CH6*%
%TO.N,N/C*%
X165100000Y-111760000D03*
%TD*%
%TO.P,,*%
%TO.N,SPI_MISO*%
X160020000Y-104140000D03*
%TD*%
%TO.P,,*%
%TO.N,AN1*%
X154940000Y-116840000D03*
%TD*%
%TO.P,,*%
%TO.N,GND*%
X152400000Y-116840000D03*
%TD*%
%TO.P,,*%
%TO.N,3.3V*%
X152400000Y-104140000D03*
%TD*%
%TO.P,,CH4*%
%TO.N,N/C*%
X160020000Y-111760000D03*
%TD*%
%TO.P,,2*%
%TO.N,N/C*%
X139700000Y-116840000D03*
%TD*%
%TO.P,,CH7*%
%TO.N,N/C*%
X167640000Y-111760000D03*
%TD*%
%TO.P,,4*%
%TO.N,N/C*%
X134620000Y-116840000D03*
%TD*%
%TO.P,,*%
%TO.N,SPI_MOSI*%
X162560000Y-104140000D03*
%TD*%
%TO.P,,9*%
%TO.N,GND*%
X142240000Y-101600000D03*
%TD*%
D11*
%TO.P,JP1,1*%
%TO.N,N/C*%
X167640000Y-99060000D03*
%TO.P,JP1,2*%
%TO.N,SDA*%
X165100000Y-99060000D03*
%TO.P,JP1,3*%
%TO.N,SCL*%
X162560000Y-99060000D03*
%TO.P,JP1,4*%
%TO.N,GND*%
X160020000Y-99060000D03*
%TO.P,JP1,5*%
%TO.N,3.3V*%
X157480000Y-99060000D03*
%TO.P,JP1,6*%
%TO.N,N/C*%
X154940000Y-99060000D03*
%TD*%
D10*
%TO.P,,1*%
%TO.N,GND*%
X142240000Y-116840000D03*
%TD*%
%TO.P,,CH5*%
%TO.N,N/C*%
X162560000Y-111760000D03*
%TD*%
%TO.P,,12*%
%TO.N,GPIO23*%
X134620000Y-101600000D03*
%TD*%
%TO.P,,7*%
%TO.N,5.0V*%
X127000000Y-116840000D03*
%TD*%
%TO.P,,4*%
%TO.N,N/C*%
X132080000Y-116840000D03*
%TD*%
%TO.P,,*%
%TO.N,GND*%
X165100000Y-116840000D03*
%TD*%
%TO.P,,*%
%TO.N,SPI_SCLK*%
X157480000Y-104140000D03*
%TD*%
D12*
%TO.N,3.3V*%
X162560000Y-109220000D03*
%TO.N,CH0*%
X127000000Y-111760000D03*
%TO.N,SDA*%
X152400000Y-106680000D03*
X170180000Y-101600000D03*
D13*
%TO.N,5.0V*%
X121920000Y-106680000D03*
D12*
%TO.N,3.3V*%
X157480000Y-101600000D03*
D13*
%TO.N,GND*%
X119380000Y-111760000D03*
%TD*%
D14*
%TO.N,CH0*%
X127000000Y-111760000D02*
X149860000Y-111760000D01*
%TO.N,3.3V*%
X156125393Y-109220000D02*
X162560000Y-109220000D01*
X151045393Y-104140000D02*
X156125393Y-109220000D01*
X149860000Y-104140000D02*
X151045393Y-104140000D01*
D15*
%TO.N,GND*%
X165100000Y-119380000D02*
X172720000Y-119380000D01*
X152400000Y-119380000D02*
X165100000Y-119380000D01*
X165100000Y-119380000D02*
X165100000Y-116840000D01*
X129540000Y-119380000D02*
X152400000Y-119380000D01*
X152400000Y-119380000D02*
X152400000Y-116840000D01*
D14*
%TO.N,SDA*%
X170180000Y-101600000D02*
X165100000Y-101600000D01*
D15*
%TO.N,GND*%
X172720000Y-96698486D02*
X172720000Y-119380000D01*
X172630757Y-96609243D02*
X172720000Y-96698486D01*
X154940000Y-104140000D02*
X157480000Y-106680000D01*
X157480000Y-106680000D02*
X170180000Y-106680000D01*
X170180000Y-106680000D02*
X172720000Y-104140000D01*
X172720000Y-104140000D02*
X167640000Y-104140000D01*
D14*
%TO.N,SDA*%
X165100000Y-101600000D02*
X165100000Y-99060000D01*
X126910757Y-94773271D02*
X123293600Y-98390428D01*
X127000000Y-106680000D02*
X152400000Y-106680000D01*
X123293600Y-98390428D02*
X123293600Y-102973600D01*
X123293600Y-102973600D02*
X127000000Y-106680000D01*
D16*
%TO.N,5.0V*%
X124460000Y-116840000D02*
X124460000Y-116205000D01*
X124460000Y-116205000D02*
X121920000Y-113665000D01*
X121920000Y-113665000D02*
X121920000Y-106680000D01*
X124370757Y-92233271D02*
X126910757Y-92233271D01*
D17*
%TO.N,GPIO27*%
X139242800Y-96330622D02*
X139242800Y-98413422D01*
X130186578Y-98413422D02*
X129540000Y-99060000D01*
X139242800Y-98413422D02*
X130186578Y-98413422D01*
X139610757Y-95962665D02*
X139242800Y-96330622D01*
X129540000Y-99060000D02*
X129540000Y-101600000D01*
X139610757Y-94773271D02*
X139610757Y-95962665D01*
D14*
%TO.N,SPI_MOSI*%
X147230757Y-94773271D02*
X152783208Y-100325722D01*
X152783208Y-100325722D02*
X158745722Y-100325722D01*
X158745722Y-100325722D02*
X162560000Y-104140000D01*
%TO.N,3.3V*%
X144690757Y-94773271D02*
X144690757Y-98970757D01*
X144690757Y-98970757D02*
X149860000Y-104140000D01*
D17*
X154940000Y-101600000D02*
X157480000Y-101600000D01*
X152400000Y-104140000D02*
X154940000Y-101600000D01*
X149860000Y-104140000D02*
X152400000Y-104140000D01*
D15*
%TO.N,GND*%
X121920000Y-114487224D02*
X121920000Y-116972866D01*
X121920000Y-116972866D02*
X124327134Y-119380000D01*
D17*
X171288597Y-93431111D02*
X166208597Y-93431111D01*
D15*
X119380000Y-114300000D02*
X121732776Y-114300000D01*
X162470757Y-96609243D02*
X160020000Y-99060000D01*
X121732776Y-114300000D02*
X121920000Y-114487224D01*
X124327134Y-119380000D02*
X129540000Y-119380000D01*
D17*
X172630757Y-94773271D02*
X171288597Y-93431111D01*
D15*
X172630757Y-96609243D02*
X162470757Y-96609243D01*
D17*
X166208597Y-93431111D02*
X165010757Y-92233271D01*
D15*
X129540000Y-119380000D02*
X129540000Y-116840000D01*
X119380000Y-111760000D02*
X119380000Y-114300000D01*
X172630757Y-96609243D02*
X172630757Y-94773271D01*
D17*
%TO.N,GPIO23*%
X139700000Y-98609758D02*
X139700000Y-96520000D01*
X139249758Y-99060000D02*
X139700000Y-98609758D01*
X134620000Y-101600000D02*
X137160000Y-99060000D01*
X137160000Y-99060000D02*
X139249758Y-99060000D01*
X140982357Y-93401671D02*
X142150757Y-92233271D01*
X139700000Y-96520000D02*
X140982357Y-95237643D01*
X140982357Y-95237643D02*
X140982357Y-93401671D01*
%TD*%
%TA.AperFunction,Conductor*%
%TO.N,GND*%
G36*
X178000757Y-90030872D02*
G01*
X178005260Y-90029007D01*
X178009685Y-90029239D01*
X178126126Y-90035339D01*
X178308408Y-90044890D01*
X178314903Y-90045571D01*
X178475966Y-90071079D01*
X178615964Y-90093251D01*
X178622362Y-90094611D01*
X178803192Y-90143061D01*
X178916788Y-90173497D01*
X178922998Y-90175515D01*
X179079355Y-90235533D01*
X179207555Y-90284743D01*
X179213532Y-90287404D01*
X179485117Y-90425778D01*
X179490782Y-90429049D01*
X179746404Y-90595048D01*
X179751697Y-90598893D01*
X179988573Y-90790706D01*
X179993435Y-90795083D01*
X180208970Y-91010613D01*
X180213347Y-91015475D01*
X180405163Y-91252343D01*
X180409004Y-91257629D01*
X180575018Y-91513263D01*
X180578289Y-91518928D01*
X180716666Y-91790500D01*
X180719327Y-91796476D01*
X180828563Y-92081038D01*
X180830584Y-92087260D01*
X180865793Y-92218653D01*
X180907252Y-92373372D01*
X180909475Y-92381669D01*
X180910834Y-92388063D01*
X180922575Y-92462190D01*
X180958518Y-92689112D01*
X180959202Y-92695618D01*
X180974807Y-92993316D01*
X180975085Y-92998614D01*
X180973156Y-93003271D01*
X180975257Y-93008343D01*
X180975257Y-96783771D01*
X180956951Y-96827965D01*
X180912757Y-96846271D01*
X149794497Y-96846271D01*
X149750303Y-96827965D01*
X148197033Y-95274695D01*
X148178727Y-95230501D01*
X148185471Y-95205012D01*
X148184432Y-95204549D01*
X148185673Y-95201761D01*
X148187185Y-95199100D01*
X148251681Y-95005219D01*
X148255229Y-94977139D01*
X148277070Y-94804244D01*
X148277290Y-94802503D01*
X148277698Y-94773271D01*
X148276265Y-94758653D01*
X148723918Y-94758653D01*
X148724993Y-94771450D01*
X148740448Y-94955496D01*
X148741016Y-94962264D01*
X148797336Y-95158676D01*
X148890733Y-95340408D01*
X148919547Y-95376762D01*
X149015753Y-95498143D01*
X149015756Y-95498146D01*
X149017651Y-95500537D01*
X149173254Y-95632966D01*
X149351615Y-95732649D01*
X149545942Y-95795789D01*
X149748832Y-95819982D01*
X149751874Y-95819748D01*
X149751877Y-95819748D01*
X149949508Y-95804542D01*
X149949513Y-95804541D01*
X149952556Y-95804307D01*
X149963388Y-95801283D01*
X150146418Y-95750180D01*
X150146422Y-95750179D01*
X150149357Y-95749359D01*
X150331736Y-95657233D01*
X150334134Y-95655360D01*
X150334138Y-95655357D01*
X150418220Y-95589664D01*
X150492748Y-95531436D01*
X150519420Y-95500537D01*
X150544954Y-95470955D01*
X150626259Y-95376762D01*
X150727185Y-95199100D01*
X150791681Y-95005219D01*
X150795229Y-94977139D01*
X150817070Y-94804244D01*
X150817290Y-94802503D01*
X150817698Y-94773271D01*
X150816265Y-94758653D01*
X151263918Y-94758653D01*
X151264993Y-94771450D01*
X151280448Y-94955496D01*
X151281016Y-94962264D01*
X151337336Y-95158676D01*
X151430733Y-95340408D01*
X151459547Y-95376762D01*
X151555753Y-95498143D01*
X151555756Y-95498146D01*
X151557651Y-95500537D01*
X151713254Y-95632966D01*
X151891615Y-95732649D01*
X152085942Y-95795789D01*
X152288832Y-95819982D01*
X152291874Y-95819748D01*
X152291877Y-95819748D01*
X152489508Y-95804542D01*
X152489513Y-95804541D01*
X152492556Y-95804307D01*
X152503388Y-95801283D01*
X152686418Y-95750180D01*
X152686422Y-95750179D01*
X152689357Y-95749359D01*
X152820902Y-95682911D01*
X154161227Y-95682911D01*
X154163198Y-95687668D01*
X154301028Y-95779763D01*
X154306050Y-95782489D01*
X154493646Y-95863087D01*
X154499085Y-95864854D01*
X154698241Y-95909919D01*
X154703889Y-95910662D01*
X154907931Y-95918680D01*
X154913626Y-95918381D01*
X155115705Y-95889081D01*
X155121254Y-95887749D01*
X155314608Y-95822114D01*
X155319821Y-95819793D01*
X155497976Y-95720021D01*
X155502684Y-95716785D01*
X155534959Y-95689943D01*
X155539390Y-95681522D01*
X155537293Y-95674768D01*
X154859547Y-94997021D01*
X154850757Y-94993380D01*
X154841967Y-94997021D01*
X154164868Y-95674121D01*
X154161227Y-95682911D01*
X152820902Y-95682911D01*
X152871736Y-95657233D01*
X152874134Y-95655360D01*
X152874138Y-95655357D01*
X152958220Y-95589664D01*
X153032748Y-95531436D01*
X153059420Y-95500537D01*
X153084954Y-95470955D01*
X153166259Y-95376762D01*
X153267185Y-95199100D01*
X153331681Y-95005219D01*
X153335229Y-94977139D01*
X153357070Y-94804244D01*
X153357290Y-94802503D01*
X153357698Y-94773271D01*
X153355035Y-94746108D01*
X153704245Y-94746108D01*
X153717599Y-94949853D01*
X153718493Y-94955496D01*
X153768754Y-95153400D01*
X153770661Y-95158784D01*
X153856146Y-95344216D01*
X153858997Y-95349155D01*
X153935019Y-95456723D01*
X153943064Y-95461799D01*
X153948497Y-95460570D01*
X154627007Y-94782061D01*
X154630648Y-94773271D01*
X155070866Y-94773271D01*
X155074507Y-94782061D01*
X155750689Y-95458242D01*
X155759479Y-95461883D01*
X155766012Y-95459177D01*
X155794271Y-95425198D01*
X155797507Y-95420490D01*
X155897279Y-95242335D01*
X155899600Y-95237122D01*
X155965235Y-95043768D01*
X155966567Y-95038219D01*
X155996015Y-94835121D01*
X155996326Y-94831476D01*
X155997802Y-94775098D01*
X155997683Y-94771450D01*
X155996507Y-94758653D01*
X156343918Y-94758653D01*
X156344993Y-94771450D01*
X156360448Y-94955496D01*
X156361016Y-94962264D01*
X156417336Y-95158676D01*
X156510733Y-95340408D01*
X156539547Y-95376762D01*
X156635753Y-95498143D01*
X156635756Y-95498146D01*
X156637651Y-95500537D01*
X156793254Y-95632966D01*
X156971615Y-95732649D01*
X157165942Y-95795789D01*
X157368832Y-95819982D01*
X157371874Y-95819748D01*
X157371877Y-95819748D01*
X157569508Y-95804542D01*
X157569513Y-95804541D01*
X157572556Y-95804307D01*
X157583388Y-95801283D01*
X157766418Y-95750180D01*
X157766422Y-95750179D01*
X157769357Y-95749359D01*
X157951736Y-95657233D01*
X157954134Y-95655360D01*
X157954138Y-95655357D01*
X158038220Y-95589664D01*
X158112748Y-95531436D01*
X158139420Y-95500537D01*
X158164954Y-95470955D01*
X158246259Y-95376762D01*
X158347185Y-95199100D01*
X158411681Y-95005219D01*
X158415229Y-94977139D01*
X158437070Y-94804244D01*
X158437290Y-94802503D01*
X158437698Y-94773271D01*
X158436265Y-94758653D01*
X158883918Y-94758653D01*
X158884993Y-94771450D01*
X158900448Y-94955496D01*
X158901016Y-94962264D01*
X158957336Y-95158676D01*
X159050733Y-95340408D01*
X159079547Y-95376762D01*
X159175753Y-95498143D01*
X159175756Y-95498146D01*
X159177651Y-95500537D01*
X159333254Y-95632966D01*
X159511615Y-95732649D01*
X159705942Y-95795789D01*
X159908832Y-95819982D01*
X159911874Y-95819748D01*
X159911877Y-95819748D01*
X160109508Y-95804542D01*
X160109513Y-95804541D01*
X160112556Y-95804307D01*
X160123388Y-95801283D01*
X160306418Y-95750180D01*
X160306422Y-95750179D01*
X160309357Y-95749359D01*
X160491736Y-95657233D01*
X160494134Y-95655360D01*
X160494138Y-95655357D01*
X160578220Y-95589664D01*
X160652748Y-95531436D01*
X160679420Y-95500537D01*
X160704954Y-95470955D01*
X160786259Y-95376762D01*
X160887185Y-95199100D01*
X160951681Y-95005219D01*
X160955229Y-94977139D01*
X160977070Y-94804244D01*
X160977290Y-94802503D01*
X160977698Y-94773271D01*
X160976265Y-94758653D01*
X161423918Y-94758653D01*
X161424993Y-94771450D01*
X161440448Y-94955496D01*
X161441016Y-94962264D01*
X161497336Y-95158676D01*
X161590733Y-95340408D01*
X161619547Y-95376762D01*
X161715753Y-95498143D01*
X161715756Y-95498146D01*
X161717651Y-95500537D01*
X161873254Y-95632966D01*
X162051615Y-95732649D01*
X162245942Y-95795789D01*
X162448832Y-95819982D01*
X162451874Y-95819748D01*
X162451877Y-95819748D01*
X162649508Y-95804542D01*
X162649513Y-95804541D01*
X162652556Y-95804307D01*
X162663388Y-95801283D01*
X162846418Y-95750180D01*
X162846422Y-95750179D01*
X162849357Y-95749359D01*
X163031736Y-95657233D01*
X163034134Y-95655360D01*
X163034138Y-95655357D01*
X163118220Y-95589664D01*
X163192748Y-95531436D01*
X163219420Y-95500537D01*
X163244954Y-95470955D01*
X163326259Y-95376762D01*
X163427185Y-95199100D01*
X163491681Y-95005219D01*
X163495229Y-94977139D01*
X163517070Y-94804244D01*
X163517290Y-94802503D01*
X163517698Y-94773271D01*
X163516265Y-94758653D01*
X163963918Y-94758653D01*
X163964993Y-94771450D01*
X163980448Y-94955496D01*
X163981016Y-94962264D01*
X164037336Y-95158676D01*
X164130733Y-95340408D01*
X164159547Y-95376762D01*
X164255753Y-95498143D01*
X164255756Y-95498146D01*
X164257651Y-95500537D01*
X164413254Y-95632966D01*
X164591615Y-95732649D01*
X164785942Y-95795789D01*
X164988832Y-95819982D01*
X164991874Y-95819748D01*
X164991877Y-95819748D01*
X165189508Y-95804542D01*
X165189513Y-95804541D01*
X165192556Y-95804307D01*
X165203388Y-95801283D01*
X165386418Y-95750180D01*
X165386422Y-95750179D01*
X165389357Y-95749359D01*
X165571736Y-95657233D01*
X165574134Y-95655360D01*
X165574138Y-95655357D01*
X165658220Y-95589664D01*
X165732748Y-95531436D01*
X165759420Y-95500537D01*
X165784954Y-95470955D01*
X165866259Y-95376762D01*
X165967185Y-95199100D01*
X166031681Y-95005219D01*
X166035229Y-94977139D01*
X166057070Y-94804244D01*
X166057290Y-94802503D01*
X166057698Y-94773271D01*
X166056265Y-94758653D01*
X166503918Y-94758653D01*
X166504993Y-94771450D01*
X166520448Y-94955496D01*
X166521016Y-94962264D01*
X166577336Y-95158676D01*
X166670733Y-95340408D01*
X166699547Y-95376762D01*
X166795753Y-95498143D01*
X166795756Y-95498146D01*
X166797651Y-95500537D01*
X166953254Y-95632966D01*
X167131615Y-95732649D01*
X167325942Y-95795789D01*
X167528832Y-95819982D01*
X167531874Y-95819748D01*
X167531877Y-95819748D01*
X167729508Y-95804542D01*
X167729513Y-95804541D01*
X167732556Y-95804307D01*
X167743388Y-95801283D01*
X167926418Y-95750180D01*
X167926422Y-95750179D01*
X167929357Y-95749359D01*
X168111736Y-95657233D01*
X168114134Y-95655360D01*
X168114138Y-95655357D01*
X168198220Y-95589664D01*
X168272748Y-95531436D01*
X168299420Y-95500537D01*
X168324954Y-95470955D01*
X168406259Y-95376762D01*
X168507185Y-95199100D01*
X168571681Y-95005219D01*
X168575229Y-94977139D01*
X168597070Y-94804244D01*
X168597290Y-94802503D01*
X168597698Y-94773271D01*
X168596265Y-94758653D01*
X169043918Y-94758653D01*
X169044993Y-94771450D01*
X169060448Y-94955496D01*
X169061016Y-94962264D01*
X169117336Y-95158676D01*
X169210733Y-95340408D01*
X169239547Y-95376762D01*
X169335753Y-95498143D01*
X169335756Y-95498146D01*
X169337651Y-95500537D01*
X169493254Y-95632966D01*
X169671615Y-95732649D01*
X169865942Y-95795789D01*
X170068832Y-95819982D01*
X170071874Y-95819748D01*
X170071877Y-95819748D01*
X170269508Y-95804542D01*
X170269513Y-95804541D01*
X170272556Y-95804307D01*
X170283388Y-95801283D01*
X170466418Y-95750180D01*
X170466422Y-95750179D01*
X170469357Y-95749359D01*
X170600902Y-95682911D01*
X171941227Y-95682911D01*
X171943198Y-95687668D01*
X172081028Y-95779763D01*
X172086050Y-95782489D01*
X172273646Y-95863087D01*
X172279085Y-95864854D01*
X172478241Y-95909919D01*
X172483889Y-95910662D01*
X172687931Y-95918680D01*
X172693626Y-95918381D01*
X172895705Y-95889081D01*
X172901254Y-95887749D01*
X173094608Y-95822114D01*
X173099821Y-95819793D01*
X173277976Y-95720021D01*
X173282684Y-95716785D01*
X173314959Y-95689943D01*
X173319390Y-95681522D01*
X173317293Y-95674768D01*
X172639547Y-94997021D01*
X172630757Y-94993380D01*
X172621967Y-94997021D01*
X171944868Y-95674121D01*
X171941227Y-95682911D01*
X170600902Y-95682911D01*
X170651736Y-95657233D01*
X170654134Y-95655360D01*
X170654138Y-95655357D01*
X170738220Y-95589664D01*
X170812748Y-95531436D01*
X170839420Y-95500537D01*
X170864954Y-95470955D01*
X170946259Y-95376762D01*
X171047185Y-95199100D01*
X171111681Y-95005219D01*
X171115229Y-94977139D01*
X171137070Y-94804244D01*
X171137290Y-94802503D01*
X171137698Y-94773271D01*
X171135035Y-94746108D01*
X171484245Y-94746108D01*
X171497599Y-94949853D01*
X171498493Y-94955496D01*
X171548754Y-95153400D01*
X171550661Y-95158784D01*
X171636146Y-95344216D01*
X171638997Y-95349155D01*
X171715019Y-95456723D01*
X171723064Y-95461799D01*
X171728497Y-95460570D01*
X172407007Y-94782061D01*
X172410648Y-94773271D01*
X172850866Y-94773271D01*
X172854507Y-94782061D01*
X173530689Y-95458242D01*
X173539479Y-95461883D01*
X173546012Y-95459177D01*
X173574271Y-95425198D01*
X173577507Y-95420490D01*
X173677279Y-95242335D01*
X173679600Y-95237122D01*
X173745235Y-95043768D01*
X173746567Y-95038219D01*
X173776015Y-94835121D01*
X173776326Y-94831476D01*
X173777802Y-94775098D01*
X173777683Y-94771450D01*
X173758904Y-94567085D01*
X173757863Y-94561467D01*
X173702439Y-94364947D01*
X173700396Y-94359625D01*
X173610083Y-94176488D01*
X173607097Y-94171616D01*
X173546253Y-94090137D01*
X173538075Y-94085272D01*
X173532234Y-94086755D01*
X172854507Y-94764481D01*
X172850866Y-94773271D01*
X172410648Y-94773271D01*
X172407007Y-94764481D01*
X171731435Y-94088910D01*
X171722645Y-94085269D01*
X171716617Y-94087766D01*
X171670500Y-94146266D01*
X171667390Y-94151055D01*
X171572312Y-94331768D01*
X171570133Y-94337028D01*
X171509579Y-94532046D01*
X171508395Y-94537617D01*
X171484394Y-94740396D01*
X171484245Y-94746108D01*
X171135035Y-94746108D01*
X171117759Y-94569919D01*
X171058702Y-94374313D01*
X171013973Y-94290190D01*
X170964211Y-94196601D01*
X170964209Y-94196598D01*
X170962776Y-94193903D01*
X170833636Y-94035561D01*
X170676199Y-93905318D01*
X170673515Y-93903867D01*
X170673511Y-93903864D01*
X170597274Y-93862643D01*
X171941506Y-93862643D01*
X171945379Y-93872933D01*
X172621967Y-94549521D01*
X172630757Y-94553162D01*
X172639547Y-94549521D01*
X173318301Y-93870766D01*
X173321942Y-93861976D01*
X173320120Y-93857578D01*
X173153947Y-93752732D01*
X173148869Y-93750144D01*
X172959206Y-93674476D01*
X172953740Y-93672857D01*
X172753467Y-93633020D01*
X172747803Y-93632425D01*
X172543619Y-93629751D01*
X172537932Y-93630199D01*
X172336691Y-93664779D01*
X172331182Y-93666255D01*
X172139606Y-93736932D01*
X172134461Y-93739386D01*
X171958978Y-93843787D01*
X171954356Y-93847145D01*
X171945182Y-93855190D01*
X171941506Y-93862643D01*
X170597274Y-93862643D01*
X170499148Y-93809587D01*
X170496463Y-93808135D01*
X170348281Y-93762265D01*
X170304189Y-93748616D01*
X170304186Y-93748615D01*
X170301274Y-93747714D01*
X170298241Y-93747395D01*
X170298240Y-93747395D01*
X170222038Y-93739386D01*
X170098066Y-93726356D01*
X170095033Y-93726632D01*
X170095029Y-93726632D01*
X169983018Y-93736826D01*
X169894580Y-93744874D01*
X169891647Y-93745737D01*
X169891643Y-93745738D01*
X169742365Y-93789673D01*
X169698566Y-93802564D01*
X169517491Y-93897228D01*
X169358251Y-94025260D01*
X169226912Y-94181784D01*
X169128477Y-94360837D01*
X169066694Y-94555600D01*
X169043918Y-94758653D01*
X168596265Y-94758653D01*
X168577759Y-94569919D01*
X168518702Y-94374313D01*
X168473973Y-94290190D01*
X168424211Y-94196601D01*
X168424209Y-94196598D01*
X168422776Y-94193903D01*
X168293636Y-94035561D01*
X168136199Y-93905318D01*
X168133515Y-93903867D01*
X168133511Y-93903864D01*
X167959148Y-93809587D01*
X167956463Y-93808135D01*
X167808281Y-93762265D01*
X167764189Y-93748616D01*
X167764186Y-93748615D01*
X167761274Y-93747714D01*
X167758241Y-93747395D01*
X167758240Y-93747395D01*
X167682038Y-93739386D01*
X167558066Y-93726356D01*
X167555033Y-93726632D01*
X167555029Y-93726632D01*
X167443018Y-93736826D01*
X167354580Y-93744874D01*
X167351647Y-93745737D01*
X167351643Y-93745738D01*
X167202365Y-93789673D01*
X167158566Y-93802564D01*
X166977491Y-93897228D01*
X166818251Y-94025260D01*
X166686912Y-94181784D01*
X166588477Y-94360837D01*
X166526694Y-94555600D01*
X166503918Y-94758653D01*
X166056265Y-94758653D01*
X166037759Y-94569919D01*
X165978702Y-94374313D01*
X165933973Y-94290190D01*
X165884211Y-94196601D01*
X165884209Y-94196598D01*
X165882776Y-94193903D01*
X165753636Y-94035561D01*
X165596199Y-93905318D01*
X165593515Y-93903867D01*
X165593511Y-93903864D01*
X165419148Y-93809587D01*
X165416463Y-93808135D01*
X165268281Y-93762265D01*
X165224189Y-93748616D01*
X165224186Y-93748615D01*
X165221274Y-93747714D01*
X165218241Y-93747395D01*
X165218240Y-93747395D01*
X165142038Y-93739386D01*
X165018066Y-93726356D01*
X165015033Y-93726632D01*
X165015029Y-93726632D01*
X164903018Y-93736826D01*
X164814580Y-93744874D01*
X164811647Y-93745737D01*
X164811643Y-93745738D01*
X164662365Y-93789673D01*
X164618566Y-93802564D01*
X164437491Y-93897228D01*
X164278251Y-94025260D01*
X164146912Y-94181784D01*
X164048477Y-94360837D01*
X163986694Y-94555600D01*
X163963918Y-94758653D01*
X163516265Y-94758653D01*
X163497759Y-94569919D01*
X163438702Y-94374313D01*
X163393973Y-94290190D01*
X163344211Y-94196601D01*
X163344209Y-94196598D01*
X163342776Y-94193903D01*
X163213636Y-94035561D01*
X163056199Y-93905318D01*
X163053515Y-93903867D01*
X163053511Y-93903864D01*
X162879148Y-93809587D01*
X162876463Y-93808135D01*
X162728281Y-93762265D01*
X162684189Y-93748616D01*
X162684186Y-93748615D01*
X162681274Y-93747714D01*
X162678241Y-93747395D01*
X162678240Y-93747395D01*
X162602038Y-93739386D01*
X162478066Y-93726356D01*
X162475033Y-93726632D01*
X162475029Y-93726632D01*
X162363018Y-93736826D01*
X162274580Y-93744874D01*
X162271647Y-93745737D01*
X162271643Y-93745738D01*
X162122365Y-93789673D01*
X162078566Y-93802564D01*
X161897491Y-93897228D01*
X161738251Y-94025260D01*
X161606912Y-94181784D01*
X161508477Y-94360837D01*
X161446694Y-94555600D01*
X161423918Y-94758653D01*
X160976265Y-94758653D01*
X160957759Y-94569919D01*
X160898702Y-94374313D01*
X160853973Y-94290190D01*
X160804211Y-94196601D01*
X160804209Y-94196598D01*
X160802776Y-94193903D01*
X160673636Y-94035561D01*
X160516199Y-93905318D01*
X160513515Y-93903867D01*
X160513511Y-93903864D01*
X160339148Y-93809587D01*
X160336463Y-93808135D01*
X160188281Y-93762265D01*
X160144189Y-93748616D01*
X160144186Y-93748615D01*
X160141274Y-93747714D01*
X160138241Y-93747395D01*
X160138240Y-93747395D01*
X160062038Y-93739386D01*
X159938066Y-93726356D01*
X159935033Y-93726632D01*
X159935029Y-93726632D01*
X159823018Y-93736826D01*
X159734580Y-93744874D01*
X159731647Y-93745737D01*
X159731643Y-93745738D01*
X159582365Y-93789673D01*
X159538566Y-93802564D01*
X159357491Y-93897228D01*
X159198251Y-94025260D01*
X159066912Y-94181784D01*
X158968477Y-94360837D01*
X158906694Y-94555600D01*
X158883918Y-94758653D01*
X158436265Y-94758653D01*
X158417759Y-94569919D01*
X158358702Y-94374313D01*
X158313973Y-94290190D01*
X158264211Y-94196601D01*
X158264209Y-94196598D01*
X158262776Y-94193903D01*
X158133636Y-94035561D01*
X157976199Y-93905318D01*
X157973515Y-93903867D01*
X157973511Y-93903864D01*
X157799148Y-93809587D01*
X157796463Y-93808135D01*
X157648281Y-93762265D01*
X157604189Y-93748616D01*
X157604186Y-93748615D01*
X157601274Y-93747714D01*
X157598241Y-93747395D01*
X157598240Y-93747395D01*
X157522038Y-93739386D01*
X157398066Y-93726356D01*
X157395033Y-93726632D01*
X157395029Y-93726632D01*
X157283018Y-93736826D01*
X157194580Y-93744874D01*
X157191647Y-93745737D01*
X157191643Y-93745738D01*
X157042365Y-93789673D01*
X156998566Y-93802564D01*
X156817491Y-93897228D01*
X156658251Y-94025260D01*
X156526912Y-94181784D01*
X156428477Y-94360837D01*
X156366694Y-94555600D01*
X156343918Y-94758653D01*
X155996507Y-94758653D01*
X155978904Y-94567085D01*
X155977863Y-94561467D01*
X155922439Y-94364947D01*
X155920396Y-94359625D01*
X155830083Y-94176488D01*
X155827097Y-94171616D01*
X155766253Y-94090137D01*
X155758075Y-94085272D01*
X155752234Y-94086755D01*
X155074507Y-94764481D01*
X155070866Y-94773271D01*
X154630648Y-94773271D01*
X154627007Y-94764481D01*
X153951435Y-94088910D01*
X153942645Y-94085269D01*
X153936617Y-94087766D01*
X153890500Y-94146266D01*
X153887390Y-94151055D01*
X153792312Y-94331768D01*
X153790133Y-94337028D01*
X153729579Y-94532046D01*
X153728395Y-94537617D01*
X153704394Y-94740396D01*
X153704245Y-94746108D01*
X153355035Y-94746108D01*
X153337759Y-94569919D01*
X153278702Y-94374313D01*
X153233973Y-94290190D01*
X153184211Y-94196601D01*
X153184209Y-94196598D01*
X153182776Y-94193903D01*
X153053636Y-94035561D01*
X152896199Y-93905318D01*
X152893515Y-93903867D01*
X152893511Y-93903864D01*
X152817274Y-93862643D01*
X154161506Y-93862643D01*
X154165379Y-93872933D01*
X154841967Y-94549521D01*
X154850757Y-94553162D01*
X154859547Y-94549521D01*
X155538301Y-93870766D01*
X155541942Y-93861976D01*
X155540120Y-93857578D01*
X155373947Y-93752732D01*
X155368869Y-93750144D01*
X155179206Y-93674476D01*
X155173740Y-93672857D01*
X154973467Y-93633020D01*
X154967803Y-93632425D01*
X154763619Y-93629751D01*
X154757932Y-93630199D01*
X154556691Y-93664779D01*
X154551182Y-93666255D01*
X154359606Y-93736932D01*
X154354461Y-93739386D01*
X154178978Y-93843787D01*
X154174356Y-93847145D01*
X154165182Y-93855190D01*
X154161506Y-93862643D01*
X152817274Y-93862643D01*
X152719148Y-93809587D01*
X152716463Y-93808135D01*
X152568281Y-93762265D01*
X152524189Y-93748616D01*
X152524186Y-93748615D01*
X152521274Y-93747714D01*
X152518241Y-93747395D01*
X152518240Y-93747395D01*
X152442038Y-93739386D01*
X152318066Y-93726356D01*
X152315033Y-93726632D01*
X152315029Y-93726632D01*
X152203018Y-93736826D01*
X152114580Y-93744874D01*
X152111647Y-93745737D01*
X152111643Y-93745738D01*
X151962365Y-93789673D01*
X151918566Y-93802564D01*
X151737491Y-93897228D01*
X151578251Y-94025260D01*
X151446912Y-94181784D01*
X151348477Y-94360837D01*
X151286694Y-94555600D01*
X151263918Y-94758653D01*
X150816265Y-94758653D01*
X150797759Y-94569919D01*
X150738702Y-94374313D01*
X150693973Y-94290190D01*
X150644211Y-94196601D01*
X150644209Y-94196598D01*
X150642776Y-94193903D01*
X150513636Y-94035561D01*
X150356199Y-93905318D01*
X150353515Y-93903867D01*
X150353511Y-93903864D01*
X150179148Y-93809587D01*
X150176463Y-93808135D01*
X150028281Y-93762265D01*
X149984189Y-93748616D01*
X149984186Y-93748615D01*
X149981274Y-93747714D01*
X149978241Y-93747395D01*
X149978240Y-93747395D01*
X149902038Y-93739386D01*
X149778066Y-93726356D01*
X149775033Y-93726632D01*
X149775029Y-93726632D01*
X149663018Y-93736826D01*
X149574580Y-93744874D01*
X149571647Y-93745737D01*
X149571643Y-93745738D01*
X149422365Y-93789673D01*
X149378566Y-93802564D01*
X149197491Y-93897228D01*
X149038251Y-94025260D01*
X148906912Y-94181784D01*
X148808477Y-94360837D01*
X148746694Y-94555600D01*
X148723918Y-94758653D01*
X148276265Y-94758653D01*
X148257759Y-94569919D01*
X148198702Y-94374313D01*
X148153973Y-94290190D01*
X148104211Y-94196601D01*
X148104209Y-94196598D01*
X148102776Y-94193903D01*
X147973636Y-94035561D01*
X147816199Y-93905318D01*
X147813515Y-93903867D01*
X147813511Y-93903864D01*
X147639148Y-93809587D01*
X147636463Y-93808135D01*
X147488281Y-93762265D01*
X147444189Y-93748616D01*
X147444186Y-93748615D01*
X147441274Y-93747714D01*
X147438241Y-93747395D01*
X147438240Y-93747395D01*
X147362038Y-93739386D01*
X147238066Y-93726356D01*
X147235033Y-93726632D01*
X147235029Y-93726632D01*
X147123018Y-93736826D01*
X147034580Y-93744874D01*
X147031647Y-93745737D01*
X147031643Y-93745738D01*
X146882365Y-93789673D01*
X146838566Y-93802564D01*
X146657491Y-93897228D01*
X146498251Y-94025260D01*
X146366912Y-94181784D01*
X146268477Y-94360837D01*
X146206694Y-94555600D01*
X146183918Y-94758653D01*
X146184993Y-94771450D01*
X146200448Y-94955496D01*
X146201016Y-94962264D01*
X146257336Y-95158676D01*
X146350733Y-95340408D01*
X146379547Y-95376762D01*
X146475753Y-95498143D01*
X146475756Y-95498146D01*
X146477651Y-95500537D01*
X146633254Y-95632966D01*
X146811615Y-95732649D01*
X147005942Y-95795789D01*
X147208832Y-95819982D01*
X147211874Y-95819748D01*
X147211877Y-95819748D01*
X147409508Y-95804542D01*
X147409513Y-95804541D01*
X147412556Y-95804307D01*
X147423388Y-95801283D01*
X147606418Y-95750180D01*
X147606422Y-95750179D01*
X147609357Y-95749359D01*
X147629771Y-95739047D01*
X147657097Y-95725244D01*
X147704798Y-95721658D01*
X147729471Y-95736837D01*
X148732211Y-96739577D01*
X148750517Y-96783771D01*
X148732211Y-96827965D01*
X148688017Y-96846271D01*
X145081957Y-96846271D01*
X145037763Y-96827965D01*
X145019457Y-96783771D01*
X145019457Y-95810732D01*
X145037763Y-95766538D01*
X145063619Y-95751427D01*
X145063564Y-95751286D01*
X145064446Y-95750944D01*
X145065144Y-95750536D01*
X145066408Y-95750183D01*
X145066416Y-95750180D01*
X145069357Y-95749359D01*
X145072081Y-95747983D01*
X145072084Y-95747982D01*
X145249016Y-95658607D01*
X145251736Y-95657233D01*
X145254134Y-95655360D01*
X145254138Y-95655357D01*
X145338220Y-95589664D01*
X145412748Y-95531436D01*
X145439420Y-95500537D01*
X145464954Y-95470955D01*
X145546259Y-95376762D01*
X145647185Y-95199100D01*
X145711681Y-95005219D01*
X145715229Y-94977139D01*
X145737070Y-94804244D01*
X145737290Y-94802503D01*
X145737698Y-94773271D01*
X145717759Y-94569919D01*
X145658702Y-94374313D01*
X145613973Y-94290190D01*
X145564211Y-94196601D01*
X145564209Y-94196598D01*
X145562776Y-94193903D01*
X145433636Y-94035561D01*
X145276199Y-93905318D01*
X145273515Y-93903867D01*
X145273511Y-93903864D01*
X145099148Y-93809587D01*
X145096463Y-93808135D01*
X144948281Y-93762265D01*
X144904189Y-93748616D01*
X144904186Y-93748615D01*
X144901274Y-93747714D01*
X144898241Y-93747395D01*
X144898240Y-93747395D01*
X144822038Y-93739386D01*
X144698066Y-93726356D01*
X144695033Y-93726632D01*
X144695029Y-93726632D01*
X144583018Y-93736826D01*
X144494580Y-93744874D01*
X144491647Y-93745737D01*
X144491643Y-93745738D01*
X144342365Y-93789673D01*
X144298566Y-93802564D01*
X144117491Y-93897228D01*
X143958251Y-94025260D01*
X143826912Y-94181784D01*
X143728477Y-94360837D01*
X143666694Y-94555600D01*
X143643918Y-94758653D01*
X143644993Y-94771450D01*
X143660448Y-94955496D01*
X143661016Y-94962264D01*
X143717336Y-95158676D01*
X143810733Y-95340408D01*
X143839547Y-95376762D01*
X143935753Y-95498143D01*
X143935756Y-95498146D01*
X143937651Y-95500537D01*
X144093254Y-95632966D01*
X144271615Y-95732649D01*
X144284505Y-95736837D01*
X144318870Y-95748003D01*
X144355245Y-95779070D01*
X144362057Y-95807444D01*
X144362057Y-96783771D01*
X144343751Y-96827965D01*
X144299557Y-96846271D01*
X140093200Y-96846271D01*
X140049006Y-96827965D01*
X140030700Y-96783771D01*
X140030700Y-96682868D01*
X140049006Y-96638674D01*
X141204058Y-95483623D01*
X141208078Y-95479939D01*
X141235408Y-95457006D01*
X141239596Y-95453492D01*
X141244508Y-95444983D01*
X141282458Y-95415862D01*
X141329885Y-95422105D01*
X141347616Y-95437410D01*
X141397651Y-95500537D01*
X141553254Y-95632966D01*
X141731615Y-95732649D01*
X141925942Y-95795789D01*
X142128832Y-95819982D01*
X142131874Y-95819748D01*
X142131877Y-95819748D01*
X142329508Y-95804542D01*
X142329513Y-95804541D01*
X142332556Y-95804307D01*
X142343388Y-95801283D01*
X142526418Y-95750180D01*
X142526422Y-95750179D01*
X142529357Y-95749359D01*
X142711736Y-95657233D01*
X142714134Y-95655360D01*
X142714138Y-95655357D01*
X142798220Y-95589664D01*
X142872748Y-95531436D01*
X142899420Y-95500537D01*
X142924954Y-95470955D01*
X143006259Y-95376762D01*
X143107185Y-95199100D01*
X143171681Y-95005219D01*
X143175229Y-94977139D01*
X143197070Y-94804244D01*
X143197290Y-94802503D01*
X143197698Y-94773271D01*
X143177759Y-94569919D01*
X143118702Y-94374313D01*
X143073973Y-94290190D01*
X143024211Y-94196601D01*
X143024209Y-94196598D01*
X143022776Y-94193903D01*
X142893636Y-94035561D01*
X142736199Y-93905318D01*
X142733515Y-93903867D01*
X142733511Y-93903864D01*
X142559148Y-93809587D01*
X142556463Y-93808135D01*
X142408281Y-93762265D01*
X142364189Y-93748616D01*
X142364186Y-93748615D01*
X142361274Y-93747714D01*
X142358241Y-93747395D01*
X142358240Y-93747395D01*
X142282038Y-93739386D01*
X142158066Y-93726356D01*
X142155033Y-93726632D01*
X142155029Y-93726632D01*
X142043018Y-93736826D01*
X141954580Y-93744874D01*
X141951647Y-93745737D01*
X141951643Y-93745738D01*
X141802365Y-93789673D01*
X141758566Y-93802564D01*
X141577491Y-93897228D01*
X141575113Y-93899140D01*
X141420627Y-94023349D01*
X141420623Y-94023353D01*
X141418251Y-94025260D01*
X141418141Y-94025123D01*
X141374904Y-94042506D01*
X141330904Y-94023739D01*
X141313057Y-93980009D01*
X141313057Y-93564539D01*
X141331363Y-93520345D01*
X141348437Y-93503271D01*
X175845153Y-93503271D01*
X175865536Y-93762265D01*
X175926184Y-94014881D01*
X175927126Y-94017155D01*
X176024660Y-94252624D01*
X176024664Y-94252631D01*
X176025603Y-94254899D01*
X176026888Y-94256995D01*
X176026889Y-94256998D01*
X176100574Y-94377241D01*
X176161345Y-94476411D01*
X176162938Y-94478276D01*
X176162940Y-94478279D01*
X176228979Y-94555600D01*
X176330068Y-94673960D01*
X176331932Y-94675552D01*
X176482611Y-94804244D01*
X176527617Y-94842683D01*
X176529710Y-94843966D01*
X176529712Y-94843967D01*
X176727548Y-94965200D01*
X176749129Y-94978425D01*
X176751397Y-94979364D01*
X176751404Y-94979368D01*
X176893484Y-95038219D01*
X176989147Y-95077844D01*
X177241763Y-95138492D01*
X177299732Y-95143054D01*
X177434665Y-95153674D01*
X177434678Y-95153675D01*
X177435904Y-95153771D01*
X177565610Y-95153771D01*
X177566836Y-95153675D01*
X177566849Y-95153674D01*
X177701782Y-95143054D01*
X177759751Y-95138492D01*
X178012367Y-95077844D01*
X178108030Y-95038219D01*
X178250110Y-94979368D01*
X178250117Y-94979364D01*
X178252385Y-94978425D01*
X178273967Y-94965200D01*
X178471802Y-94843967D01*
X178471804Y-94843966D01*
X178473897Y-94842683D01*
X178518904Y-94804244D01*
X178669582Y-94675552D01*
X178671446Y-94673960D01*
X178772535Y-94555600D01*
X178838574Y-94478279D01*
X178838576Y-94478276D01*
X178840169Y-94476411D01*
X178900940Y-94377241D01*
X178974625Y-94256998D01*
X178974626Y-94256995D01*
X178975911Y-94254899D01*
X178976850Y-94252631D01*
X178976854Y-94252624D01*
X179074388Y-94017155D01*
X179075330Y-94014881D01*
X179135978Y-93762265D01*
X179156361Y-93503271D01*
X179135978Y-93244277D01*
X179075330Y-92991661D01*
X179044290Y-92916723D01*
X178976854Y-92753918D01*
X178976850Y-92753911D01*
X178975911Y-92751643D01*
X178941582Y-92695622D01*
X178841453Y-92532226D01*
X178841452Y-92532224D01*
X178840169Y-92530131D01*
X178787202Y-92468114D01*
X178673038Y-92334446D01*
X178671446Y-92332582D01*
X178541620Y-92221700D01*
X178475765Y-92165454D01*
X178475762Y-92165452D01*
X178473897Y-92163859D01*
X178343745Y-92084102D01*
X178254484Y-92029403D01*
X178254481Y-92029402D01*
X178252385Y-92028117D01*
X178250117Y-92027178D01*
X178250110Y-92027174D01*
X178014641Y-91929640D01*
X178014642Y-91929640D01*
X178012367Y-91928698D01*
X177759751Y-91868050D01*
X177701782Y-91863488D01*
X177566849Y-91852868D01*
X177566836Y-91852867D01*
X177565610Y-91852771D01*
X177435904Y-91852771D01*
X177434678Y-91852867D01*
X177434665Y-91852868D01*
X177299732Y-91863488D01*
X177241763Y-91868050D01*
X176989147Y-91928698D01*
X176986872Y-91929640D01*
X176986873Y-91929640D01*
X176751404Y-92027174D01*
X176751397Y-92027178D01*
X176749129Y-92028117D01*
X176747033Y-92029402D01*
X176747030Y-92029403D01*
X176657769Y-92084102D01*
X176527617Y-92163859D01*
X176525752Y-92165452D01*
X176525749Y-92165454D01*
X176459894Y-92221700D01*
X176330068Y-92332582D01*
X176328476Y-92334446D01*
X176214313Y-92468114D01*
X176161345Y-92530131D01*
X176160062Y-92532224D01*
X176160061Y-92532226D01*
X176059933Y-92695622D01*
X176025603Y-92751643D01*
X176024664Y-92753911D01*
X176024660Y-92753918D01*
X175957224Y-92916723D01*
X175926184Y-92991661D01*
X175865536Y-93244277D01*
X175845153Y-93503271D01*
X141348437Y-93503271D01*
X141651647Y-93200061D01*
X141695841Y-93181755D01*
X141726328Y-93189695D01*
X141728943Y-93191156D01*
X141728945Y-93191157D01*
X141731615Y-93192649D01*
X141925942Y-93255789D01*
X142128832Y-93279982D01*
X142131874Y-93279748D01*
X142131877Y-93279748D01*
X142329508Y-93264542D01*
X142329513Y-93264541D01*
X142332556Y-93264307D01*
X142348859Y-93259755D01*
X142526418Y-93210180D01*
X142526422Y-93210179D01*
X142529357Y-93209359D01*
X142711736Y-93117233D01*
X142714134Y-93115360D01*
X142714138Y-93115357D01*
X142798220Y-93049664D01*
X142872748Y-92991436D01*
X142899420Y-92960537D01*
X142924954Y-92930955D01*
X143006259Y-92836762D01*
X143098662Y-92674103D01*
X143105673Y-92661762D01*
X143105674Y-92661760D01*
X143107185Y-92659100D01*
X143171681Y-92465219D01*
X143177108Y-92422264D01*
X143197070Y-92264244D01*
X143197290Y-92262503D01*
X143197698Y-92233271D01*
X143196265Y-92218653D01*
X143643918Y-92218653D01*
X143644993Y-92231450D01*
X143660448Y-92415496D01*
X143661016Y-92422264D01*
X143717336Y-92618676D01*
X143752235Y-92686582D01*
X143786841Y-92753918D01*
X143810733Y-92800408D01*
X143839547Y-92836762D01*
X143935753Y-92958143D01*
X143935756Y-92958146D01*
X143937651Y-92960537D01*
X143939975Y-92962515D01*
X143939977Y-92962517D01*
X144001359Y-93014757D01*
X144093254Y-93092966D01*
X144095924Y-93094458D01*
X144268944Y-93191156D01*
X144271615Y-93192649D01*
X144465942Y-93255789D01*
X144668832Y-93279982D01*
X144671874Y-93279748D01*
X144671877Y-93279748D01*
X144869508Y-93264542D01*
X144869513Y-93264541D01*
X144872556Y-93264307D01*
X144888859Y-93259755D01*
X145066418Y-93210180D01*
X145066422Y-93210179D01*
X145069357Y-93209359D01*
X145200902Y-93142911D01*
X146541227Y-93142911D01*
X146543198Y-93147668D01*
X146681028Y-93239763D01*
X146686050Y-93242489D01*
X146873646Y-93323087D01*
X146879085Y-93324854D01*
X147078241Y-93369919D01*
X147083889Y-93370662D01*
X147287931Y-93378680D01*
X147293626Y-93378381D01*
X147495705Y-93349081D01*
X147501254Y-93347749D01*
X147694608Y-93282114D01*
X147699821Y-93279793D01*
X147877976Y-93180021D01*
X147882684Y-93176785D01*
X147914959Y-93149943D01*
X147919390Y-93141522D01*
X147917293Y-93134768D01*
X147239547Y-92457021D01*
X147230757Y-92453380D01*
X147221967Y-92457021D01*
X146544868Y-93134121D01*
X146541227Y-93142911D01*
X145200902Y-93142911D01*
X145251736Y-93117233D01*
X145254134Y-93115360D01*
X145254138Y-93115357D01*
X145338220Y-93049664D01*
X145412748Y-92991436D01*
X145439420Y-92960537D01*
X145464954Y-92930955D01*
X145546259Y-92836762D01*
X145638662Y-92674103D01*
X145645673Y-92661762D01*
X145645674Y-92661760D01*
X145647185Y-92659100D01*
X145711681Y-92465219D01*
X145717108Y-92422264D01*
X145737070Y-92264244D01*
X145737290Y-92262503D01*
X145737698Y-92233271D01*
X145735035Y-92206108D01*
X146084245Y-92206108D01*
X146097599Y-92409853D01*
X146098493Y-92415496D01*
X146148754Y-92613400D01*
X146150661Y-92618784D01*
X146236146Y-92804216D01*
X146238997Y-92809155D01*
X146315019Y-92916723D01*
X146323064Y-92921799D01*
X146328497Y-92920570D01*
X147007007Y-92242061D01*
X147010648Y-92233271D01*
X147450866Y-92233271D01*
X147454507Y-92242061D01*
X148130689Y-92918242D01*
X148139479Y-92921883D01*
X148146012Y-92919177D01*
X148174271Y-92885198D01*
X148177507Y-92880490D01*
X148277279Y-92702335D01*
X148279600Y-92697122D01*
X148345235Y-92503768D01*
X148346567Y-92498219D01*
X148376015Y-92295121D01*
X148376326Y-92291476D01*
X148377802Y-92235098D01*
X148377683Y-92231450D01*
X148376507Y-92218653D01*
X148723918Y-92218653D01*
X148724993Y-92231450D01*
X148740448Y-92415496D01*
X148741016Y-92422264D01*
X148797336Y-92618676D01*
X148832235Y-92686582D01*
X148866841Y-92753918D01*
X148890733Y-92800408D01*
X148919547Y-92836762D01*
X149015753Y-92958143D01*
X149015756Y-92958146D01*
X149017651Y-92960537D01*
X149019975Y-92962515D01*
X149019977Y-92962517D01*
X149081359Y-93014757D01*
X149173254Y-93092966D01*
X149175924Y-93094458D01*
X149348944Y-93191156D01*
X149351615Y-93192649D01*
X149545942Y-93255789D01*
X149748832Y-93279982D01*
X149751874Y-93279748D01*
X149751877Y-93279748D01*
X149949508Y-93264542D01*
X149949513Y-93264541D01*
X149952556Y-93264307D01*
X149968859Y-93259755D01*
X150146418Y-93210180D01*
X150146422Y-93210179D01*
X150149357Y-93209359D01*
X150331736Y-93117233D01*
X150334134Y-93115360D01*
X150334138Y-93115357D01*
X150418220Y-93049664D01*
X150492748Y-92991436D01*
X150519420Y-92960537D01*
X150544954Y-92930955D01*
X150626259Y-92836762D01*
X150718662Y-92674103D01*
X150725673Y-92661762D01*
X150725674Y-92661760D01*
X150727185Y-92659100D01*
X150791681Y-92465219D01*
X150797108Y-92422264D01*
X150817070Y-92264244D01*
X150817290Y-92262503D01*
X150817698Y-92233271D01*
X150816265Y-92218653D01*
X151263918Y-92218653D01*
X151264993Y-92231450D01*
X151280448Y-92415496D01*
X151281016Y-92422264D01*
X151337336Y-92618676D01*
X151372235Y-92686582D01*
X151406841Y-92753918D01*
X151430733Y-92800408D01*
X151459547Y-92836762D01*
X151555753Y-92958143D01*
X151555756Y-92958146D01*
X151557651Y-92960537D01*
X151559975Y-92962515D01*
X151559977Y-92962517D01*
X151621359Y-93014757D01*
X151713254Y-93092966D01*
X151715924Y-93094458D01*
X151888944Y-93191156D01*
X151891615Y-93192649D01*
X152085942Y-93255789D01*
X152288832Y-93279982D01*
X152291874Y-93279748D01*
X152291877Y-93279748D01*
X152489508Y-93264542D01*
X152489513Y-93264541D01*
X152492556Y-93264307D01*
X152508859Y-93259755D01*
X152686418Y-93210180D01*
X152686422Y-93210179D01*
X152689357Y-93209359D01*
X152871736Y-93117233D01*
X152874134Y-93115360D01*
X152874138Y-93115357D01*
X152958220Y-93049664D01*
X153032748Y-92991436D01*
X153059420Y-92960537D01*
X153084954Y-92930955D01*
X153166259Y-92836762D01*
X153258662Y-92674103D01*
X153265673Y-92661762D01*
X153265674Y-92661760D01*
X153267185Y-92659100D01*
X153331681Y-92465219D01*
X153337108Y-92422264D01*
X153357070Y-92264244D01*
X153357290Y-92262503D01*
X153357698Y-92233271D01*
X153356265Y-92218653D01*
X153803918Y-92218653D01*
X153804993Y-92231450D01*
X153820448Y-92415496D01*
X153821016Y-92422264D01*
X153877336Y-92618676D01*
X153912235Y-92686582D01*
X153946841Y-92753918D01*
X153970733Y-92800408D01*
X153999547Y-92836762D01*
X154095753Y-92958143D01*
X154095756Y-92958146D01*
X154097651Y-92960537D01*
X154099975Y-92962515D01*
X154099977Y-92962517D01*
X154161359Y-93014757D01*
X154253254Y-93092966D01*
X154255924Y-93094458D01*
X154428944Y-93191156D01*
X154431615Y-93192649D01*
X154625942Y-93255789D01*
X154828832Y-93279982D01*
X154831874Y-93279748D01*
X154831877Y-93279748D01*
X155029508Y-93264542D01*
X155029513Y-93264541D01*
X155032556Y-93264307D01*
X155048859Y-93259755D01*
X155226418Y-93210180D01*
X155226422Y-93210179D01*
X155229357Y-93209359D01*
X155411736Y-93117233D01*
X155414134Y-93115360D01*
X155414138Y-93115357D01*
X155498220Y-93049664D01*
X155572748Y-92991436D01*
X155599420Y-92960537D01*
X155624954Y-92930955D01*
X155706259Y-92836762D01*
X155798662Y-92674103D01*
X155805673Y-92661762D01*
X155805674Y-92661760D01*
X155807185Y-92659100D01*
X155871681Y-92465219D01*
X155877108Y-92422264D01*
X155897070Y-92264244D01*
X155897290Y-92262503D01*
X155897698Y-92233271D01*
X155896265Y-92218653D01*
X156343918Y-92218653D01*
X156344993Y-92231450D01*
X156360448Y-92415496D01*
X156361016Y-92422264D01*
X156417336Y-92618676D01*
X156452235Y-92686582D01*
X156486841Y-92753918D01*
X156510733Y-92800408D01*
X156539547Y-92836762D01*
X156635753Y-92958143D01*
X156635756Y-92958146D01*
X156637651Y-92960537D01*
X156639975Y-92962515D01*
X156639977Y-92962517D01*
X156701359Y-93014757D01*
X156793254Y-93092966D01*
X156795924Y-93094458D01*
X156968944Y-93191156D01*
X156971615Y-93192649D01*
X157165942Y-93255789D01*
X157368832Y-93279982D01*
X157371874Y-93279748D01*
X157371877Y-93279748D01*
X157569508Y-93264542D01*
X157569513Y-93264541D01*
X157572556Y-93264307D01*
X157588859Y-93259755D01*
X157766418Y-93210180D01*
X157766422Y-93210179D01*
X157769357Y-93209359D01*
X157900902Y-93142911D01*
X159241227Y-93142911D01*
X159243198Y-93147668D01*
X159381028Y-93239763D01*
X159386050Y-93242489D01*
X159573646Y-93323087D01*
X159579085Y-93324854D01*
X159778241Y-93369919D01*
X159783889Y-93370662D01*
X159987931Y-93378680D01*
X159993626Y-93378381D01*
X160195705Y-93349081D01*
X160201254Y-93347749D01*
X160394608Y-93282114D01*
X160399821Y-93279793D01*
X160577976Y-93180021D01*
X160582684Y-93176785D01*
X160614959Y-93149943D01*
X160619390Y-93141522D01*
X160617293Y-93134768D01*
X159939547Y-92457021D01*
X159930757Y-92453380D01*
X159921967Y-92457021D01*
X159244868Y-93134121D01*
X159241227Y-93142911D01*
X157900902Y-93142911D01*
X157951736Y-93117233D01*
X157954134Y-93115360D01*
X157954138Y-93115357D01*
X158038220Y-93049664D01*
X158112748Y-92991436D01*
X158139420Y-92960537D01*
X158164954Y-92930955D01*
X158246259Y-92836762D01*
X158338662Y-92674103D01*
X158345673Y-92661762D01*
X158345674Y-92661760D01*
X158347185Y-92659100D01*
X158411681Y-92465219D01*
X158417108Y-92422264D01*
X158437070Y-92264244D01*
X158437290Y-92262503D01*
X158437698Y-92233271D01*
X158435035Y-92206108D01*
X158784245Y-92206108D01*
X158797599Y-92409853D01*
X158798493Y-92415496D01*
X158848754Y-92613400D01*
X158850661Y-92618784D01*
X158936146Y-92804216D01*
X158938997Y-92809155D01*
X159015019Y-92916723D01*
X159023064Y-92921799D01*
X159028497Y-92920570D01*
X159707007Y-92242061D01*
X159710648Y-92233271D01*
X160150866Y-92233271D01*
X160154507Y-92242061D01*
X160830689Y-92918242D01*
X160839479Y-92921883D01*
X160846012Y-92919177D01*
X160874271Y-92885198D01*
X160877507Y-92880490D01*
X160977279Y-92702335D01*
X160979600Y-92697122D01*
X161045235Y-92503768D01*
X161046567Y-92498219D01*
X161076015Y-92295121D01*
X161076326Y-92291476D01*
X161077802Y-92235098D01*
X161077683Y-92231450D01*
X161076507Y-92218653D01*
X161423918Y-92218653D01*
X161424993Y-92231450D01*
X161440448Y-92415496D01*
X161441016Y-92422264D01*
X161497336Y-92618676D01*
X161532235Y-92686582D01*
X161566841Y-92753918D01*
X161590733Y-92800408D01*
X161619547Y-92836762D01*
X161715753Y-92958143D01*
X161715756Y-92958146D01*
X161717651Y-92960537D01*
X161719975Y-92962515D01*
X161719977Y-92962517D01*
X161781359Y-93014757D01*
X161873254Y-93092966D01*
X161875924Y-93094458D01*
X162048944Y-93191156D01*
X162051615Y-93192649D01*
X162245942Y-93255789D01*
X162448832Y-93279982D01*
X162451874Y-93279748D01*
X162451877Y-93279748D01*
X162649508Y-93264542D01*
X162649513Y-93264541D01*
X162652556Y-93264307D01*
X162668859Y-93259755D01*
X162846418Y-93210180D01*
X162846422Y-93210179D01*
X162849357Y-93209359D01*
X162980902Y-93142911D01*
X164321227Y-93142911D01*
X164323198Y-93147668D01*
X164461028Y-93239763D01*
X164466050Y-93242489D01*
X164653646Y-93323087D01*
X164659085Y-93324854D01*
X164858241Y-93369919D01*
X164863889Y-93370662D01*
X165067931Y-93378680D01*
X165073626Y-93378381D01*
X165275705Y-93349081D01*
X165281254Y-93347749D01*
X165474608Y-93282114D01*
X165479821Y-93279793D01*
X165657976Y-93180021D01*
X165662684Y-93176785D01*
X165694959Y-93149943D01*
X165699390Y-93141522D01*
X165697293Y-93134768D01*
X165019547Y-92457021D01*
X165010757Y-92453380D01*
X165001967Y-92457021D01*
X164324868Y-93134121D01*
X164321227Y-93142911D01*
X162980902Y-93142911D01*
X163031736Y-93117233D01*
X163034134Y-93115360D01*
X163034138Y-93115357D01*
X163118220Y-93049664D01*
X163192748Y-92991436D01*
X163219420Y-92960537D01*
X163244954Y-92930955D01*
X163326259Y-92836762D01*
X163418662Y-92674103D01*
X163425673Y-92661762D01*
X163425674Y-92661760D01*
X163427185Y-92659100D01*
X163491681Y-92465219D01*
X163497108Y-92422264D01*
X163517070Y-92264244D01*
X163517290Y-92262503D01*
X163517698Y-92233271D01*
X163515035Y-92206108D01*
X163864245Y-92206108D01*
X163877599Y-92409853D01*
X163878493Y-92415496D01*
X163928754Y-92613400D01*
X163930661Y-92618784D01*
X164016146Y-92804216D01*
X164018997Y-92809155D01*
X164095019Y-92916723D01*
X164103064Y-92921799D01*
X164108497Y-92920570D01*
X164787007Y-92242061D01*
X164790648Y-92233271D01*
X165230866Y-92233271D01*
X165234507Y-92242061D01*
X165910689Y-92918242D01*
X165919479Y-92921883D01*
X165926012Y-92919177D01*
X165954271Y-92885198D01*
X165957507Y-92880490D01*
X166057279Y-92702335D01*
X166059600Y-92697122D01*
X166125235Y-92503768D01*
X166126567Y-92498219D01*
X166156015Y-92295121D01*
X166156326Y-92291476D01*
X166157802Y-92235098D01*
X166157683Y-92231450D01*
X166156507Y-92218653D01*
X166503918Y-92218653D01*
X166504993Y-92231450D01*
X166520448Y-92415496D01*
X166521016Y-92422264D01*
X166577336Y-92618676D01*
X166612235Y-92686582D01*
X166646841Y-92753918D01*
X166670733Y-92800408D01*
X166699547Y-92836762D01*
X166795753Y-92958143D01*
X166795756Y-92958146D01*
X166797651Y-92960537D01*
X166799975Y-92962515D01*
X166799977Y-92962517D01*
X166861359Y-93014757D01*
X166953254Y-93092966D01*
X166955924Y-93094458D01*
X167128944Y-93191156D01*
X167131615Y-93192649D01*
X167325942Y-93255789D01*
X167528832Y-93279982D01*
X167531874Y-93279748D01*
X167531877Y-93279748D01*
X167729508Y-93264542D01*
X167729513Y-93264541D01*
X167732556Y-93264307D01*
X167748859Y-93259755D01*
X167926418Y-93210180D01*
X167926422Y-93210179D01*
X167929357Y-93209359D01*
X168111736Y-93117233D01*
X168114134Y-93115360D01*
X168114138Y-93115357D01*
X168198220Y-93049664D01*
X168272748Y-92991436D01*
X168299420Y-92960537D01*
X168324954Y-92930955D01*
X168406259Y-92836762D01*
X168498662Y-92674103D01*
X168505673Y-92661762D01*
X168505674Y-92661760D01*
X168507185Y-92659100D01*
X168571681Y-92465219D01*
X168577108Y-92422264D01*
X168597070Y-92264244D01*
X168597290Y-92262503D01*
X168597698Y-92233271D01*
X168596265Y-92218653D01*
X169043918Y-92218653D01*
X169044993Y-92231450D01*
X169060448Y-92415496D01*
X169061016Y-92422264D01*
X169117336Y-92618676D01*
X169152235Y-92686582D01*
X169186841Y-92753918D01*
X169210733Y-92800408D01*
X169239547Y-92836762D01*
X169335753Y-92958143D01*
X169335756Y-92958146D01*
X169337651Y-92960537D01*
X169339975Y-92962515D01*
X169339977Y-92962517D01*
X169401359Y-93014757D01*
X169493254Y-93092966D01*
X169495924Y-93094458D01*
X169668944Y-93191156D01*
X169671615Y-93192649D01*
X169865942Y-93255789D01*
X170068832Y-93279982D01*
X170071874Y-93279748D01*
X170071877Y-93279748D01*
X170269508Y-93264542D01*
X170269513Y-93264541D01*
X170272556Y-93264307D01*
X170288859Y-93259755D01*
X170466418Y-93210180D01*
X170466422Y-93210179D01*
X170469357Y-93209359D01*
X170651736Y-93117233D01*
X170654134Y-93115360D01*
X170654138Y-93115357D01*
X170738220Y-93049664D01*
X170812748Y-92991436D01*
X170839420Y-92960537D01*
X170864954Y-92930955D01*
X170946259Y-92836762D01*
X171038662Y-92674103D01*
X171045673Y-92661762D01*
X171045674Y-92661760D01*
X171047185Y-92659100D01*
X171111681Y-92465219D01*
X171117108Y-92422264D01*
X171137070Y-92264244D01*
X171137290Y-92262503D01*
X171137698Y-92233271D01*
X171136265Y-92218653D01*
X171583918Y-92218653D01*
X171584993Y-92231450D01*
X171600448Y-92415496D01*
X171601016Y-92422264D01*
X171657336Y-92618676D01*
X171692235Y-92686582D01*
X171726841Y-92753918D01*
X171750733Y-92800408D01*
X171779547Y-92836762D01*
X171875753Y-92958143D01*
X171875756Y-92958146D01*
X171877651Y-92960537D01*
X171879975Y-92962515D01*
X171879977Y-92962517D01*
X171941359Y-93014757D01*
X172033254Y-93092966D01*
X172035924Y-93094458D01*
X172208944Y-93191156D01*
X172211615Y-93192649D01*
X172405942Y-93255789D01*
X172608832Y-93279982D01*
X172611874Y-93279748D01*
X172611877Y-93279748D01*
X172809508Y-93264542D01*
X172809513Y-93264541D01*
X172812556Y-93264307D01*
X172828859Y-93259755D01*
X173006418Y-93210180D01*
X173006422Y-93210179D01*
X173009357Y-93209359D01*
X173191736Y-93117233D01*
X173194134Y-93115360D01*
X173194138Y-93115357D01*
X173278220Y-93049664D01*
X173352748Y-92991436D01*
X173379420Y-92960537D01*
X173404954Y-92930955D01*
X173486259Y-92836762D01*
X173578662Y-92674103D01*
X173585673Y-92661762D01*
X173585674Y-92661760D01*
X173587185Y-92659100D01*
X173651681Y-92465219D01*
X173657108Y-92422264D01*
X173677070Y-92264244D01*
X173677290Y-92262503D01*
X173677698Y-92233271D01*
X173657759Y-92029919D01*
X173598702Y-91834313D01*
X173502776Y-91653903D01*
X173373636Y-91495561D01*
X173216199Y-91365318D01*
X173213515Y-91363867D01*
X173213511Y-91363864D01*
X173039148Y-91269587D01*
X173036463Y-91268135D01*
X172889008Y-91222490D01*
X172844189Y-91208616D01*
X172844186Y-91208615D01*
X172841274Y-91207714D01*
X172838241Y-91207395D01*
X172838240Y-91207395D01*
X172762038Y-91199386D01*
X172638066Y-91186356D01*
X172635033Y-91186632D01*
X172635029Y-91186632D01*
X172523018Y-91196826D01*
X172434580Y-91204874D01*
X172431647Y-91205737D01*
X172431643Y-91205738D01*
X172282365Y-91249673D01*
X172238566Y-91262564D01*
X172057491Y-91357228D01*
X171898251Y-91485260D01*
X171766912Y-91641784D01*
X171706864Y-91751011D01*
X171681860Y-91796494D01*
X171668477Y-91820837D01*
X171606694Y-92015600D01*
X171606353Y-92018638D01*
X171606353Y-92018639D01*
X171599012Y-92084090D01*
X171583918Y-92218653D01*
X171136265Y-92218653D01*
X171117759Y-92029919D01*
X171058702Y-91834313D01*
X170962776Y-91653903D01*
X170833636Y-91495561D01*
X170676199Y-91365318D01*
X170673515Y-91363867D01*
X170673511Y-91363864D01*
X170499148Y-91269587D01*
X170496463Y-91268135D01*
X170349008Y-91222490D01*
X170304189Y-91208616D01*
X170304186Y-91208615D01*
X170301274Y-91207714D01*
X170298241Y-91207395D01*
X170298240Y-91207395D01*
X170222038Y-91199386D01*
X170098066Y-91186356D01*
X170095033Y-91186632D01*
X170095029Y-91186632D01*
X169983018Y-91196826D01*
X169894580Y-91204874D01*
X169891647Y-91205737D01*
X169891643Y-91205738D01*
X169742365Y-91249673D01*
X169698566Y-91262564D01*
X169517491Y-91357228D01*
X169358251Y-91485260D01*
X169226912Y-91641784D01*
X169166864Y-91751011D01*
X169141860Y-91796494D01*
X169128477Y-91820837D01*
X169066694Y-92015600D01*
X169066353Y-92018638D01*
X169066353Y-92018639D01*
X169059012Y-92084090D01*
X169043918Y-92218653D01*
X168596265Y-92218653D01*
X168577759Y-92029919D01*
X168518702Y-91834313D01*
X168422776Y-91653903D01*
X168293636Y-91495561D01*
X168136199Y-91365318D01*
X168133515Y-91363867D01*
X168133511Y-91363864D01*
X167959148Y-91269587D01*
X167956463Y-91268135D01*
X167809008Y-91222490D01*
X167764189Y-91208616D01*
X167764186Y-91208615D01*
X167761274Y-91207714D01*
X167758241Y-91207395D01*
X167758240Y-91207395D01*
X167682038Y-91199386D01*
X167558066Y-91186356D01*
X167555033Y-91186632D01*
X167555029Y-91186632D01*
X167443018Y-91196826D01*
X167354580Y-91204874D01*
X167351647Y-91205737D01*
X167351643Y-91205738D01*
X167202365Y-91249673D01*
X167158566Y-91262564D01*
X166977491Y-91357228D01*
X166818251Y-91485260D01*
X166686912Y-91641784D01*
X166626864Y-91751011D01*
X166601860Y-91796494D01*
X166588477Y-91820837D01*
X166526694Y-92015600D01*
X166526353Y-92018638D01*
X166526353Y-92018639D01*
X166519012Y-92084090D01*
X166503918Y-92218653D01*
X166156507Y-92218653D01*
X166138904Y-92027085D01*
X166137863Y-92021467D01*
X166082439Y-91824947D01*
X166080396Y-91819625D01*
X165990083Y-91636488D01*
X165987097Y-91631616D01*
X165926253Y-91550137D01*
X165918075Y-91545272D01*
X165912234Y-91546755D01*
X165234507Y-92224481D01*
X165230866Y-92233271D01*
X164790648Y-92233271D01*
X164787007Y-92224481D01*
X164111435Y-91548910D01*
X164102645Y-91545269D01*
X164096617Y-91547766D01*
X164050500Y-91606266D01*
X164047390Y-91611055D01*
X163952312Y-91791768D01*
X163950133Y-91797028D01*
X163889579Y-91992046D01*
X163888395Y-91997617D01*
X163864394Y-92200396D01*
X163864245Y-92206108D01*
X163515035Y-92206108D01*
X163497759Y-92029919D01*
X163438702Y-91834313D01*
X163342776Y-91653903D01*
X163213636Y-91495561D01*
X163056199Y-91365318D01*
X163053515Y-91363867D01*
X163053511Y-91363864D01*
X162977274Y-91322643D01*
X164321506Y-91322643D01*
X164325379Y-91332933D01*
X165001967Y-92009521D01*
X165010757Y-92013162D01*
X165019547Y-92009521D01*
X165698301Y-91330766D01*
X165701942Y-91321976D01*
X165700120Y-91317578D01*
X165533947Y-91212732D01*
X165528869Y-91210144D01*
X165339206Y-91134476D01*
X165333740Y-91132857D01*
X165133467Y-91093020D01*
X165127803Y-91092425D01*
X164923619Y-91089751D01*
X164917932Y-91090199D01*
X164716691Y-91124779D01*
X164711182Y-91126255D01*
X164519606Y-91196932D01*
X164514461Y-91199386D01*
X164338978Y-91303787D01*
X164334356Y-91307145D01*
X164325182Y-91315190D01*
X164321506Y-91322643D01*
X162977274Y-91322643D01*
X162879148Y-91269587D01*
X162876463Y-91268135D01*
X162729008Y-91222490D01*
X162684189Y-91208616D01*
X162684186Y-91208615D01*
X162681274Y-91207714D01*
X162678241Y-91207395D01*
X162678240Y-91207395D01*
X162602038Y-91199386D01*
X162478066Y-91186356D01*
X162475033Y-91186632D01*
X162475029Y-91186632D01*
X162363018Y-91196826D01*
X162274580Y-91204874D01*
X162271647Y-91205737D01*
X162271643Y-91205738D01*
X162122365Y-91249673D01*
X162078566Y-91262564D01*
X161897491Y-91357228D01*
X161738251Y-91485260D01*
X161606912Y-91641784D01*
X161546864Y-91751011D01*
X161521860Y-91796494D01*
X161508477Y-91820837D01*
X161446694Y-92015600D01*
X161446353Y-92018638D01*
X161446353Y-92018639D01*
X161439012Y-92084090D01*
X161423918Y-92218653D01*
X161076507Y-92218653D01*
X161058904Y-92027085D01*
X161057863Y-92021467D01*
X161002439Y-91824947D01*
X161000396Y-91819625D01*
X160910083Y-91636488D01*
X160907097Y-91631616D01*
X160846253Y-91550137D01*
X160838075Y-91545272D01*
X160832234Y-91546755D01*
X160154507Y-92224481D01*
X160150866Y-92233271D01*
X159710648Y-92233271D01*
X159707007Y-92224481D01*
X159031435Y-91548910D01*
X159022645Y-91545269D01*
X159016617Y-91547766D01*
X158970500Y-91606266D01*
X158967390Y-91611055D01*
X158872312Y-91791768D01*
X158870133Y-91797028D01*
X158809579Y-91992046D01*
X158808395Y-91997617D01*
X158784394Y-92200396D01*
X158784245Y-92206108D01*
X158435035Y-92206108D01*
X158417759Y-92029919D01*
X158358702Y-91834313D01*
X158262776Y-91653903D01*
X158133636Y-91495561D01*
X157976199Y-91365318D01*
X157973515Y-91363867D01*
X157973511Y-91363864D01*
X157897274Y-91322643D01*
X159241506Y-91322643D01*
X159245379Y-91332933D01*
X159921967Y-92009521D01*
X159930757Y-92013162D01*
X159939547Y-92009521D01*
X160618301Y-91330766D01*
X160621942Y-91321976D01*
X160620120Y-91317578D01*
X160453947Y-91212732D01*
X160448869Y-91210144D01*
X160259206Y-91134476D01*
X160253740Y-91132857D01*
X160053467Y-91093020D01*
X160047803Y-91092425D01*
X159843619Y-91089751D01*
X159837932Y-91090199D01*
X159636691Y-91124779D01*
X159631182Y-91126255D01*
X159439606Y-91196932D01*
X159434461Y-91199386D01*
X159258978Y-91303787D01*
X159254356Y-91307145D01*
X159245182Y-91315190D01*
X159241506Y-91322643D01*
X157897274Y-91322643D01*
X157799148Y-91269587D01*
X157796463Y-91268135D01*
X157649008Y-91222490D01*
X157604189Y-91208616D01*
X157604186Y-91208615D01*
X157601274Y-91207714D01*
X157598241Y-91207395D01*
X157598240Y-91207395D01*
X157522038Y-91199386D01*
X157398066Y-91186356D01*
X157395033Y-91186632D01*
X157395029Y-91186632D01*
X157283018Y-91196826D01*
X157194580Y-91204874D01*
X157191647Y-91205737D01*
X157191643Y-91205738D01*
X157042365Y-91249673D01*
X156998566Y-91262564D01*
X156817491Y-91357228D01*
X156658251Y-91485260D01*
X156526912Y-91641784D01*
X156466864Y-91751011D01*
X156441860Y-91796494D01*
X156428477Y-91820837D01*
X156366694Y-92015600D01*
X156366353Y-92018638D01*
X156366353Y-92018639D01*
X156359012Y-92084090D01*
X156343918Y-92218653D01*
X155896265Y-92218653D01*
X155877759Y-92029919D01*
X155818702Y-91834313D01*
X155722776Y-91653903D01*
X155593636Y-91495561D01*
X155436199Y-91365318D01*
X155433515Y-91363867D01*
X155433511Y-91363864D01*
X155259148Y-91269587D01*
X155256463Y-91268135D01*
X155109008Y-91222490D01*
X155064189Y-91208616D01*
X155064186Y-91208615D01*
X155061274Y-91207714D01*
X155058241Y-91207395D01*
X155058240Y-91207395D01*
X154982038Y-91199386D01*
X154858066Y-91186356D01*
X154855033Y-91186632D01*
X154855029Y-91186632D01*
X154743018Y-91196826D01*
X154654580Y-91204874D01*
X154651647Y-91205737D01*
X154651643Y-91205738D01*
X154502365Y-91249673D01*
X154458566Y-91262564D01*
X154277491Y-91357228D01*
X154118251Y-91485260D01*
X153986912Y-91641784D01*
X153926864Y-91751011D01*
X153901860Y-91796494D01*
X153888477Y-91820837D01*
X153826694Y-92015600D01*
X153826353Y-92018638D01*
X153826353Y-92018639D01*
X153819012Y-92084090D01*
X153803918Y-92218653D01*
X153356265Y-92218653D01*
X153337759Y-92029919D01*
X153278702Y-91834313D01*
X153182776Y-91653903D01*
X153053636Y-91495561D01*
X152896199Y-91365318D01*
X152893515Y-91363867D01*
X152893511Y-91363864D01*
X152719148Y-91269587D01*
X152716463Y-91268135D01*
X152569008Y-91222490D01*
X152524189Y-91208616D01*
X152524186Y-91208615D01*
X152521274Y-91207714D01*
X152518241Y-91207395D01*
X152518240Y-91207395D01*
X152442038Y-91199386D01*
X152318066Y-91186356D01*
X152315033Y-91186632D01*
X152315029Y-91186632D01*
X152203018Y-91196826D01*
X152114580Y-91204874D01*
X152111647Y-91205737D01*
X152111643Y-91205738D01*
X151962365Y-91249673D01*
X151918566Y-91262564D01*
X151737491Y-91357228D01*
X151578251Y-91485260D01*
X151446912Y-91641784D01*
X151386864Y-91751011D01*
X151361860Y-91796494D01*
X151348477Y-91820837D01*
X151286694Y-92015600D01*
X151286353Y-92018638D01*
X151286353Y-92018639D01*
X151279012Y-92084090D01*
X151263918Y-92218653D01*
X150816265Y-92218653D01*
X150797759Y-92029919D01*
X150738702Y-91834313D01*
X150642776Y-91653903D01*
X150513636Y-91495561D01*
X150356199Y-91365318D01*
X150353515Y-91363867D01*
X150353511Y-91363864D01*
X150179148Y-91269587D01*
X150176463Y-91268135D01*
X150029008Y-91222490D01*
X149984189Y-91208616D01*
X149984186Y-91208615D01*
X149981274Y-91207714D01*
X149978241Y-91207395D01*
X149978240Y-91207395D01*
X149902038Y-91199386D01*
X149778066Y-91186356D01*
X149775033Y-91186632D01*
X149775029Y-91186632D01*
X149663018Y-91196826D01*
X149574580Y-91204874D01*
X149571647Y-91205737D01*
X149571643Y-91205738D01*
X149422365Y-91249673D01*
X149378566Y-91262564D01*
X149197491Y-91357228D01*
X149038251Y-91485260D01*
X148906912Y-91641784D01*
X148846864Y-91751011D01*
X148821860Y-91796494D01*
X148808477Y-91820837D01*
X148746694Y-92015600D01*
X148746353Y-92018638D01*
X148746353Y-92018639D01*
X148739012Y-92084090D01*
X148723918Y-92218653D01*
X148376507Y-92218653D01*
X148358904Y-92027085D01*
X148357863Y-92021467D01*
X148302439Y-91824947D01*
X148300396Y-91819625D01*
X148210083Y-91636488D01*
X148207097Y-91631616D01*
X148146253Y-91550137D01*
X148138075Y-91545272D01*
X148132234Y-91546755D01*
X147454507Y-92224481D01*
X147450866Y-92233271D01*
X147010648Y-92233271D01*
X147007007Y-92224481D01*
X146331435Y-91548910D01*
X146322645Y-91545269D01*
X146316617Y-91547766D01*
X146270500Y-91606266D01*
X146267390Y-91611055D01*
X146172312Y-91791768D01*
X146170133Y-91797028D01*
X146109579Y-91992046D01*
X146108395Y-91997617D01*
X146084394Y-92200396D01*
X146084245Y-92206108D01*
X145735035Y-92206108D01*
X145717759Y-92029919D01*
X145658702Y-91834313D01*
X145562776Y-91653903D01*
X145433636Y-91495561D01*
X145276199Y-91365318D01*
X145273515Y-91363867D01*
X145273511Y-91363864D01*
X145197274Y-91322643D01*
X146541506Y-91322643D01*
X146545379Y-91332933D01*
X147221967Y-92009521D01*
X147230757Y-92013162D01*
X147239547Y-92009521D01*
X147918301Y-91330766D01*
X147921942Y-91321976D01*
X147920120Y-91317578D01*
X147753947Y-91212732D01*
X147748869Y-91210144D01*
X147559206Y-91134476D01*
X147553740Y-91132857D01*
X147353467Y-91093020D01*
X147347803Y-91092425D01*
X147143619Y-91089751D01*
X147137932Y-91090199D01*
X146936691Y-91124779D01*
X146931182Y-91126255D01*
X146739606Y-91196932D01*
X146734461Y-91199386D01*
X146558978Y-91303787D01*
X146554356Y-91307145D01*
X146545182Y-91315190D01*
X146541506Y-91322643D01*
X145197274Y-91322643D01*
X145099148Y-91269587D01*
X145096463Y-91268135D01*
X144949008Y-91222490D01*
X144904189Y-91208616D01*
X144904186Y-91208615D01*
X144901274Y-91207714D01*
X144898241Y-91207395D01*
X144898240Y-91207395D01*
X144822038Y-91199386D01*
X144698066Y-91186356D01*
X144695033Y-91186632D01*
X144695029Y-91186632D01*
X144583018Y-91196826D01*
X144494580Y-91204874D01*
X144491647Y-91205737D01*
X144491643Y-91205738D01*
X144342365Y-91249673D01*
X144298566Y-91262564D01*
X144117491Y-91357228D01*
X143958251Y-91485260D01*
X143826912Y-91641784D01*
X143766864Y-91751011D01*
X143741860Y-91796494D01*
X143728477Y-91820837D01*
X143666694Y-92015600D01*
X143666353Y-92018638D01*
X143666353Y-92018639D01*
X143659012Y-92084090D01*
X143643918Y-92218653D01*
X143196265Y-92218653D01*
X143177759Y-92029919D01*
X143118702Y-91834313D01*
X143022776Y-91653903D01*
X142893636Y-91495561D01*
X142736199Y-91365318D01*
X142733515Y-91363867D01*
X142733511Y-91363864D01*
X142559148Y-91269587D01*
X142556463Y-91268135D01*
X142409008Y-91222490D01*
X142364189Y-91208616D01*
X142364186Y-91208615D01*
X142361274Y-91207714D01*
X142358241Y-91207395D01*
X142358240Y-91207395D01*
X142282038Y-91199386D01*
X142158066Y-91186356D01*
X142155033Y-91186632D01*
X142155029Y-91186632D01*
X142043018Y-91196826D01*
X141954580Y-91204874D01*
X141951647Y-91205737D01*
X141951643Y-91205738D01*
X141802365Y-91249673D01*
X141758566Y-91262564D01*
X141577491Y-91357228D01*
X141418251Y-91485260D01*
X141286912Y-91641784D01*
X141226864Y-91751011D01*
X141201860Y-91796494D01*
X141188477Y-91820837D01*
X141126694Y-92015600D01*
X141126353Y-92018638D01*
X141126353Y-92018639D01*
X141119012Y-92084090D01*
X141103918Y-92218653D01*
X141104993Y-92231450D01*
X141120448Y-92415496D01*
X141121016Y-92422264D01*
X141177336Y-92618676D01*
X141197354Y-92657627D01*
X141201273Y-92705301D01*
X141185959Y-92730389D01*
X140760662Y-93155686D01*
X140756642Y-93159370D01*
X140725118Y-93185822D01*
X140722385Y-93190556D01*
X140722384Y-93190557D01*
X140704543Y-93221457D01*
X140701614Y-93226054D01*
X140690531Y-93241883D01*
X140678017Y-93259755D01*
X140676603Y-93265033D01*
X140676322Y-93266080D01*
X140670081Y-93281148D01*
X140666806Y-93286820D01*
X140665857Y-93292204D01*
X140665856Y-93292206D01*
X140659661Y-93327341D01*
X140658481Y-93332663D01*
X140647833Y-93372404D01*
X140651179Y-93410653D01*
X140651419Y-93413394D01*
X140651657Y-93418841D01*
X140651657Y-94260848D01*
X140633351Y-94305042D01*
X140589157Y-94323348D01*
X140544963Y-94305042D01*
X140533973Y-94290190D01*
X140484211Y-94196601D01*
X140484209Y-94196598D01*
X140482776Y-94193903D01*
X140353636Y-94035561D01*
X140196199Y-93905318D01*
X140193515Y-93903867D01*
X140193511Y-93903864D01*
X140019148Y-93809587D01*
X140016463Y-93808135D01*
X139868281Y-93762265D01*
X139824189Y-93748616D01*
X139824186Y-93748615D01*
X139821274Y-93747714D01*
X139818241Y-93747395D01*
X139818240Y-93747395D01*
X139742038Y-93739386D01*
X139618066Y-93726356D01*
X139615033Y-93726632D01*
X139615029Y-93726632D01*
X139503018Y-93736826D01*
X139414580Y-93744874D01*
X139411647Y-93745737D01*
X139411643Y-93745738D01*
X139262365Y-93789673D01*
X139218566Y-93802564D01*
X139037491Y-93897228D01*
X138878251Y-94025260D01*
X138746912Y-94181784D01*
X138648477Y-94360837D01*
X138586694Y-94555600D01*
X138563918Y-94758653D01*
X138564993Y-94771450D01*
X138580448Y-94955496D01*
X138581016Y-94962264D01*
X138637336Y-95158676D01*
X138730733Y-95340408D01*
X138759547Y-95376762D01*
X138855753Y-95498143D01*
X138855756Y-95498146D01*
X138857651Y-95500537D01*
X139013254Y-95632966D01*
X139191615Y-95732649D01*
X139231589Y-95745637D01*
X139267963Y-95776704D01*
X139271716Y-95824392D01*
X139256469Y-95849272D01*
X139021105Y-96084637D01*
X139017085Y-96088321D01*
X138985561Y-96114773D01*
X138982828Y-96119507D01*
X138982827Y-96119508D01*
X138964986Y-96150408D01*
X138962057Y-96155005D01*
X138946054Y-96177861D01*
X138938460Y-96188706D01*
X138937046Y-96193984D01*
X138936765Y-96195031D01*
X138930524Y-96210099D01*
X138927249Y-96215771D01*
X138926300Y-96221155D01*
X138926299Y-96221157D01*
X138920104Y-96256292D01*
X138918924Y-96261614D01*
X138908276Y-96301355D01*
X138908753Y-96306802D01*
X138911862Y-96342345D01*
X138912100Y-96347792D01*
X138912100Y-96783771D01*
X138893794Y-96827965D01*
X138849600Y-96846271D01*
X125453497Y-96846271D01*
X125409303Y-96827965D01*
X125390997Y-96783771D01*
X125409303Y-96739577D01*
X126409833Y-95739047D01*
X126454027Y-95720741D01*
X126484516Y-95728682D01*
X126488945Y-95731157D01*
X126491615Y-95732649D01*
X126685942Y-95795789D01*
X126888832Y-95819982D01*
X126891874Y-95819748D01*
X126891877Y-95819748D01*
X127089508Y-95804542D01*
X127089513Y-95804541D01*
X127092556Y-95804307D01*
X127103388Y-95801283D01*
X127286418Y-95750180D01*
X127286422Y-95750179D01*
X127289357Y-95749359D01*
X127471736Y-95657233D01*
X127474134Y-95655360D01*
X127474138Y-95655357D01*
X127558220Y-95589664D01*
X127632748Y-95531436D01*
X127659420Y-95500537D01*
X127684954Y-95470955D01*
X127766259Y-95376762D01*
X127867185Y-95199100D01*
X127931681Y-95005219D01*
X127935229Y-94977139D01*
X127957070Y-94804244D01*
X127957290Y-94802503D01*
X127957698Y-94773271D01*
X127956265Y-94758653D01*
X128403918Y-94758653D01*
X128404993Y-94771450D01*
X128420448Y-94955496D01*
X128421016Y-94962264D01*
X128477336Y-95158676D01*
X128570733Y-95340408D01*
X128599547Y-95376762D01*
X128695753Y-95498143D01*
X128695756Y-95498146D01*
X128697651Y-95500537D01*
X128853254Y-95632966D01*
X129031615Y-95732649D01*
X129225942Y-95795789D01*
X129428832Y-95819982D01*
X129431874Y-95819748D01*
X129431877Y-95819748D01*
X129629508Y-95804542D01*
X129629513Y-95804541D01*
X129632556Y-95804307D01*
X129643388Y-95801283D01*
X129826418Y-95750180D01*
X129826422Y-95750179D01*
X129829357Y-95749359D01*
X130011736Y-95657233D01*
X130014134Y-95655360D01*
X130014138Y-95655357D01*
X130098220Y-95589664D01*
X130172748Y-95531436D01*
X130199420Y-95500537D01*
X130224954Y-95470955D01*
X130306259Y-95376762D01*
X130407185Y-95199100D01*
X130471681Y-95005219D01*
X130475229Y-94977139D01*
X130497070Y-94804244D01*
X130497290Y-94802503D01*
X130497698Y-94773271D01*
X130496265Y-94758653D01*
X130943918Y-94758653D01*
X130944993Y-94771450D01*
X130960448Y-94955496D01*
X130961016Y-94962264D01*
X131017336Y-95158676D01*
X131110733Y-95340408D01*
X131139547Y-95376762D01*
X131235753Y-95498143D01*
X131235756Y-95498146D01*
X131237651Y-95500537D01*
X131393254Y-95632966D01*
X131571615Y-95732649D01*
X131765942Y-95795789D01*
X131968832Y-95819982D01*
X131971874Y-95819748D01*
X131971877Y-95819748D01*
X132169508Y-95804542D01*
X132169513Y-95804541D01*
X132172556Y-95804307D01*
X132183388Y-95801283D01*
X132366418Y-95750180D01*
X132366422Y-95750179D01*
X132369357Y-95749359D01*
X132500902Y-95682911D01*
X133841227Y-95682911D01*
X133843198Y-95687668D01*
X133981028Y-95779763D01*
X133986050Y-95782489D01*
X134173646Y-95863087D01*
X134179085Y-95864854D01*
X134378241Y-95909919D01*
X134383889Y-95910662D01*
X134587931Y-95918680D01*
X134593626Y-95918381D01*
X134795705Y-95889081D01*
X134801254Y-95887749D01*
X134994608Y-95822114D01*
X134999821Y-95819793D01*
X135177976Y-95720021D01*
X135182684Y-95716785D01*
X135214959Y-95689943D01*
X135219390Y-95681522D01*
X135217293Y-95674768D01*
X134539547Y-94997021D01*
X134530757Y-94993380D01*
X134521967Y-94997021D01*
X133844868Y-95674121D01*
X133841227Y-95682911D01*
X132500902Y-95682911D01*
X132551736Y-95657233D01*
X132554134Y-95655360D01*
X132554138Y-95655357D01*
X132638220Y-95589664D01*
X132712748Y-95531436D01*
X132739420Y-95500537D01*
X132764954Y-95470955D01*
X132846259Y-95376762D01*
X132947185Y-95199100D01*
X133011681Y-95005219D01*
X133015229Y-94977139D01*
X133037070Y-94804244D01*
X133037290Y-94802503D01*
X133037698Y-94773271D01*
X133035035Y-94746108D01*
X133384245Y-94746108D01*
X133397599Y-94949853D01*
X133398493Y-94955496D01*
X133448754Y-95153400D01*
X133450661Y-95158784D01*
X133536146Y-95344216D01*
X133538997Y-95349155D01*
X133615019Y-95456723D01*
X133623064Y-95461799D01*
X133628497Y-95460570D01*
X134307007Y-94782061D01*
X134310648Y-94773271D01*
X134750866Y-94773271D01*
X134754507Y-94782061D01*
X135430689Y-95458242D01*
X135439479Y-95461883D01*
X135446012Y-95459177D01*
X135474271Y-95425198D01*
X135477507Y-95420490D01*
X135577279Y-95242335D01*
X135579600Y-95237122D01*
X135645235Y-95043768D01*
X135646567Y-95038219D01*
X135676015Y-94835121D01*
X135676326Y-94831476D01*
X135677802Y-94775098D01*
X135677683Y-94771450D01*
X135676507Y-94758653D01*
X136023918Y-94758653D01*
X136024993Y-94771450D01*
X136040448Y-94955496D01*
X136041016Y-94962264D01*
X136097336Y-95158676D01*
X136190733Y-95340408D01*
X136219547Y-95376762D01*
X136315753Y-95498143D01*
X136315756Y-95498146D01*
X136317651Y-95500537D01*
X136473254Y-95632966D01*
X136651615Y-95732649D01*
X136845942Y-95795789D01*
X137048832Y-95819982D01*
X137051874Y-95819748D01*
X137051877Y-95819748D01*
X137249508Y-95804542D01*
X137249513Y-95804541D01*
X137252556Y-95804307D01*
X137263388Y-95801283D01*
X137446418Y-95750180D01*
X137446422Y-95750179D01*
X137449357Y-95749359D01*
X137631736Y-95657233D01*
X137634134Y-95655360D01*
X137634138Y-95655357D01*
X137718220Y-95589664D01*
X137792748Y-95531436D01*
X137819420Y-95500537D01*
X137844954Y-95470955D01*
X137926259Y-95376762D01*
X138027185Y-95199100D01*
X138091681Y-95005219D01*
X138095229Y-94977139D01*
X138117070Y-94804244D01*
X138117290Y-94802503D01*
X138117698Y-94773271D01*
X138097759Y-94569919D01*
X138038702Y-94374313D01*
X137993973Y-94290190D01*
X137944211Y-94196601D01*
X137944209Y-94196598D01*
X137942776Y-94193903D01*
X137813636Y-94035561D01*
X137656199Y-93905318D01*
X137653515Y-93903867D01*
X137653511Y-93903864D01*
X137479148Y-93809587D01*
X137476463Y-93808135D01*
X137328281Y-93762265D01*
X137284189Y-93748616D01*
X137284186Y-93748615D01*
X137281274Y-93747714D01*
X137278241Y-93747395D01*
X137278240Y-93747395D01*
X137202038Y-93739386D01*
X137078066Y-93726356D01*
X137075033Y-93726632D01*
X137075029Y-93726632D01*
X136963018Y-93736826D01*
X136874580Y-93744874D01*
X136871647Y-93745737D01*
X136871643Y-93745738D01*
X136722365Y-93789673D01*
X136678566Y-93802564D01*
X136497491Y-93897228D01*
X136338251Y-94025260D01*
X136206912Y-94181784D01*
X136108477Y-94360837D01*
X136046694Y-94555600D01*
X136023918Y-94758653D01*
X135676507Y-94758653D01*
X135658904Y-94567085D01*
X135657863Y-94561467D01*
X135602439Y-94364947D01*
X135600396Y-94359625D01*
X135510083Y-94176488D01*
X135507097Y-94171616D01*
X135446253Y-94090137D01*
X135438075Y-94085272D01*
X135432234Y-94086755D01*
X134754507Y-94764481D01*
X134750866Y-94773271D01*
X134310648Y-94773271D01*
X134307007Y-94764481D01*
X133631435Y-94088910D01*
X133622645Y-94085269D01*
X133616617Y-94087766D01*
X133570500Y-94146266D01*
X133567390Y-94151055D01*
X133472312Y-94331768D01*
X133470133Y-94337028D01*
X133409579Y-94532046D01*
X133408395Y-94537617D01*
X133384394Y-94740396D01*
X133384245Y-94746108D01*
X133035035Y-94746108D01*
X133017759Y-94569919D01*
X132958702Y-94374313D01*
X132913973Y-94290190D01*
X132864211Y-94196601D01*
X132864209Y-94196598D01*
X132862776Y-94193903D01*
X132733636Y-94035561D01*
X132576199Y-93905318D01*
X132573515Y-93903867D01*
X132573511Y-93903864D01*
X132497274Y-93862643D01*
X133841506Y-93862643D01*
X133845379Y-93872933D01*
X134521967Y-94549521D01*
X134530757Y-94553162D01*
X134539547Y-94549521D01*
X135218301Y-93870766D01*
X135221942Y-93861976D01*
X135220120Y-93857578D01*
X135053947Y-93752732D01*
X135048869Y-93750144D01*
X134859206Y-93674476D01*
X134853740Y-93672857D01*
X134653467Y-93633020D01*
X134647803Y-93632425D01*
X134443619Y-93629751D01*
X134437932Y-93630199D01*
X134236691Y-93664779D01*
X134231182Y-93666255D01*
X134039606Y-93736932D01*
X134034461Y-93739386D01*
X133858978Y-93843787D01*
X133854356Y-93847145D01*
X133845182Y-93855190D01*
X133841506Y-93862643D01*
X132497274Y-93862643D01*
X132399148Y-93809587D01*
X132396463Y-93808135D01*
X132248281Y-93762265D01*
X132204189Y-93748616D01*
X132204186Y-93748615D01*
X132201274Y-93747714D01*
X132198241Y-93747395D01*
X132198240Y-93747395D01*
X132122038Y-93739386D01*
X131998066Y-93726356D01*
X131995033Y-93726632D01*
X131995029Y-93726632D01*
X131883018Y-93736826D01*
X131794580Y-93744874D01*
X131791647Y-93745737D01*
X131791643Y-93745738D01*
X131642365Y-93789673D01*
X131598566Y-93802564D01*
X131417491Y-93897228D01*
X131258251Y-94025260D01*
X131126912Y-94181784D01*
X131028477Y-94360837D01*
X130966694Y-94555600D01*
X130943918Y-94758653D01*
X130496265Y-94758653D01*
X130477759Y-94569919D01*
X130418702Y-94374313D01*
X130373973Y-94290190D01*
X130324211Y-94196601D01*
X130324209Y-94196598D01*
X130322776Y-94193903D01*
X130193636Y-94035561D01*
X130036199Y-93905318D01*
X130033515Y-93903867D01*
X130033511Y-93903864D01*
X129859148Y-93809587D01*
X129856463Y-93808135D01*
X129708281Y-93762265D01*
X129664189Y-93748616D01*
X129664186Y-93748615D01*
X129661274Y-93747714D01*
X129658241Y-93747395D01*
X129658240Y-93747395D01*
X129582038Y-93739386D01*
X129458066Y-93726356D01*
X129455033Y-93726632D01*
X129455029Y-93726632D01*
X129343018Y-93736826D01*
X129254580Y-93744874D01*
X129251647Y-93745737D01*
X129251643Y-93745738D01*
X129102365Y-93789673D01*
X129058566Y-93802564D01*
X128877491Y-93897228D01*
X128718251Y-94025260D01*
X128586912Y-94181784D01*
X128488477Y-94360837D01*
X128426694Y-94555600D01*
X128403918Y-94758653D01*
X127956265Y-94758653D01*
X127937759Y-94569919D01*
X127878702Y-94374313D01*
X127833973Y-94290190D01*
X127784211Y-94196601D01*
X127784209Y-94196598D01*
X127782776Y-94193903D01*
X127653636Y-94035561D01*
X127496199Y-93905318D01*
X127493515Y-93903867D01*
X127493511Y-93903864D01*
X127319148Y-93809587D01*
X127316463Y-93808135D01*
X127168281Y-93762265D01*
X127124189Y-93748616D01*
X127124186Y-93748615D01*
X127121274Y-93747714D01*
X127118241Y-93747395D01*
X127118240Y-93747395D01*
X127042038Y-93739386D01*
X126918066Y-93726356D01*
X126915033Y-93726632D01*
X126915029Y-93726632D01*
X126803018Y-93736826D01*
X126714580Y-93744874D01*
X126711647Y-93745737D01*
X126711643Y-93745738D01*
X126562365Y-93789673D01*
X126518566Y-93802564D01*
X126337491Y-93897228D01*
X126178251Y-94025260D01*
X126046912Y-94181784D01*
X125948477Y-94360837D01*
X125886694Y-94555600D01*
X125863918Y-94758653D01*
X125864993Y-94771450D01*
X125880448Y-94955496D01*
X125881016Y-94962264D01*
X125937336Y-95158676D01*
X125938731Y-95161390D01*
X125958314Y-95199495D01*
X125962233Y-95247169D01*
X125946919Y-95272257D01*
X124391211Y-96827965D01*
X124347017Y-96846271D01*
X116088757Y-96846271D01*
X116044563Y-96827965D01*
X116026257Y-96783771D01*
X116026257Y-93503271D01*
X117845153Y-93503271D01*
X117865536Y-93762265D01*
X117926184Y-94014881D01*
X117927126Y-94017155D01*
X118024660Y-94252624D01*
X118024664Y-94252631D01*
X118025603Y-94254899D01*
X118026888Y-94256995D01*
X118026889Y-94256998D01*
X118100574Y-94377241D01*
X118161345Y-94476411D01*
X118162938Y-94478276D01*
X118162940Y-94478279D01*
X118228979Y-94555600D01*
X118330068Y-94673960D01*
X118331932Y-94675552D01*
X118482611Y-94804244D01*
X118527617Y-94842683D01*
X118529710Y-94843966D01*
X118529712Y-94843967D01*
X118727548Y-94965200D01*
X118749129Y-94978425D01*
X118751397Y-94979364D01*
X118751404Y-94979368D01*
X118893484Y-95038219D01*
X118989147Y-95077844D01*
X119241763Y-95138492D01*
X119299732Y-95143054D01*
X119434665Y-95153674D01*
X119434678Y-95153675D01*
X119435904Y-95153771D01*
X119565610Y-95153771D01*
X119566836Y-95153675D01*
X119566849Y-95153674D01*
X119701782Y-95143054D01*
X119759751Y-95138492D01*
X120012367Y-95077844D01*
X120108030Y-95038219D01*
X120250110Y-94979368D01*
X120250117Y-94979364D01*
X120252385Y-94978425D01*
X120273967Y-94965200D01*
X120471802Y-94843967D01*
X120471804Y-94843966D01*
X120473897Y-94842683D01*
X120518904Y-94804244D01*
X120572284Y-94758653D01*
X123323918Y-94758653D01*
X123324993Y-94771450D01*
X123340448Y-94955496D01*
X123341016Y-94962264D01*
X123397336Y-95158676D01*
X123490733Y-95340408D01*
X123519547Y-95376762D01*
X123615753Y-95498143D01*
X123615756Y-95498146D01*
X123617651Y-95500537D01*
X123773254Y-95632966D01*
X123951615Y-95732649D01*
X124145942Y-95795789D01*
X124348832Y-95819982D01*
X124351874Y-95819748D01*
X124351877Y-95819748D01*
X124549508Y-95804542D01*
X124549513Y-95804541D01*
X124552556Y-95804307D01*
X124563388Y-95801283D01*
X124746418Y-95750180D01*
X124746422Y-95750179D01*
X124749357Y-95749359D01*
X124931736Y-95657233D01*
X124934134Y-95655360D01*
X124934138Y-95655357D01*
X125018220Y-95589664D01*
X125092748Y-95531436D01*
X125119420Y-95500537D01*
X125144954Y-95470955D01*
X125226259Y-95376762D01*
X125327185Y-95199100D01*
X125391681Y-95005219D01*
X125395229Y-94977139D01*
X125417070Y-94804244D01*
X125417290Y-94802503D01*
X125417698Y-94773271D01*
X125397759Y-94569919D01*
X125338702Y-94374313D01*
X125293973Y-94290190D01*
X125244211Y-94196601D01*
X125244209Y-94196598D01*
X125242776Y-94193903D01*
X125113636Y-94035561D01*
X124956199Y-93905318D01*
X124953515Y-93903867D01*
X124953511Y-93903864D01*
X124779148Y-93809587D01*
X124776463Y-93808135D01*
X124628281Y-93762265D01*
X124584189Y-93748616D01*
X124584186Y-93748615D01*
X124581274Y-93747714D01*
X124578241Y-93747395D01*
X124578240Y-93747395D01*
X124502038Y-93739386D01*
X124378066Y-93726356D01*
X124375033Y-93726632D01*
X124375029Y-93726632D01*
X124263018Y-93736826D01*
X124174580Y-93744874D01*
X124171647Y-93745737D01*
X124171643Y-93745738D01*
X124022365Y-93789673D01*
X123978566Y-93802564D01*
X123797491Y-93897228D01*
X123638251Y-94025260D01*
X123506912Y-94181784D01*
X123408477Y-94360837D01*
X123346694Y-94555600D01*
X123323918Y-94758653D01*
X120572284Y-94758653D01*
X120669582Y-94675552D01*
X120671446Y-94673960D01*
X120772535Y-94555600D01*
X120838574Y-94478279D01*
X120838576Y-94478276D01*
X120840169Y-94476411D01*
X120900940Y-94377241D01*
X120974625Y-94256998D01*
X120974626Y-94256995D01*
X120975911Y-94254899D01*
X120976850Y-94252631D01*
X120976854Y-94252624D01*
X121074388Y-94017155D01*
X121075330Y-94014881D01*
X121135978Y-93762265D01*
X121156361Y-93503271D01*
X121135978Y-93244277D01*
X121075330Y-92991661D01*
X121044290Y-92916723D01*
X120976854Y-92753918D01*
X120976850Y-92753911D01*
X120975911Y-92751643D01*
X120941582Y-92695622D01*
X120841453Y-92532226D01*
X120841452Y-92532224D01*
X120840169Y-92530131D01*
X120787202Y-92468114D01*
X120673038Y-92334446D01*
X120671446Y-92332582D01*
X120541620Y-92221700D01*
X120538052Y-92218653D01*
X123323918Y-92218653D01*
X123324993Y-92231450D01*
X123340448Y-92415496D01*
X123341016Y-92422264D01*
X123397336Y-92618676D01*
X123432235Y-92686582D01*
X123466841Y-92753918D01*
X123490733Y-92800408D01*
X123519547Y-92836762D01*
X123615753Y-92958143D01*
X123615756Y-92958146D01*
X123617651Y-92960537D01*
X123619975Y-92962515D01*
X123619977Y-92962517D01*
X123681359Y-93014757D01*
X123773254Y-93092966D01*
X123775924Y-93094458D01*
X123948944Y-93191156D01*
X123951615Y-93192649D01*
X124145942Y-93255789D01*
X124348832Y-93279982D01*
X124351874Y-93279748D01*
X124351877Y-93279748D01*
X124549508Y-93264542D01*
X124549513Y-93264541D01*
X124552556Y-93264307D01*
X124568859Y-93259755D01*
X124746418Y-93210180D01*
X124746422Y-93210179D01*
X124749357Y-93209359D01*
X124931736Y-93117233D01*
X124934134Y-93115360D01*
X124934138Y-93115357D01*
X125018220Y-93049664D01*
X125092748Y-92991436D01*
X125119420Y-92960537D01*
X125144954Y-92930955D01*
X125226259Y-92836762D01*
X125319971Y-92671799D01*
X125357716Y-92642415D01*
X125374313Y-92640171D01*
X125910233Y-92640171D01*
X125954427Y-92658477D01*
X125965820Y-92674101D01*
X126030733Y-92800408D01*
X126059547Y-92836762D01*
X126155753Y-92958143D01*
X126155756Y-92958146D01*
X126157651Y-92960537D01*
X126159975Y-92962515D01*
X126159977Y-92962517D01*
X126221359Y-93014757D01*
X126313254Y-93092966D01*
X126315924Y-93094458D01*
X126488944Y-93191156D01*
X126491615Y-93192649D01*
X126685942Y-93255789D01*
X126888832Y-93279982D01*
X126891874Y-93279748D01*
X126891877Y-93279748D01*
X127089508Y-93264542D01*
X127089513Y-93264541D01*
X127092556Y-93264307D01*
X127108859Y-93259755D01*
X127286418Y-93210180D01*
X127286422Y-93210179D01*
X127289357Y-93209359D01*
X127420902Y-93142911D01*
X128761227Y-93142911D01*
X128763198Y-93147668D01*
X128901028Y-93239763D01*
X128906050Y-93242489D01*
X129093646Y-93323087D01*
X129099085Y-93324854D01*
X129298241Y-93369919D01*
X129303889Y-93370662D01*
X129507931Y-93378680D01*
X129513626Y-93378381D01*
X129715705Y-93349081D01*
X129721254Y-93347749D01*
X129914608Y-93282114D01*
X129919821Y-93279793D01*
X130097976Y-93180021D01*
X130102684Y-93176785D01*
X130134959Y-93149943D01*
X130139390Y-93141522D01*
X130137293Y-93134768D01*
X129459547Y-92457021D01*
X129450757Y-92453380D01*
X129441967Y-92457021D01*
X128764868Y-93134121D01*
X128761227Y-93142911D01*
X127420902Y-93142911D01*
X127471736Y-93117233D01*
X127474134Y-93115360D01*
X127474138Y-93115357D01*
X127558220Y-93049664D01*
X127632748Y-92991436D01*
X127659420Y-92960537D01*
X127684954Y-92930955D01*
X127766259Y-92836762D01*
X127858662Y-92674103D01*
X127865673Y-92661762D01*
X127865674Y-92661760D01*
X127867185Y-92659100D01*
X127931681Y-92465219D01*
X127937108Y-92422264D01*
X127957070Y-92264244D01*
X127957290Y-92262503D01*
X127957698Y-92233271D01*
X127955035Y-92206108D01*
X128304245Y-92206108D01*
X128317599Y-92409853D01*
X128318493Y-92415496D01*
X128368754Y-92613400D01*
X128370661Y-92618784D01*
X128456146Y-92804216D01*
X128458997Y-92809155D01*
X128535019Y-92916723D01*
X128543064Y-92921799D01*
X128548497Y-92920570D01*
X129227007Y-92242061D01*
X129230648Y-92233271D01*
X129670866Y-92233271D01*
X129674507Y-92242061D01*
X130350689Y-92918242D01*
X130359479Y-92921883D01*
X130366012Y-92919177D01*
X130394271Y-92885198D01*
X130397507Y-92880490D01*
X130497279Y-92702335D01*
X130499600Y-92697122D01*
X130565235Y-92503768D01*
X130566567Y-92498219D01*
X130596015Y-92295121D01*
X130596326Y-92291476D01*
X130597802Y-92235098D01*
X130597683Y-92231450D01*
X130596507Y-92218653D01*
X130943918Y-92218653D01*
X130944993Y-92231450D01*
X130960448Y-92415496D01*
X130961016Y-92422264D01*
X131017336Y-92618676D01*
X131052235Y-92686582D01*
X131086841Y-92753918D01*
X131110733Y-92800408D01*
X131139547Y-92836762D01*
X131235753Y-92958143D01*
X131235756Y-92958146D01*
X131237651Y-92960537D01*
X131239975Y-92962515D01*
X131239977Y-92962517D01*
X131301359Y-93014757D01*
X131393254Y-93092966D01*
X131395924Y-93094458D01*
X131568944Y-93191156D01*
X131571615Y-93192649D01*
X131765942Y-93255789D01*
X131968832Y-93279982D01*
X131971874Y-93279748D01*
X131971877Y-93279748D01*
X132169508Y-93264542D01*
X132169513Y-93264541D01*
X132172556Y-93264307D01*
X132188859Y-93259755D01*
X132366418Y-93210180D01*
X132366422Y-93210179D01*
X132369357Y-93209359D01*
X132551736Y-93117233D01*
X132554134Y-93115360D01*
X132554138Y-93115357D01*
X132638220Y-93049664D01*
X132712748Y-92991436D01*
X132739420Y-92960537D01*
X132764954Y-92930955D01*
X132846259Y-92836762D01*
X132938662Y-92674103D01*
X132945673Y-92661762D01*
X132945674Y-92661760D01*
X132947185Y-92659100D01*
X133011681Y-92465219D01*
X133017108Y-92422264D01*
X133037070Y-92264244D01*
X133037290Y-92262503D01*
X133037698Y-92233271D01*
X133036265Y-92218653D01*
X133483918Y-92218653D01*
X133484993Y-92231450D01*
X133500448Y-92415496D01*
X133501016Y-92422264D01*
X133557336Y-92618676D01*
X133592235Y-92686582D01*
X133626841Y-92753918D01*
X133650733Y-92800408D01*
X133679547Y-92836762D01*
X133775753Y-92958143D01*
X133775756Y-92958146D01*
X133777651Y-92960537D01*
X133779975Y-92962515D01*
X133779977Y-92962517D01*
X133841359Y-93014757D01*
X133933254Y-93092966D01*
X133935924Y-93094458D01*
X134108944Y-93191156D01*
X134111615Y-93192649D01*
X134305942Y-93255789D01*
X134508832Y-93279982D01*
X134511874Y-93279748D01*
X134511877Y-93279748D01*
X134709508Y-93264542D01*
X134709513Y-93264541D01*
X134712556Y-93264307D01*
X134728859Y-93259755D01*
X134906418Y-93210180D01*
X134906422Y-93210179D01*
X134909357Y-93209359D01*
X135091736Y-93117233D01*
X135094134Y-93115360D01*
X135094138Y-93115357D01*
X135178220Y-93049664D01*
X135252748Y-92991436D01*
X135279420Y-92960537D01*
X135304954Y-92930955D01*
X135386259Y-92836762D01*
X135478662Y-92674103D01*
X135485673Y-92661762D01*
X135485674Y-92661760D01*
X135487185Y-92659100D01*
X135551681Y-92465219D01*
X135557108Y-92422264D01*
X135577070Y-92264244D01*
X135577290Y-92262503D01*
X135577698Y-92233271D01*
X135576265Y-92218653D01*
X136023918Y-92218653D01*
X136024993Y-92231450D01*
X136040448Y-92415496D01*
X136041016Y-92422264D01*
X136097336Y-92618676D01*
X136132235Y-92686582D01*
X136166841Y-92753918D01*
X136190733Y-92800408D01*
X136219547Y-92836762D01*
X136315753Y-92958143D01*
X136315756Y-92958146D01*
X136317651Y-92960537D01*
X136319975Y-92962515D01*
X136319977Y-92962517D01*
X136381359Y-93014757D01*
X136473254Y-93092966D01*
X136475924Y-93094458D01*
X136648944Y-93191156D01*
X136651615Y-93192649D01*
X136845942Y-93255789D01*
X137048832Y-93279982D01*
X137051874Y-93279748D01*
X137051877Y-93279748D01*
X137249508Y-93264542D01*
X137249513Y-93264541D01*
X137252556Y-93264307D01*
X137268859Y-93259755D01*
X137446418Y-93210180D01*
X137446422Y-93210179D01*
X137449357Y-93209359D01*
X137580902Y-93142911D01*
X138921227Y-93142911D01*
X138923198Y-93147668D01*
X139061028Y-93239763D01*
X139066050Y-93242489D01*
X139253646Y-93323087D01*
X139259085Y-93324854D01*
X139458241Y-93369919D01*
X139463889Y-93370662D01*
X139667931Y-93378680D01*
X139673626Y-93378381D01*
X139875705Y-93349081D01*
X139881254Y-93347749D01*
X140074608Y-93282114D01*
X140079821Y-93279793D01*
X140257976Y-93180021D01*
X140262684Y-93176785D01*
X140294959Y-93149943D01*
X140299390Y-93141522D01*
X140297293Y-93134768D01*
X139619547Y-92457021D01*
X139610757Y-92453380D01*
X139601967Y-92457021D01*
X138924868Y-93134121D01*
X138921227Y-93142911D01*
X137580902Y-93142911D01*
X137631736Y-93117233D01*
X137634134Y-93115360D01*
X137634138Y-93115357D01*
X137718220Y-93049664D01*
X137792748Y-92991436D01*
X137819420Y-92960537D01*
X137844954Y-92930955D01*
X137926259Y-92836762D01*
X138018662Y-92674103D01*
X138025673Y-92661762D01*
X138025674Y-92661760D01*
X138027185Y-92659100D01*
X138091681Y-92465219D01*
X138097108Y-92422264D01*
X138117070Y-92264244D01*
X138117290Y-92262503D01*
X138117698Y-92233271D01*
X138115035Y-92206108D01*
X138464245Y-92206108D01*
X138477599Y-92409853D01*
X138478493Y-92415496D01*
X138528754Y-92613400D01*
X138530661Y-92618784D01*
X138616146Y-92804216D01*
X138618997Y-92809155D01*
X138695019Y-92916723D01*
X138703064Y-92921799D01*
X138708497Y-92920570D01*
X139387007Y-92242061D01*
X139390648Y-92233271D01*
X139830866Y-92233271D01*
X139834507Y-92242061D01*
X140510689Y-92918242D01*
X140519479Y-92921883D01*
X140526012Y-92919177D01*
X140554271Y-92885198D01*
X140557507Y-92880490D01*
X140657279Y-92702335D01*
X140659600Y-92697122D01*
X140725235Y-92503768D01*
X140726567Y-92498219D01*
X140756015Y-92295121D01*
X140756326Y-92291476D01*
X140757802Y-92235098D01*
X140757683Y-92231450D01*
X140738904Y-92027085D01*
X140737863Y-92021467D01*
X140682439Y-91824947D01*
X140680396Y-91819625D01*
X140590083Y-91636488D01*
X140587097Y-91631616D01*
X140526253Y-91550137D01*
X140518075Y-91545272D01*
X140512234Y-91546755D01*
X139834507Y-92224481D01*
X139830866Y-92233271D01*
X139390648Y-92233271D01*
X139387007Y-92224481D01*
X138711435Y-91548910D01*
X138702645Y-91545269D01*
X138696617Y-91547766D01*
X138650500Y-91606266D01*
X138647390Y-91611055D01*
X138552312Y-91791768D01*
X138550133Y-91797028D01*
X138489579Y-91992046D01*
X138488395Y-91997617D01*
X138464394Y-92200396D01*
X138464245Y-92206108D01*
X138115035Y-92206108D01*
X138097759Y-92029919D01*
X138038702Y-91834313D01*
X137942776Y-91653903D01*
X137813636Y-91495561D01*
X137656199Y-91365318D01*
X137653515Y-91363867D01*
X137653511Y-91363864D01*
X137577274Y-91322643D01*
X138921506Y-91322643D01*
X138925379Y-91332933D01*
X139601967Y-92009521D01*
X139610757Y-92013162D01*
X139619547Y-92009521D01*
X140298301Y-91330766D01*
X140301942Y-91321976D01*
X140300120Y-91317578D01*
X140133947Y-91212732D01*
X140128869Y-91210144D01*
X139939206Y-91134476D01*
X139933740Y-91132857D01*
X139733467Y-91093020D01*
X139727803Y-91092425D01*
X139523619Y-91089751D01*
X139517932Y-91090199D01*
X139316691Y-91124779D01*
X139311182Y-91126255D01*
X139119606Y-91196932D01*
X139114461Y-91199386D01*
X138938978Y-91303787D01*
X138934356Y-91307145D01*
X138925182Y-91315190D01*
X138921506Y-91322643D01*
X137577274Y-91322643D01*
X137479148Y-91269587D01*
X137476463Y-91268135D01*
X137329008Y-91222490D01*
X137284189Y-91208616D01*
X137284186Y-91208615D01*
X137281274Y-91207714D01*
X137278241Y-91207395D01*
X137278240Y-91207395D01*
X137202038Y-91199386D01*
X137078066Y-91186356D01*
X137075033Y-91186632D01*
X137075029Y-91186632D01*
X136963018Y-91196826D01*
X136874580Y-91204874D01*
X136871647Y-91205737D01*
X136871643Y-91205738D01*
X136722365Y-91249673D01*
X136678566Y-91262564D01*
X136497491Y-91357228D01*
X136338251Y-91485260D01*
X136206912Y-91641784D01*
X136146864Y-91751011D01*
X136121860Y-91796494D01*
X136108477Y-91820837D01*
X136046694Y-92015600D01*
X136046353Y-92018638D01*
X136046353Y-92018639D01*
X136039012Y-92084090D01*
X136023918Y-92218653D01*
X135576265Y-92218653D01*
X135557759Y-92029919D01*
X135498702Y-91834313D01*
X135402776Y-91653903D01*
X135273636Y-91495561D01*
X135116199Y-91365318D01*
X135113515Y-91363867D01*
X135113511Y-91363864D01*
X134939148Y-91269587D01*
X134936463Y-91268135D01*
X134789008Y-91222490D01*
X134744189Y-91208616D01*
X134744186Y-91208615D01*
X134741274Y-91207714D01*
X134738241Y-91207395D01*
X134738240Y-91207395D01*
X134662038Y-91199386D01*
X134538066Y-91186356D01*
X134535033Y-91186632D01*
X134535029Y-91186632D01*
X134423018Y-91196826D01*
X134334580Y-91204874D01*
X134331647Y-91205737D01*
X134331643Y-91205738D01*
X134182365Y-91249673D01*
X134138566Y-91262564D01*
X133957491Y-91357228D01*
X133798251Y-91485260D01*
X133666912Y-91641784D01*
X133606864Y-91751011D01*
X133581860Y-91796494D01*
X133568477Y-91820837D01*
X133506694Y-92015600D01*
X133506353Y-92018638D01*
X133506353Y-92018639D01*
X133499012Y-92084090D01*
X133483918Y-92218653D01*
X133036265Y-92218653D01*
X133017759Y-92029919D01*
X132958702Y-91834313D01*
X132862776Y-91653903D01*
X132733636Y-91495561D01*
X132576199Y-91365318D01*
X132573515Y-91363867D01*
X132573511Y-91363864D01*
X132399148Y-91269587D01*
X132396463Y-91268135D01*
X132249008Y-91222490D01*
X132204189Y-91208616D01*
X132204186Y-91208615D01*
X132201274Y-91207714D01*
X132198241Y-91207395D01*
X132198240Y-91207395D01*
X132122038Y-91199386D01*
X131998066Y-91186356D01*
X131995033Y-91186632D01*
X131995029Y-91186632D01*
X131883018Y-91196826D01*
X131794580Y-91204874D01*
X131791647Y-91205737D01*
X131791643Y-91205738D01*
X131642365Y-91249673D01*
X131598566Y-91262564D01*
X131417491Y-91357228D01*
X131258251Y-91485260D01*
X131126912Y-91641784D01*
X131066864Y-91751011D01*
X131041860Y-91796494D01*
X131028477Y-91820837D01*
X130966694Y-92015600D01*
X130966353Y-92018638D01*
X130966353Y-92018639D01*
X130959012Y-92084090D01*
X130943918Y-92218653D01*
X130596507Y-92218653D01*
X130578904Y-92027085D01*
X130577863Y-92021467D01*
X130522439Y-91824947D01*
X130520396Y-91819625D01*
X130430083Y-91636488D01*
X130427097Y-91631616D01*
X130366253Y-91550137D01*
X130358075Y-91545272D01*
X130352234Y-91546755D01*
X129674507Y-92224481D01*
X129670866Y-92233271D01*
X129230648Y-92233271D01*
X129227007Y-92224481D01*
X128551435Y-91548910D01*
X128542645Y-91545269D01*
X128536617Y-91547766D01*
X128490500Y-91606266D01*
X128487390Y-91611055D01*
X128392312Y-91791768D01*
X128390133Y-91797028D01*
X128329579Y-91992046D01*
X128328395Y-91997617D01*
X128304394Y-92200396D01*
X128304245Y-92206108D01*
X127955035Y-92206108D01*
X127937759Y-92029919D01*
X127878702Y-91834313D01*
X127782776Y-91653903D01*
X127653636Y-91495561D01*
X127496199Y-91365318D01*
X127493515Y-91363867D01*
X127493511Y-91363864D01*
X127417274Y-91322643D01*
X128761506Y-91322643D01*
X128765379Y-91332933D01*
X129441967Y-92009521D01*
X129450757Y-92013162D01*
X129459547Y-92009521D01*
X130138301Y-91330766D01*
X130141942Y-91321976D01*
X130140120Y-91317578D01*
X129973947Y-91212732D01*
X129968869Y-91210144D01*
X129779206Y-91134476D01*
X129773740Y-91132857D01*
X129573467Y-91093020D01*
X129567803Y-91092425D01*
X129363619Y-91089751D01*
X129357932Y-91090199D01*
X129156691Y-91124779D01*
X129151182Y-91126255D01*
X128959606Y-91196932D01*
X128954461Y-91199386D01*
X128778978Y-91303787D01*
X128774356Y-91307145D01*
X128765182Y-91315190D01*
X128761506Y-91322643D01*
X127417274Y-91322643D01*
X127319148Y-91269587D01*
X127316463Y-91268135D01*
X127169008Y-91222490D01*
X127124189Y-91208616D01*
X127124186Y-91208615D01*
X127121274Y-91207714D01*
X127118241Y-91207395D01*
X127118240Y-91207395D01*
X127042038Y-91199386D01*
X126918066Y-91186356D01*
X126915033Y-91186632D01*
X126915029Y-91186632D01*
X126803018Y-91196826D01*
X126714580Y-91204874D01*
X126711647Y-91205737D01*
X126711643Y-91205738D01*
X126562365Y-91249673D01*
X126518566Y-91262564D01*
X126337491Y-91357228D01*
X126178251Y-91485260D01*
X126046912Y-91641784D01*
X125983668Y-91756825D01*
X125963241Y-91793981D01*
X125925909Y-91823889D01*
X125908472Y-91826371D01*
X125372033Y-91826371D01*
X125327839Y-91808065D01*
X125316849Y-91793213D01*
X125244211Y-91656601D01*
X125244209Y-91656598D01*
X125242776Y-91653903D01*
X125113636Y-91495561D01*
X124956199Y-91365318D01*
X124953515Y-91363867D01*
X124953511Y-91363864D01*
X124779148Y-91269587D01*
X124776463Y-91268135D01*
X124629008Y-91222490D01*
X124584189Y-91208616D01*
X124584186Y-91208615D01*
X124581274Y-91207714D01*
X124578241Y-91207395D01*
X124578240Y-91207395D01*
X124502038Y-91199386D01*
X124378066Y-91186356D01*
X124375033Y-91186632D01*
X124375029Y-91186632D01*
X124263018Y-91196826D01*
X124174580Y-91204874D01*
X124171647Y-91205737D01*
X124171643Y-91205738D01*
X124022365Y-91249673D01*
X123978566Y-91262564D01*
X123797491Y-91357228D01*
X123638251Y-91485260D01*
X123506912Y-91641784D01*
X123446864Y-91751011D01*
X123421860Y-91796494D01*
X123408477Y-91820837D01*
X123346694Y-92015600D01*
X123346353Y-92018638D01*
X123346353Y-92018639D01*
X123339012Y-92084090D01*
X123323918Y-92218653D01*
X120538052Y-92218653D01*
X120475765Y-92165454D01*
X120475762Y-92165452D01*
X120473897Y-92163859D01*
X120343745Y-92084102D01*
X120254484Y-92029403D01*
X120254481Y-92029402D01*
X120252385Y-92028117D01*
X120250117Y-92027178D01*
X120250110Y-92027174D01*
X120014641Y-91929640D01*
X120014642Y-91929640D01*
X120012367Y-91928698D01*
X119759751Y-91868050D01*
X119701782Y-91863488D01*
X119566849Y-91852868D01*
X119566836Y-91852867D01*
X119565610Y-91852771D01*
X119435904Y-91852771D01*
X119434678Y-91852867D01*
X119434665Y-91852868D01*
X119299732Y-91863488D01*
X119241763Y-91868050D01*
X118989147Y-91928698D01*
X118986872Y-91929640D01*
X118986873Y-91929640D01*
X118751404Y-92027174D01*
X118751397Y-92027178D01*
X118749129Y-92028117D01*
X118747033Y-92029402D01*
X118747030Y-92029403D01*
X118657769Y-92084102D01*
X118527617Y-92163859D01*
X118525752Y-92165452D01*
X118525749Y-92165454D01*
X118459894Y-92221700D01*
X118330068Y-92332582D01*
X118328476Y-92334446D01*
X118214313Y-92468114D01*
X118161345Y-92530131D01*
X118160062Y-92532224D01*
X118160061Y-92532226D01*
X118059933Y-92695622D01*
X118025603Y-92751643D01*
X118024664Y-92753911D01*
X118024660Y-92753918D01*
X117957224Y-92916723D01*
X117926184Y-92991661D01*
X117865536Y-93244277D01*
X117845153Y-93503271D01*
X116026257Y-93503271D01*
X116026257Y-93008343D01*
X116028358Y-93003271D01*
X116026493Y-92998768D01*
X116028497Y-92960537D01*
X116042383Y-92695622D01*
X116043067Y-92689116D01*
X116079829Y-92457021D01*
X116090751Y-92388068D01*
X116092109Y-92381677D01*
X116094335Y-92373372D01*
X116131386Y-92235098D01*
X116170998Y-92087269D01*
X116173019Y-92081048D01*
X116282250Y-91796494D01*
X116284911Y-91790517D01*
X116363393Y-91636488D01*
X116423289Y-91518937D01*
X116426558Y-91513275D01*
X116442681Y-91488448D01*
X116592562Y-91257652D01*
X116596403Y-91252365D01*
X116788226Y-91015485D01*
X116792603Y-91010624D01*
X117008119Y-90795106D01*
X117012980Y-90790729D01*
X117249852Y-90598912D01*
X117255136Y-90595072D01*
X117510766Y-90429063D01*
X117516428Y-90425794D01*
X117788011Y-90287413D01*
X117793977Y-90284757D01*
X118078541Y-90175520D01*
X118084749Y-90173503D01*
X118379168Y-90094611D01*
X118385557Y-90093253D01*
X118501978Y-90074812D01*
X118686602Y-90045569D01*
X118693108Y-90044885D01*
X118991569Y-90029239D01*
X118996224Y-90028995D01*
X119000757Y-90030872D01*
X119005829Y-90028771D01*
X177995685Y-90028771D01*
X178000757Y-90030872D01*
G37*
%TD.AperFunction*%
%TD*%
M02*
