%TF.GenerationSoftware,KiCad,Pcbnew,(6.0.7-1)-1*%
%TF.CreationDate,2022-08-15T15:20:02-07:00*%
%TF.ProjectId,KamiPCB,4b616d69-5043-4422-9e6b-696361645f70,rev?*%
%TF.SameCoordinates,Original*%
%TF.FileFunction,Soldermask,Bot*%
%TF.FilePolarity,Negative*%
%FSLAX46Y46*%
G04 Gerber Fmt 4.6, Leading zero omitted, Abs format (unit mm)*
G04 Created by KiCad (PCBNEW (6.0.7-1)-1) date 2022-08-15 15:20:02*
%MOMM*%
%LPD*%
G01*
G04 APERTURE LIST*
G04 Aperture macros list*
%AMRoundRect*
0 Rectangle with rounded corners*
0 $1 Rounding radius*
0 $2 $3 $4 $5 $6 $7 $8 $9 X,Y pos of 4 corners*
0 Add a 4 corners polygon primitive as box body*
4,1,4,$2,$3,$4,$5,$6,$7,$8,$9,$2,$3,0*
0 Add four circle primitives for the rounded corners*
1,1,$1+$1,$2,$3*
1,1,$1+$1,$4,$5*
1,1,$1+$1,$6,$7*
1,1,$1+$1,$8,$9*
0 Add four rect primitives between the rounded corners*
20,1,$1+$1,$2,$3,$4,$5,0*
20,1,$1+$1,$4,$5,$6,$7,0*
20,1,$1+$1,$6,$7,$8,$9,0*
20,1,$1+$1,$8,$9,$2,$3,0*%
G04 Aperture macros list end*
%ADD10C,1.778000*%
%ADD11C,2.800000*%
%ADD12RoundRect,0.237500X-0.250000X-0.237500X0.250000X-0.237500X0.250000X0.237500X-0.250000X0.237500X0*%
%ADD13C,1.879600*%
G04 APERTURE END LIST*
D10*
%TO.C,*%
X162560000Y-116840000D03*
%TD*%
%TO.C,*%
X157480000Y-116840000D03*
%TD*%
%TO.C,*%
X149860000Y-111760000D03*
%TD*%
%TO.C,*%
X165100000Y-104140000D03*
%TD*%
%TO.C,*%
X137160000Y-101600000D03*
%TD*%
%TO.C,*%
X132080000Y-101600000D03*
%TD*%
%TO.C,*%
X152400000Y-111760000D03*
%TD*%
%TO.C,*%
X149860000Y-104140000D03*
%TD*%
%TO.C,*%
X160020000Y-116840000D03*
%TD*%
%TO.C,*%
X154940000Y-111760000D03*
%TD*%
%TO.C,*%
X137160000Y-116840000D03*
%TD*%
%TO.C,*%
X157480000Y-111760000D03*
%TD*%
%TO.C,*%
X129540000Y-116840000D03*
%TD*%
D11*
%TO.C,RPI1*%
X119500757Y-93503271D03*
X177500757Y-116503271D03*
X177500757Y-93503271D03*
X119500757Y-116503271D03*
D10*
X124370757Y-94773271D03*
X124370757Y-92233271D03*
X126910757Y-94773271D03*
X126910757Y-92233271D03*
X129450757Y-94773271D03*
X129450757Y-92233271D03*
X131990757Y-94773271D03*
X131990757Y-92233271D03*
X134530757Y-94773271D03*
X134530757Y-92233271D03*
X137070757Y-94773271D03*
X137070757Y-92233271D03*
X139610757Y-94773271D03*
X139610757Y-92233271D03*
X142150757Y-94773271D03*
X142150757Y-92233271D03*
X144690757Y-94773271D03*
X144690757Y-92233271D03*
X147230757Y-94773271D03*
X147230757Y-92233271D03*
X149770757Y-94773271D03*
X149770757Y-92233271D03*
X152310757Y-94773271D03*
X152310757Y-92233271D03*
X154850757Y-94773271D03*
X154850757Y-92233271D03*
X157390757Y-94773271D03*
X157390757Y-92233271D03*
X159930757Y-94773271D03*
X159930757Y-92233271D03*
X162470757Y-94773271D03*
X162470757Y-92233271D03*
X165010757Y-94773271D03*
X165010757Y-92233271D03*
X167550757Y-94773271D03*
X167550757Y-92233271D03*
X170090757Y-94773271D03*
X170090757Y-92233271D03*
X172630757Y-94773271D03*
X172630757Y-92233271D03*
%TD*%
%TO.C,*%
X127000000Y-101600000D03*
%TD*%
%TO.C,*%
X124460000Y-116840000D03*
%TD*%
%TO.C,*%
X129540000Y-101600000D03*
%TD*%
%TO.C,*%
X167640000Y-104140000D03*
%TD*%
%TO.C,*%
X154940000Y-104140000D03*
%TD*%
D12*
%TO.C,*%
X123547500Y-111760000D03*
%TD*%
D10*
%TO.C,*%
X139700000Y-101600000D03*
%TD*%
%TO.C,*%
X124460000Y-101600000D03*
%TD*%
%TO.C,*%
X165100000Y-111760000D03*
%TD*%
%TO.C,*%
X160020000Y-104140000D03*
%TD*%
%TO.C,*%
X154940000Y-116840000D03*
%TD*%
%TO.C,*%
X152400000Y-116840000D03*
%TD*%
%TO.C,*%
X152400000Y-104140000D03*
%TD*%
%TO.C,*%
X160020000Y-111760000D03*
%TD*%
%TO.C,*%
X139700000Y-116840000D03*
%TD*%
%TO.C,*%
X167640000Y-111760000D03*
%TD*%
%TO.C,*%
X134620000Y-116840000D03*
%TD*%
%TO.C,*%
X162560000Y-104140000D03*
%TD*%
%TO.C,*%
X142240000Y-101600000D03*
%TD*%
D13*
%TO.C,JP1*%
X167640000Y-99060000D03*
X165100000Y-99060000D03*
X162560000Y-99060000D03*
X160020000Y-99060000D03*
X157480000Y-99060000D03*
X154940000Y-99060000D03*
%TD*%
D10*
%TO.C,*%
X142240000Y-116840000D03*
%TD*%
%TO.C,*%
X162560000Y-111760000D03*
%TD*%
%TO.C,*%
X134620000Y-101600000D03*
%TD*%
%TO.C,*%
X127000000Y-116840000D03*
%TD*%
%TO.C,*%
X132080000Y-116840000D03*
%TD*%
%TO.C,*%
X165100000Y-116840000D03*
%TD*%
%TO.C,*%
X157480000Y-104140000D03*
%TD*%
M02*
