%TF.GenerationSoftware,KiCad,Pcbnew,(6.0.7-1)-1*%
%TF.CreationDate,2022-09-05T19:59:37-07:00*%
%TF.ProjectId,KamiPCBv2,4b616d69-5043-4427-9632-2e6b69636164,rev?*%
%TF.SameCoordinates,Original*%
%TF.FileFunction,Copper,L2,Bot*%
%TF.FilePolarity,Positive*%
%FSLAX46Y46*%
G04 Gerber Fmt 4.6, Leading zero omitted, Abs format (unit mm)*
G04 Created by KiCad (PCBNEW (6.0.7-1)-1) date 2022-09-05 19:59:37*
%MOMM*%
%LPD*%
G01*
G04 APERTURE LIST*
G04 Aperture macros list*
%AMRoundRect*
0 Rectangle with rounded corners*
0 $1 Rounding radius*
0 $2 $3 $4 $5 $6 $7 $8 $9 X,Y pos of 4 corners*
0 Add a 4 corners polygon primitive as box body*
4,1,4,$2,$3,$4,$5,$6,$7,$8,$9,$2,$3,0*
0 Add four circle primitives for the rounded corners*
1,1,$1+$1,$2,$3*
1,1,$1+$1,$4,$5*
1,1,$1+$1,$6,$7*
1,1,$1+$1,$8,$9*
0 Add four rect primitives between the rounded corners*
20,1,$1+$1,$2,$3,$4,$5,0*
20,1,$1+$1,$4,$5,$6,$7,0*
20,1,$1+$1,$6,$7,$8,$9,0*
20,1,$1+$1,$8,$9,$2,$3,0*%
G04 Aperture macros list end*
%TA.AperFunction,SMDPad,CuDef*%
%ADD10R,3.400000X1.600000*%
%TD*%
%TA.AperFunction,SMDPad,CuDef*%
%ADD11R,4.600000X1.000000*%
%TD*%
%TA.AperFunction,ComponentPad*%
%ADD12C,1.778000*%
%TD*%
%TA.AperFunction,ComponentPad*%
%ADD13C,1.676400*%
%TD*%
%TA.AperFunction,SMDPad,CuDef*%
%ADD14RoundRect,0.500000X0.000000X0.000000X0.000000X0.000000X0.000000X0.000000X0.000000X0.000000X0*%
%TD*%
%TA.AperFunction,ViaPad*%
%ADD15C,0.800000*%
%TD*%
%TA.AperFunction,Conductor*%
%ADD16C,0.750000*%
%TD*%
%TA.AperFunction,Conductor*%
%ADD17C,0.406400*%
%TD*%
%TA.AperFunction,Conductor*%
%ADD18C,0.250000*%
%TD*%
%TA.AperFunction,Conductor*%
%ADD19C,0.254000*%
%TD*%
%TA.AperFunction,Conductor*%
%ADD20C,0.350000*%
%TD*%
%TA.AperFunction,Conductor*%
%ADD21C,0.500000*%
%TD*%
G04 APERTURE END LIST*
D10*
%TO.P,X1,NC2*%
%TO.N,N/C*%
X115800000Y-108400000D03*
%TO.P,X1,NC1*%
X115800000Y-101600000D03*
D11*
%TO.P,X1,*%
%TO.N,Batt+*%
X110600000Y-104000000D03*
%TO.N,GND*%
X110600000Y-106000000D03*
%TD*%
D12*
%TO.P,,2*%
%TO.N,N/C*%
X160020000Y-116840000D03*
%TD*%
%TO.P,,4*%
%TO.N,N/C*%
X165100000Y-116840000D03*
%TD*%
D13*
%TO.P,,*%
%TO.N,CH0*%
X149860000Y-114300000D03*
%TD*%
%TO.P,,11*%
%TO.N,GPIO24*%
X137160000Y-101600000D03*
%TD*%
%TO.P,,13*%
%TO.N,GPIO17*%
X132080000Y-101600000D03*
%TD*%
%TO.P,,*%
%TO.N,CH1*%
X152400000Y-114300000D03*
%TD*%
%TO.P,,*%
%TO.N,3.3V*%
X149860000Y-106680000D03*
%TD*%
D12*
%TO.P,,*%
%TO.N,GPIO16*%
X165100000Y-106680000D03*
%TD*%
D13*
%TO.P,,*%
%TO.N,CH2*%
X114300000Y-89360000D03*
%TD*%
%TO.P,,*%
%TO.N,CH2*%
X154940000Y-114300000D03*
%TD*%
%TO.P,,*%
%TO.N,M2+*%
X137160000Y-116840000D03*
%TD*%
%TO.P,,CH3*%
%TO.N,N/C*%
X157480000Y-114300000D03*
%TD*%
%TO.P,,6*%
%TO.N,GND*%
X129540000Y-116840000D03*
%TD*%
%TO.P,RPI1,1*%
%TO.N,3.3V*%
X124370757Y-94773271D03*
%TO.P,RPI1,2*%
%TO.N,5.0V*%
X124370757Y-92233271D03*
%TO.P,RPI1,3*%
%TO.N,SDA*%
X126910757Y-94773271D03*
%TO.P,RPI1,4*%
%TO.N,5.0V*%
X126910757Y-92233271D03*
%TO.P,RPI1,5*%
%TO.N,SCL*%
X129450757Y-94773271D03*
%TO.P,RPI1,6*%
%TO.N,GND*%
X129450757Y-92233271D03*
%TO.P,RPI1,7*%
%TO.N,GPIO4*%
X131990757Y-94773271D03*
%TO.P,RPI1,8*%
%TO.N,TXD*%
X131990757Y-92233271D03*
%TO.P,RPI1,9*%
%TO.N,GND*%
X134530757Y-94773271D03*
%TO.P,RPI1,10*%
%TO.N,RXD*%
X134530757Y-92233271D03*
%TO.P,RPI1,11*%
%TO.N,GPIO17*%
X137070757Y-94773271D03*
%TO.P,RPI1,12*%
%TO.N,GPIO18*%
X137070757Y-92233271D03*
%TO.P,RPI1,13*%
%TO.N,GPIO27*%
X139610757Y-94773271D03*
%TO.P,RPI1,14*%
%TO.N,GND*%
X139610757Y-92233271D03*
%TO.P,RPI1,15*%
%TO.N,GPIO22*%
X142150757Y-94773271D03*
%TO.P,RPI1,16*%
%TO.N,GPIO23*%
X142150757Y-92233271D03*
%TO.P,RPI1,17*%
%TO.N,3.3V*%
X144690757Y-94773271D03*
%TO.P,RPI1,18*%
%TO.N,GPIO24*%
X144690757Y-92233271D03*
%TO.P,RPI1,19*%
%TO.N,SPI_MOSI*%
X147230757Y-94773271D03*
%TO.P,RPI1,20*%
%TO.N,GND*%
X147230757Y-92233271D03*
%TO.P,RPI1,21*%
%TO.N,SPI_MISO*%
X149770757Y-94773271D03*
%TO.P,RPI1,22*%
%TO.N,GPIO25*%
X149770757Y-92233271D03*
%TO.P,RPI1,23*%
%TO.N,SPI_SCLK*%
X152310757Y-94773271D03*
%TO.P,RPI1,24*%
%TO.N,SPI_CE0*%
X152310757Y-92233271D03*
%TO.P,RPI1,25*%
%TO.N,GND*%
X154850757Y-94773271D03*
%TO.P,RPI1,26*%
%TO.N,SPI_CE1*%
X154850757Y-92233271D03*
%TO.P,RPI1,27*%
%TO.N,EEDATA*%
X157390757Y-94773271D03*
%TO.P,RPI1,28*%
%TO.N,EECLK*%
X157390757Y-92233271D03*
%TO.P,RPI1,29*%
%TO.N,GPIO5*%
X159930757Y-94773271D03*
%TO.P,RPI1,30*%
%TO.N,GND*%
X159930757Y-92233271D03*
%TO.P,RPI1,31*%
%TO.N,GPIO6*%
X162470757Y-94773271D03*
%TO.P,RPI1,32*%
%TO.N,GPIO12*%
X162470757Y-92233271D03*
%TO.P,RPI1,33*%
%TO.N,GPIO13*%
X165010757Y-94773271D03*
%TO.P,RPI1,34*%
%TO.N,GND*%
X165010757Y-92233271D03*
%TO.P,RPI1,35*%
%TO.N,GPIO19*%
X167550757Y-94773271D03*
%TO.P,RPI1,36*%
%TO.N,GPIO16*%
X167550757Y-92233271D03*
%TO.P,RPI1,37*%
%TO.N,GPIO26*%
X170090757Y-94773271D03*
%TO.P,RPI1,38*%
%TO.N,GPIO20*%
X170090757Y-92233271D03*
%TO.P,RPI1,39*%
%TO.N,GND*%
X172630757Y-94773271D03*
%TO.P,RPI1,40*%
%TO.N,GPIO21*%
X172630757Y-92233271D03*
%TD*%
%TO.P,,*%
%TO.N,M2+*%
X137160000Y-121920000D03*
%TD*%
%TO.P,,*%
%TO.N,M1-*%
X134620000Y-121920000D03*
%TD*%
%TO.P,,15*%
%TO.N,GPIO22*%
X127000000Y-101600000D03*
%TD*%
%TO.P,,8*%
%TO.N,5.0V*%
X124460000Y-116840000D03*
%TD*%
%TO.P,,14*%
%TO.N,GPIO27*%
X129540000Y-101600000D03*
%TD*%
%TO.P,,*%
%TO.N,GND*%
X167640000Y-106680000D03*
%TD*%
%TO.P,,*%
%TO.N,AN2*%
X111760000Y-89360000D03*
%TD*%
%TO.P,,*%
%TO.N,GND*%
X154940000Y-106680000D03*
%TD*%
%TO.P,,*%
%TO.N,M2-*%
X139700000Y-121920000D03*
%TD*%
%TO.P,,*%
%TO.N,CHRGR*%
X111760000Y-93980000D03*
%TD*%
%TO.P,,10*%
%TO.N,GPIO18*%
X139700000Y-101600000D03*
%TD*%
%TO.P,,16*%
%TO.N,GPIO13*%
X124460000Y-101600000D03*
%TD*%
%TO.P,,CH6*%
%TO.N,N/C*%
X165100000Y-114300000D03*
%TD*%
D14*
%TO.P,FID1,1*%
%TO.N,N/C*%
X114300000Y-105000000D03*
%TD*%
D13*
%TO.P,,*%
%TO.N,SPI_MISO*%
X160020000Y-106680000D03*
%TD*%
%TO.P,,*%
%TO.N,AN1*%
X114300000Y-122180029D03*
%TD*%
%TO.P,,*%
%TO.N,GND*%
X111760000Y-122180029D03*
%TD*%
%TO.P,,*%
%TO.N,3.3V*%
X152400000Y-106680000D03*
%TD*%
%TO.P,,CH4*%
%TO.N,N/C*%
X160020000Y-114300000D03*
%TD*%
%TO.P,,*%
%TO.N,M2-*%
X139700000Y-116840000D03*
%TD*%
%TO.P,,CH7*%
%TO.N,N/C*%
X167640000Y-114300000D03*
%TD*%
%TO.P,,*%
%TO.N,M1-*%
X134620000Y-116840000D03*
%TD*%
%TO.P,,*%
%TO.N,SPI_MOSI*%
X162560000Y-106680000D03*
%TD*%
%TO.P,,9*%
%TO.N,GND*%
X142240000Y-101600000D03*
%TD*%
D12*
%TO.P,JP1,*%
%TO.N,5.0V*%
X154940000Y-101600000D03*
%TO.N,GPIO26*%
X167640000Y-101600000D03*
%TO.P,JP1,2*%
%TO.N,SDA*%
X165100000Y-101600000D03*
%TO.P,JP1,3*%
%TO.N,SCL*%
X162560000Y-101600000D03*
%TO.P,JP1,4*%
%TO.N,GND*%
X160020000Y-101600000D03*
%TO.P,JP1,5*%
%TO.N,3.3V*%
X157480000Y-101600000D03*
%TD*%
D13*
%TO.P,,1*%
%TO.N,GND*%
X142240000Y-116840000D03*
%TD*%
%TO.P,,CH5*%
%TO.N,N/C*%
X162560000Y-114300000D03*
%TD*%
D12*
%TO.P,,1*%
%TO.N,N/C*%
X157480000Y-116840000D03*
%TD*%
D13*
%TO.P,,12*%
%TO.N,GPIO23*%
X134620000Y-101600000D03*
%TD*%
%TO.P,,7*%
%TO.N,5.0V*%
X127000000Y-116840000D03*
%TD*%
D12*
%TO.P,,3*%
%TO.N,N/C*%
X162560000Y-116840000D03*
%TD*%
D13*
%TO.P,,*%
%TO.N,M1+*%
X132080000Y-121920000D03*
%TD*%
%TO.P,,*%
%TO.N,M1+*%
X132080000Y-116840000D03*
%TD*%
%TO.P,,*%
%TO.N,GND*%
X116840000Y-89360000D03*
%TD*%
%TO.P,,*%
%TO.N,SPI_SCLK*%
X157480000Y-106680000D03*
%TD*%
%TO.P,,*%
%TO.N,CH1*%
X116840000Y-122180029D03*
%TD*%
%TO.P,,*%
%TO.N,GND*%
X114300000Y-93980000D03*
%TD*%
D15*
%TO.N,SDA*%
X152400000Y-109220000D03*
%TO.N,SCL*%
X149860000Y-99060000D03*
%TO.N,3.3V*%
X157480000Y-104140000D03*
%TO.N,CH2*%
X142240000Y-88900000D03*
%TO.N,CH0*%
X127000000Y-111760000D03*
%TO.N,Batt+*%
X101600000Y-106680000D03*
%TD*%
D16*
%TO.N,GND*%
X110600000Y-106000000D02*
X110600000Y-110600000D01*
X110600000Y-110600000D02*
X113525000Y-113525000D01*
X114300000Y-96450000D02*
X114300000Y-93980000D01*
X119380000Y-101530000D02*
X114300000Y-96450000D01*
X119380000Y-101530000D02*
X114230000Y-106680000D01*
X114230000Y-106680000D02*
X111280000Y-106680000D01*
X111280000Y-106680000D02*
X110600000Y-106000000D01*
%TO.N,Batt+*%
X110600000Y-104000000D02*
X104280000Y-104000000D01*
X104280000Y-104000000D02*
X101600000Y-106680000D01*
D17*
%TO.N,5.0V*%
X124370757Y-92233271D02*
X126910757Y-92233271D01*
D18*
%TO.N,SDA*%
X126910757Y-94773271D02*
X128376800Y-96239314D01*
X152400000Y-109220000D02*
X151310000Y-109220000D01*
X134789986Y-108495000D02*
X150585000Y-108495000D01*
X128376800Y-96239314D02*
X128376800Y-102081814D01*
X151310000Y-109220000D02*
X150585000Y-108495000D01*
X128376800Y-102081814D02*
X134789986Y-108495000D01*
%TO.N,SCL*%
X153765000Y-102965000D02*
X161195000Y-102965000D01*
X149860000Y-99060000D02*
X153765000Y-102965000D01*
X161195000Y-102965000D02*
X162560000Y-101600000D01*
D19*
%TO.N,GPIO27*%
X139242800Y-96330622D02*
X139242800Y-98413422D01*
X130186578Y-98413422D02*
X129540000Y-99060000D01*
X139242800Y-98413422D02*
X130186578Y-98413422D01*
X139610757Y-95962665D02*
X139242800Y-96330622D01*
X129540000Y-99060000D02*
X129540000Y-101600000D01*
X139610757Y-94773271D02*
X139610757Y-95962665D01*
D18*
%TO.N,SPI_MOSI*%
X162560000Y-106680000D02*
X159295000Y-103415000D01*
X159295000Y-103415000D02*
X151675000Y-103415000D01*
X147230757Y-98970757D02*
X147230757Y-94773271D01*
X151675000Y-103415000D02*
X147230757Y-98970757D01*
%TO.N,3.3V*%
X149860000Y-104140000D02*
X154940000Y-104140000D01*
X144690757Y-94773271D02*
X144690757Y-98970757D01*
X144690757Y-98970757D02*
X149860000Y-104140000D01*
D19*
X154940000Y-104140000D02*
X157480000Y-104140000D01*
D20*
%TO.N,GND*%
X129540000Y-119380000D02*
X129540000Y-116840000D01*
D18*
X171952856Y-107894000D02*
X172720000Y-107126856D01*
D20*
X160020000Y-111760000D02*
X154940000Y-106680000D01*
D21*
X116840000Y-89360000D02*
X128990757Y-89360000D01*
D20*
X162470757Y-96609243D02*
X160020000Y-99060000D01*
D21*
X128990757Y-89360000D02*
X129450757Y-89820000D01*
D20*
X172720000Y-94862514D02*
X172720000Y-107197566D01*
D18*
X111760000Y-122180029D02*
X111760000Y-115290000D01*
D20*
X172630757Y-96609243D02*
X172630757Y-94773271D01*
X160020000Y-99060000D02*
X160020000Y-101600000D01*
D21*
X114300000Y-91900000D02*
X116840000Y-89360000D01*
D16*
X113525000Y-113525000D02*
X119380000Y-119380000D01*
D21*
X114300000Y-93980000D02*
X114300000Y-91900000D01*
D20*
X172630757Y-96609243D02*
X162470757Y-96609243D01*
D18*
X168854000Y-107894000D02*
X171952856Y-107894000D01*
X111760000Y-115290000D02*
X113525000Y-113525000D01*
D20*
X172630757Y-94773271D02*
X172720000Y-94862514D01*
X172720000Y-107197566D02*
X168157566Y-111760000D01*
D18*
X167640000Y-106680000D02*
X168854000Y-107894000D01*
D16*
X119380000Y-119380000D02*
X129540000Y-119380000D01*
D21*
X129450757Y-89820000D02*
X129450757Y-92233271D01*
D20*
X168157566Y-111760000D02*
X160020000Y-111760000D01*
D19*
%TO.N,GPIO23*%
X139700000Y-98609758D02*
X139700000Y-96520000D01*
X139249758Y-99060000D02*
X139700000Y-98609758D01*
X134620000Y-101600000D02*
X137160000Y-99060000D01*
X137160000Y-99060000D02*
X139249758Y-99060000D01*
X140982357Y-93401671D02*
X142150757Y-92233271D01*
X139700000Y-96520000D02*
X140982357Y-95237643D01*
X140982357Y-95237643D02*
X140982357Y-93401671D01*
D18*
%TO.N,CH2*%
X142275114Y-88900000D02*
X143527557Y-90152443D01*
X114300000Y-89360000D02*
X117300000Y-86360000D01*
X117300000Y-86360000D02*
X139700000Y-86360000D01*
X153776800Y-113136800D02*
X154940000Y-114300000D01*
X143527557Y-98446781D02*
X149670776Y-104590000D01*
X139700000Y-86360000D02*
X142240000Y-88900000D01*
X152400000Y-104590000D02*
X153776800Y-105966800D01*
X142240000Y-88900000D02*
X142275114Y-88900000D01*
X149670776Y-104590000D02*
X152400000Y-104590000D01*
X153776800Y-105966800D02*
X153776800Y-113136800D01*
X143527557Y-90152443D02*
X143527557Y-98446781D01*
%TO.N,CH0*%
X127000000Y-111760000D02*
X149860000Y-111760000D01*
X149860000Y-111760000D02*
X149860000Y-114300000D01*
%TD*%
M02*
